NotoSansTelugu-Condensed.ufo
<glyph name="exclam.telu" format="2">
  <advance width="274"/>
  <unicode hex="0021"/>
  <outline>
    <contour>
      <point x="165" y="194" type="line"/>
      <point x="185" y="657" type="line"/>
      <point x="87" y="657" type="line"/>
      <point x="107" y="194" type="line"/>
    </contour>
    <contour>
      <point x="83" y="52" type="curve" smooth="yes"/>
      <point x="83" y="10"/>
      <point x="102" y="-12"/>
      <point x="137" y="-12" type="curve" smooth="yes"/>
      <point x="168" y="-12"/>
      <point x="191" y="8"/>
      <point x="191" y="52" type="curve" smooth="yes"/>
      <point x="191" y="97"/>
      <point x="170" y="116"/>
      <point x="137" y="116" type="curve" smooth="yes"/>
      <point x="101" y="116"/>
      <point x="83" y="94"/>
    </contour>
  </outline>
</glyph>
<glyph name="quotedbl.telu" format="2">
  <advance width="404"/>
  <unicode hex="0022"/>
  <outline>
    <contour>
      <point x="96" y="515" type="line"/>
      <point x="149" y="515" type="line"/>
      <point x="171" y="773" type="line"/>
      <point x="73" y="773" type="line"/>
    </contour>
    <contour>
      <point x="255" y="515" type="line"/>
      <point x="308" y="515" type="line"/>
      <point x="331" y="773" type="line"/>
      <point x="233" y="773" type="line"/>
    </contour>
  </outline>
</glyph>
<glyph name="numbersign.telu" format="2">
  <advance width="497"/>
  <unicode hex="0023"/>
  <outline>
    <contour>
      <point x="63" y="0" type="line"/>
      <point x="125" y="0" type="line"/>
      <point x="162" y="183" type="line"/>
      <point x="273" y="183" type="line"/>
      <point x="236" y="0" type="line"/>
      <point x="298" y="0" type="line"/>
      <point x="335" y="183" type="line"/>
      <point x="450" y="183" type="line"/>
      <point x="450" y="246" type="line"/>
      <point x="348" y="246" type="line"/>
      <point x="380" y="410" type="line"/>
      <point x="473" y="410" type="line"/>
      <point x="473" y="473" type="line"/>
      <point x="393" y="473" type="line"/>
      <point x="429" y="651" type="line"/>
      <point x="367" y="651" type="line"/>
      <point x="331" y="473" type="line"/>
      <point x="220" y="473" type="line"/>
      <point x="256" y="651" type="line"/>
      <point x="194" y="651" type="line"/>
      <point x="158" y="473" type="line"/>
      <point x="47" y="473" type="line"/>
      <point x="47" y="410" type="line"/>
      <point x="145" y="410" type="line"/>
      <point x="113" y="246" type="line"/>
      <point x="24" y="246" type="line"/>
      <point x="24" y="183" type="line"/>
      <point x="100" y="183" type="line"/>
    </contour>
    <contour>
      <point x="174" y="246" type="line"/>
      <point x="207" y="410" type="line"/>
      <point x="318" y="410" type="line"/>
      <point x="286" y="246" type="line"/>
    </contour>
  </outline>
</glyph>
<glyph name="percent.telu" format="2">
  <advance width="675"/>
  <unicode hex="0025"/>
  <outline>
    <contour>
      <point x="179" y="0" type="line"/>
      <point x="245" y="0" type="line"/>
      <point x="495" y="651" type="line"/>
      <point x="429" y="651" type="line"/>
    </contour>
    <contour>
      <point x="160" y="276" type="curve" smooth="yes"/>
      <point x="239" y="276"/>
      <point x="278" y="342"/>
      <point x="278" y="469" type="curve" smooth="yes"/>
      <point x="278" y="594"/>
      <point x="240" y="661"/>
      <point x="163" y="661" type="curve" smooth="yes"/>
      <point x="84" y="661"/>
      <point x="45" y="595"/>
      <point x="45" y="468" type="curve" smooth="yes"/>
      <point x="45" y="343"/>
      <point x="83" y="276"/>
    </contour>
    <contour>
      <point x="161" y="336" type="curve" smooth="yes"/>
      <point x="127" y="336"/>
      <point x="112" y="378"/>
      <point x="112" y="468" type="curve" smooth="yes"/>
      <point x="112" y="559"/>
      <point x="126" y="601"/>
      <point x="162" y="601" type="curve" smooth="yes"/>
      <point x="196" y="601"/>
      <point x="211" y="559"/>
      <point x="211" y="468" type="curve" smooth="yes"/>
      <point x="211" y="378"/>
      <point x="197" y="336"/>
    </contour>
    <contour>
      <point x="512" y="-11" type="curve" smooth="yes"/>
      <point x="591" y="-11"/>
      <point x="630" y="55"/>
      <point x="630" y="182" type="curve" smooth="yes"/>
      <point x="630" y="307"/>
      <point x="592" y="374"/>
      <point x="515" y="374" type="curve" smooth="yes"/>
      <point x="436" y="374"/>
      <point x="397" y="308"/>
      <point x="397" y="181" type="curve" smooth="yes"/>
      <point x="397" y="56"/>
      <point x="435" y="-11"/>
    </contour>
    <contour>
      <point x="513" y="49" type="curve" smooth="yes"/>
      <point x="479" y="49"/>
      <point x="464" y="91"/>
      <point x="464" y="181" type="curve" smooth="yes"/>
      <point x="464" y="272"/>
      <point x="478" y="314"/>
      <point x="514" y="314" type="curve" smooth="yes"/>
      <point x="548" y="314"/>
      <point x="563" y="272"/>
      <point x="563" y="181" type="curve" smooth="yes"/>
      <point x="563" y="91"/>
      <point x="549" y="49"/>
    </contour>
  </outline>
</glyph>
<glyph name="quotesingle.telu" format="2">
  <advance width="244"/>
  <unicode hex="0027"/>
  <outline>
    <contour>
      <point x="96" y="515" type="line"/>
      <point x="149" y="515" type="line"/>
      <point x="171" y="773" type="line"/>
      <point x="73" y="773" type="line"/>
    </contour>
  </outline>
</glyph>
<glyph name="parenleft.telu" format="2">
  <advance width="347"/>
  <unicode hex="0028"/>
  <outline>
    <contour>
      <point x="47" y="211" type="curve" smooth="yes"/>
      <point x="47" y="-1"/>
      <point x="106" y="-205"/>
      <point x="230" y="-361" type="curve"/>
      <point x="310" y="-361" type="line"/>
      <point x="184" y="-178"/>
      <point x="130" y="2"/>
      <point x="130" y="210" type="curve" smooth="yes"/>
      <point x="130" y="413"/>
      <point x="187" y="595"/>
      <point x="309" y="773" type="curve"/>
      <point x="230" y="773" type="line"/>
      <point x="107" y="617"/>
      <point x="47" y="420"/>
    </contour>
  </outline>
</glyph>
<glyph name="parenright.telu" format="2">
  <advance width="348"/>
  <unicode hex="0029"/>
  <outline>
    <contour>
      <point x="300" y="201" type="curve" smooth="yes"/>
      <point x="300" y="413"/>
      <point x="241" y="617"/>
      <point x="117" y="773" type="curve"/>
      <point x="37" y="773" type="line"/>
      <point x="163" y="590"/>
      <point x="217" y="410"/>
      <point x="217" y="202" type="curve" smooth="yes"/>
      <point x="217" y="-1"/>
      <point x="160" y="-183"/>
      <point x="38" y="-361" type="curve"/>
      <point x="117" y="-361" type="line"/>
      <point x="240" y="-205"/>
      <point x="300" y="-8"/>
    </contour>
  </outline>
</glyph>
<glyph name="asterisk.telu" format="2">
  <advance width="513"/>
  <unicode hex="002A"/>
  <outline>
    <contour>
      <point x="308" y="773" type="line"/>
      <point x="222" y="773" type="line"/>
      <point x="238" y="597" type="line"/>
      <point x="63" y="645" type="line"/>
      <point x="49" y="561" type="line"/>
      <point x="222" y="547" type="line"/>
      <point x="112" y="399" type="line"/>
      <point x="190" y="355" type="line"/>
      <point x="264" y="522" type="line"/>
      <point x="345" y="355" type="line"/>
      <point x="421" y="399" type="line"/>
      <point x="309" y="547" type="line"/>
      <point x="484" y="561" type="line"/>
      <point x="469" y="645" type="line"/>
      <point x="293" y="596" type="line"/>
    </contour>
  </outline>
</glyph>
<glyph name="plus.telu" format="2">
  <advance width="429"/>
  <unicode hex="002B"/>
  <outline>
    <contour>
      <point x="180" y="292" type="line"/>
      <point x="180" y="92" type="line"/>
      <point x="249" y="92" type="line"/>
      <point x="249" y="292" type="line"/>
      <point x="398" y="292" type="line"/>
      <point x="398" y="360" type="line"/>
      <point x="249" y="360" type="line"/>
      <point x="249" y="561" type="line"/>
      <point x="180" y="561" type="line"/>
      <point x="180" y="360" type="line"/>
      <point x="30" y="360" type="line"/>
      <point x="30" y="292" type="line"/>
    </contour>
  </outline>
</glyph>
<glyph name="comma.telu" format="2">
  <advance width="252"/>
  <unicode hex="002C"/>
  <outline>
    <contour>
      <point x="174" y="119" type="line"/>
      <point x="88" y="119" type="line"/>
      <point x="81" y="47"/>
      <point x="64" y="-45"/>
      <point x="43" y="-126" type="curve"/>
      <point x="105" y="-126" type="line"/>
      <point x="137" y="-54"/>
      <point x="161" y="24"/>
      <point x="181" y="108" type="curve"/>
    </contour>
  </outline>
</glyph>
<glyph name="hyphen.telu" format="2">
  <advance width="308"/>
  <unicode hex="002D"/>
  <outline>
    <contour>
      <point x="38" y="217" type="line"/>
      <point x="270" y="217" type="line"/>
      <point x="270" y="290" type="line"/>
      <point x="38" y="290" type="line"/>
    </contour>
  </outline>
</glyph>
<glyph name="slash.telu" format="2">
  <advance width="381"/>
  <unicode hex="002F"/>
  <outline>
    <contour>
      <point x="346" y="773" type="line"/>
      <point x="271" y="773" type="line"/>
      <point x="35" y="-361" type="line"/>
      <point x="110" y="-361" type="line"/>
    </contour>
  </outline>
</glyph>
<glyph name="zero.telu" format="2">
  <advance width="429"/>
  <unicode hex="0030"/>
  <outline>
    <contour>
      <point x="387" y="324" type="curve" smooth="yes"/>
      <point x="387" y="551"/>
      <point x="331" y="661"/>
      <point x="214" y="661" type="curve" smooth="yes"/>
      <point x="98" y="661"/>
      <point x="41" y="552"/>
      <point x="41" y="324" type="curve" smooth="yes"/>
      <point x="41" y="64"/>
      <point x="106" y="-12"/>
      <point x="214" y="-12" type="curve" smooth="yes"/>
      <point x="337" y="-12"/>
      <point x="387" y="110"/>
    </contour>
    <contour>
      <point x="121" y="324" type="curve" smooth="yes"/>
      <point x="121" y="505"/>
      <point x="149" y="585"/>
      <point x="214" y="585" type="curve" smooth="yes"/>
      <point x="278" y="585"/>
      <point x="307" y="503"/>
      <point x="307" y="324" type="curve" smooth="yes"/>
      <point x="307" y="145"/>
      <point x="278" y="64"/>
      <point x="214" y="64" type="curve" smooth="yes"/>
      <point x="149" y="64"/>
      <point x="121" y="144"/>
    </contour>
  </outline>
</glyph>
<glyph name="one.telu" format="2">
  <advance width="429"/>
  <unicode hex="0031"/>
  <outline>
    <contour>
      <point x="293" y="0" type="line"/>
      <point x="293" y="655" type="line"/>
      <point x="223" y="655" type="line"/>
      <point x="63" y="498" type="line"/>
      <point x="110" y="449" type="line"/>
      <point x="172" y="509" type="line" smooth="yes"/>
      <point x="194" y="531"/>
      <point x="210" y="549"/>
      <point x="218" y="560" type="curve"/>
      <point x="216" y="515"/>
      <point x="214" y="465"/>
      <point x="214" y="422" type="curve" smooth="yes"/>
      <point x="214" y="0" type="line"/>
    </contour>
  </outline>
</glyph>
<glyph name="two.telu" format="2">
  <advance width="429"/>
  <unicode hex="0032"/>
  <outline>
    <contour>
      <point x="382" y="0" type="line"/>
      <point x="382" y="75" type="line"/>
      <point x="129" y="75" type="line"/>
      <point x="129" y="79" type="line"/>
      <point x="245" y="228" type="line" smooth="yes"/>
      <point x="320" y="324"/>
      <point x="367" y="397"/>
      <point x="367" y="498" type="curve" smooth="yes"/>
      <point x="367" y="595"/>
      <point x="304" y="661"/>
      <point x="197" y="661" type="curve" smooth="yes"/>
      <point x="133" y="661"/>
      <point x="83" y="636"/>
      <point x="37" y="604" type="curve"/>
      <point x="76" y="543" type="line"/>
      <point x="109" y="570"/>
      <point x="149" y="586"/>
      <point x="190" y="586" type="curve" smooth="yes"/>
      <point x="251" y="586"/>
      <point x="287" y="547"/>
      <point x="287" y="486" type="curve" smooth="yes"/>
      <point x="287" y="418"/>
      <point x="249" y="349"/>
      <point x="187" y="267" type="curve" smooth="yes"/>
      <point x="33" y="61" type="line"/>
      <point x="33" y="0" type="line"/>
    </contour>
  </outline>
</glyph>
<glyph name="three.telu" format="2">
  <advance width="429"/>
  <unicode hex="0033"/>
  <outline>
    <contour>
      <point x="365" y="502" type="curve" smooth="yes"/>
      <point x="365" y="599"/>
      <point x="302" y="661"/>
      <point x="196" y="661" type="curve" smooth="yes"/>
      <point x="133" y="661"/>
      <point x="85" y="644"/>
      <point x="29" y="605" type="curve"/>
      <point x="69" y="545" type="line"/>
      <point x="106" y="571"/>
      <point x="143" y="588"/>
      <point x="187" y="588" type="curve" smooth="yes"/>
      <point x="250" y="588"/>
      <point x="286" y="552"/>
      <point x="286" y="491" type="curve" smooth="yes"/>
      <point x="286" y="421"/>
      <point x="234" y="373"/>
      <point x="148" y="373" type="curve" smooth="yes"/>
      <point x="109" y="373" type="line"/>
      <point x="109" y="300" type="line"/>
      <point x="145" y="300" type="line" smooth="yes"/>
      <point x="245" y="300"/>
      <point x="294" y="258"/>
      <point x="294" y="184" type="curve" smooth="yes"/>
      <point x="294" y="111"/>
      <point x="256" y="61"/>
      <point x="173" y="61" type="curve" smooth="yes"/>
      <point x="115" y="61"/>
      <point x="77" y="70"/>
      <point x="34" y="89" type="curve"/>
      <point x="34" y="10" type="line"/>
      <point x="73" y="-5"/>
      <point x="120" y="-12"/>
      <point x="181" y="-12" type="curve" smooth="yes"/>
      <point x="305" y="-12"/>
      <point x="377" y="64"/>
      <point x="377" y="178" type="curve" smooth="yes"/>
      <point x="377" y="267"/>
      <point x="331" y="323"/>
      <point x="247" y="339" type="curve"/>
      <point x="247" y="343" type="line"/>
      <point x="325" y="368"/>
      <point x="365" y="424"/>
    </contour>
  </outline>
</glyph>
<glyph name="four.telu" format="2">
  <advance width="429"/>
  <unicode hex="0034"/>
  <outline>
    <contour>
      <point x="415" y="150" type="line"/>
      <point x="415" y="221" type="line"/>
      <point x="338" y="221" type="line"/>
      <point x="338" y="655" type="line"/>
      <point x="255" y="655" type="line"/>
      <point x="17" y="218" type="line"/>
      <point x="17" y="150" type="line"/>
      <point x="260" y="150" type="line"/>
      <point x="260" y="0" type="line"/>
      <point x="338" y="0" type="line"/>
      <point x="338" y="150" type="line"/>
    </contour>
    <contour>
      <point x="260" y="221" type="line"/>
      <point x="90" y="221" type="line"/>
      <point x="217" y="461" type="line" smooth="yes"/>
      <point x="231" y="487"/>
      <point x="248" y="521"/>
      <point x="259" y="552" type="curve"/>
      <point x="263" y="552" type="line"/>
      <point x="262" y="524"/>
      <point x="260" y="465"/>
      <point x="260" y="434" type="curve" smooth="yes"/>
    </contour>
  </outline>
</glyph>
<glyph name="five.telu" format="2">
  <advance width="429"/>
  <unicode hex="0035"/>
  <outline>
    <contour>
      <point x="205" y="401" type="curve" smooth="yes"/>
      <point x="187" y="401"/>
      <point x="156" y="399"/>
      <point x="128" y="393" type="curve"/>
      <point x="140" y="575" type="line"/>
      <point x="346" y="575" type="line"/>
      <point x="346" y="651" type="line"/>
      <point x="73" y="651" type="line"/>
      <point x="55" y="346" type="line"/>
      <point x="88" y="314" type="line"/>
      <point x="120" y="324"/>
      <point x="151" y="330"/>
      <point x="183" y="330" type="curve" smooth="yes"/>
      <point x="258" y="330"/>
      <point x="304" y="288"/>
      <point x="304" y="202" type="curve" smooth="yes"/>
      <point x="304" y="127"/>
      <point x="269" y="61"/>
      <point x="176" y="61" type="curve" smooth="yes"/>
      <point x="125" y="61"/>
      <point x="85" y="71"/>
      <point x="49" y="92" type="curve"/>
      <point x="49" y="11" type="line"/>
      <point x="81" y="-2"/>
      <point x="127" y="-12"/>
      <point x="180" y="-12" type="curve" smooth="yes"/>
      <point x="320" y="-12"/>
      <point x="385" y="76"/>
      <point x="385" y="208" type="curve" smooth="yes"/>
      <point x="385" y="323"/>
      <point x="319" y="401"/>
    </contour>
  </outline>
</glyph>
<glyph name="six.telu" format="2">
  <advance width="429"/>
  <unicode hex="0036"/>
  <outline>
    <contour>
      <point x="47" y="275" type="curve" smooth="yes"/>
      <point x="47" y="91"/>
      <point x="110" y="-12"/>
      <point x="224" y="-12" type="curve" smooth="yes"/>
      <point x="336" y="-12"/>
      <point x="391" y="82"/>
      <point x="391" y="207" type="curve" smooth="yes"/>
      <point x="391" y="319"/>
      <point x="343" y="415"/>
      <point x="243" y="415" type="curve" smooth="yes"/>
      <point x="192" y="415"/>
      <point x="149" y="385"/>
      <point x="127" y="335" type="curve"/>
      <point x="123" y="335" type="line"/>
      <point x="129" y="502"/>
      <point x="182" y="587"/>
      <point x="283" y="587" type="curve" smooth="yes"/>
      <point x="309" y="587"/>
      <point x="333" y="583"/>
      <point x="354" y="576" type="curve"/>
      <point x="354" y="651" type="line"/>
      <point x="333" y="657"/>
      <point x="308" y="661"/>
      <point x="280" y="661" type="curve" smooth="yes"/>
      <point x="113" y="661"/>
      <point x="47" y="519"/>
    </contour>
    <contour>
      <point x="223" y="63" type="curve" smooth="yes"/>
      <point x="154" y="63"/>
      <point x="128" y="152"/>
      <point x="128" y="229" type="curve" smooth="yes"/>
      <point x="128" y="286"/>
      <point x="162" y="341"/>
      <point x="223" y="341" type="curve" smooth="yes"/>
      <point x="281" y="341"/>
      <point x="312" y="291"/>
      <point x="312" y="205" type="curve" smooth="yes"/>
      <point x="312" y="109"/>
      <point x="280" y="63"/>
    </contour>
  </outline>
</glyph>
<glyph name="seven.telu" format="2">
  <advance width="429"/>
  <unicode hex="0037"/>
  <outline>
    <contour>
      <point x="93" y="0" type="line"/>
      <point x="177" y="0" type="line"/>
      <point x="393" y="589" type="line"/>
      <point x="393" y="651" type="line"/>
      <point x="31" y="651" type="line"/>
      <point x="31" y="574" type="line"/>
      <point x="312" y="574" type="line"/>
    </contour>
  </outline>
</glyph>
<glyph name="eight.telu" format="2">
  <advance width="429"/>
  <unicode hex="0038"/>
  <outline>
    <contour>
      <point x="216" y="661" type="curve" smooth="yes"/>
      <point x="116" y="661"/>
      <point x="51" y="601"/>
      <point x="51" y="508" type="curve" smooth="yes"/>
      <point x="51" y="444"/>
      <point x="83" y="390"/>
      <point x="151" y="342" type="curve"/>
      <point x="68" y="290"/>
      <point x="34" y="238"/>
      <point x="34" y="160" type="curve" smooth="yes"/>
      <point x="34" y="57"/>
      <point x="101" y="-12"/>
      <point x="219" y="-12" type="curve" smooth="yes"/>
      <point x="326" y="-12"/>
      <point x="395" y="60"/>
      <point x="395" y="165" type="curve" smooth="yes"/>
      <point x="395" y="248"/>
      <point x="344" y="296"/>
      <point x="269" y="343" type="curve"/>
      <point x="344" y="384"/>
      <point x="380" y="439"/>
      <point x="380" y="509" type="curve" smooth="yes"/>
      <point x="380" y="602"/>
      <point x="319" y="661"/>
    </contour>
    <contour>
      <point x="112" y="162" type="curve" smooth="yes"/>
      <point x="112" y="218"/>
      <point x="140" y="267"/>
      <point x="207" y="306" type="curve"/>
      <point x="228" y="292" type="line" smooth="yes"/>
      <point x="287" y="252"/>
      <point x="317" y="213"/>
      <point x="317" y="167" type="curve" smooth="yes"/>
      <point x="317" y="107"/>
      <point x="283" y="58"/>
      <point x="215" y="58" type="curve" smooth="yes"/>
      <point x="151" y="58"/>
      <point x="112" y="106"/>
    </contour>
    <contour>
      <point x="215" y="591" type="curve" smooth="yes"/>
      <point x="268" y="591"/>
      <point x="302" y="557"/>
      <point x="302" y="504" type="curve" smooth="yes"/>
      <point x="302" y="460"/>
      <point x="274" y="414"/>
      <point x="214" y="381" type="curve"/>
      <point x="159" y="413"/>
      <point x="129" y="456"/>
      <point x="129" y="500" type="curve" smooth="yes"/>
      <point x="129" y="556"/>
      <point x="166" y="591"/>
    </contour>
  </outline>
</glyph>
<glyph name="nine.telu" format="2">
  <advance width="429"/>
  <unicode hex="0039"/>
  <outline>
    <contour>
      <point x="383" y="380" type="curve" smooth="yes"/>
      <point x="383" y="558"/>
      <point x="322" y="661"/>
      <point x="211" y="661" type="curve" smooth="yes"/>
      <point x="94" y="661"/>
      <point x="39" y="564"/>
      <point x="39" y="443" type="curve" smooth="yes"/>
      <point x="39" y="331"/>
      <point x="86" y="235"/>
      <point x="187" y="235" type="curve" smooth="yes"/>
      <point x="240" y="235"/>
      <point x="281" y="265"/>
      <point x="303" y="315" type="curve"/>
      <point x="307" y="315" type="line"/>
      <point x="302" y="183"/>
      <point x="261" y="62"/>
      <point x="146" y="62" type="curve" smooth="yes"/>
      <point x="116" y="62"/>
      <point x="92" y="66"/>
      <point x="71" y="74" type="curve"/>
      <point x="71" y="-2" type="line"/>
      <point x="90" y="-7"/>
      <point x="124" y="-12"/>
      <point x="148" y="-12" type="curve" smooth="yes"/>
      <point x="312" y="-12"/>
      <point x="383" y="126"/>
    </contour>
    <contour>
      <point x="210" y="586" type="curve" smooth="yes"/>
      <point x="284" y="586"/>
      <point x="303" y="485"/>
      <point x="303" y="424" type="curve" smooth="yes"/>
      <point x="303" y="370"/>
      <point x="271" y="309"/>
      <point x="208" y="309" type="curve" smooth="yes"/>
      <point x="150" y="309"/>
      <point x="119" y="360"/>
      <point x="119" y="445" type="curve" smooth="yes"/>
      <point x="119" y="537"/>
      <point x="151" y="586"/>
    </contour>
  </outline>
</glyph>
<glyph name="colon.telu" format="2">
  <advance width="252"/>
  <unicode hex="003A"/>
  <outline>
    <contour>
      <point x="72" y="52" type="curve" smooth="yes"/>
      <point x="72" y="10"/>
      <point x="91" y="-12"/>
      <point x="126" y="-12" type="curve" smooth="yes"/>
      <point x="157" y="-12"/>
      <point x="180" y="8"/>
      <point x="180" y="52" type="curve" smooth="yes"/>
      <point x="180" y="97"/>
      <point x="159" y="116"/>
      <point x="126" y="116" type="curve" smooth="yes"/>
      <point x="90" y="116"/>
      <point x="72" y="94"/>
    </contour>
    <contour>
      <point x="72" y="386" type="curve" smooth="yes"/>
      <point x="72" y="343"/>
      <point x="91" y="321"/>
      <point x="126" y="321" type="curve" smooth="yes"/>
      <point x="157" y="321"/>
      <point x="180" y="342"/>
      <point x="180" y="386" type="curve" smooth="yes"/>
      <point x="180" y="428"/>
      <point x="161" y="450"/>
      <point x="126" y="450" type="curve" smooth="yes"/>
      <point x="90" y="450"/>
      <point x="72" y="428"/>
    </contour>
  </outline>
</glyph>
<glyph name="semicolon.telu" format="2">
  <advance width="252"/>
  <unicode hex="003B"/>
  <outline>
    <contour>
      <point x="174" y="119" type="line"/>
      <point x="88" y="119" type="line"/>
      <point x="81" y="47"/>
      <point x="64" y="-45"/>
      <point x="43" y="-126" type="curve"/>
      <point x="105" y="-126" type="line"/>
      <point x="137" y="-54"/>
      <point x="161" y="24"/>
      <point x="181" y="108" type="curve"/>
    </contour>
    <contour>
      <point x="72" y="386" type="curve" smooth="yes"/>
      <point x="72" y="343"/>
      <point x="91" y="321"/>
      <point x="126" y="321" type="curve" smooth="yes"/>
      <point x="157" y="321"/>
      <point x="180" y="342"/>
      <point x="180" y="386" type="curve" smooth="yes"/>
      <point x="180" y="428"/>
      <point x="161" y="450"/>
      <point x="126" y="450" type="curve" smooth="yes"/>
      <point x="90" y="450"/>
      <point x="72" y="428"/>
    </contour>
  </outline>
</glyph>
<glyph name="less.telu" format="2">
  <advance width="429"/>
  <unicode hex="003C"/>
  <outline>
    <contour>
      <point x="400" y="105" type="line"/>
      <point x="400" y="183" type="line"/>
      <point x="121" y="328" type="line"/>
      <point x="400" y="473" type="line"/>
      <point x="400" y="551" type="line"/>
      <point x="29" y="353" type="line"/>
      <point x="29" y="305" type="line"/>
    </contour>
  </outline>
</glyph>
<glyph name="equal.telu" format="2">
  <advance width="429"/>
  <unicode hex="003D"/>
  <outline>
    <contour>
      <point x="30" y="390" type="line"/>
      <point x="398" y="390" type="line"/>
      <point x="398" y="458" type="line"/>
      <point x="30" y="458" type="line"/>
    </contour>
    <contour>
      <point x="30" y="192" type="line"/>
      <point x="398" y="192" type="line"/>
      <point x="398" y="260" type="line"/>
      <point x="30" y="260" type="line"/>
    </contour>
  </outline>
</glyph>
<glyph name="greater.telu" format="2">
  <advance width="429"/>
  <unicode hex="003E"/>
  <outline>
    <contour>
      <point x="30" y="183" type="line"/>
      <point x="30" y="105" type="line"/>
      <point x="401" y="305" type="line"/>
      <point x="401" y="353" type="line"/>
      <point x="30" y="551" type="line"/>
      <point x="30" y="473" type="line"/>
      <point x="309" y="328" type="line"/>
    </contour>
  </outline>
</glyph>
<glyph name="question.telu" format="2">
  <advance width="368"/>
  <unicode hex="003F"/>
  <outline>
    <contour>
      <point x="182" y="661" type="curve" smooth="yes"/>
      <point x="130" y="661"/>
      <point x="86" y="647"/>
      <point x="49" y="624" type="curve"/>
      <point x="80" y="561" type="line"/>
      <point x="108" y="576"/>
      <point x="138" y="589"/>
      <point x="173" y="589" type="curve" smooth="yes"/>
      <point x="226" y="589"/>
      <point x="258" y="559"/>
      <point x="258" y="504" type="curve" smooth="yes"/>
      <point x="258" y="450"/>
      <point x="235" y="420"/>
      <point x="188" y="359" type="curve" smooth="yes"/>
      <point x="150" y="309"/>
      <point x="135" y="269"/>
      <point x="135" y="206" type="curve" smooth="yes"/>
      <point x="135" y="189" type="line"/>
      <point x="200" y="189" type="line"/>
      <point x="200" y="196" type="line" smooth="yes"/>
      <point x="200" y="246"/>
      <point x="214" y="277"/>
      <point x="252" y="325" type="curve" smooth="yes"/>
      <point x="309" y="398"/>
      <point x="334" y="441"/>
      <point x="334" y="511" type="curve" smooth="yes"/>
      <point x="334" y="602"/>
      <point x="277" y="661"/>
    </contour>
    <contour>
      <point x="169" y="-12" type="curve" smooth="yes"/>
      <point x="201" y="-12"/>
      <point x="223" y="8"/>
      <point x="223" y="52" type="curve" smooth="yes"/>
      <point x="223" y="97"/>
      <point x="202" y="116"/>
      <point x="169" y="116" type="curve" smooth="yes"/>
      <point x="134" y="116"/>
      <point x="115" y="94"/>
      <point x="115" y="52" type="curve" smooth="yes"/>
      <point x="115" y="10"/>
      <point x="135" y="-12"/>
    </contour>
  </outline>
</glyph>
<glyph name="bracketleft.telu" format="2">
  <advance width="325"/>
  <unicode hex="005B"/>
  <outline>
    <contour>
      <point x="287" y="-361" type="line"/>
      <point x="287" y="-293" type="line"/>
      <point x="157" y="-293" type="line"/>
      <point x="157" y="705" type="line"/>
      <point x="287" y="705" type="line"/>
      <point x="287" y="773" type="line"/>
      <point x="78" y="773" type="line"/>
      <point x="78" y="-361" type="line"/>
    </contour>
  </outline>
</glyph>
<glyph name="backslash.telu" format="2">
  <advance width="381"/>
  <unicode hex="005C"/>
  <outline>
    <contour>
      <point x="110" y="773" type="line"/>
      <point x="35" y="773" type="line"/>
      <point x="271" y="-361" type="line"/>
      <point x="346" y="-361" type="line"/>
    </contour>
  </outline>
</glyph>
<glyph name="bracketright.telu" format="2">
  <advance width="325"/>
  <unicode hex="005D"/>
  <outline>
    <contour>
      <point x="38" y="-293" type="line"/>
      <point x="38" y="-361" type="line"/>
      <point x="247" y="-361" type="line"/>
      <point x="247" y="773" type="line"/>
      <point x="38" y="773" type="line"/>
      <point x="38" y="705" type="line"/>
      <point x="168" y="705" type="line"/>
      <point x="168" y="-293" type="line"/>
    </contour>
  </outline>
</glyph>
<glyph name="underscore.telu" format="2">
  <advance width="357"/>
  <unicode hex="005F"/>
  <outline>
    <contour>
      <point x="-2" y="-154" type="line"/>
      <point x="359" y="-154" type="line"/>
      <point x="359" y="-90" type="line"/>
      <point x="-2" y="-90" type="line"/>
    </contour>
  </outline>
</glyph>
<glyph name="braceleft.telu" format="2">
  <advance width="365"/>
  <unicode hex="007B"/>
  <outline>
    <contour>
      <point x="325" y="-361" type="curve"/>
      <point x="325" y="-296" type="line"/>
      <point x="260" y="-294"/>
      <point x="233" y="-268"/>
      <point x="233" y="-203" type="curve" smooth="yes"/>
      <point x="233" y="82" type="line" smooth="yes"/>
      <point x="233" y="150"/>
      <point x="202" y="191"/>
      <point x="131" y="204" type="curve"/>
      <point x="131" y="210" type="line"/>
      <point x="201" y="223"/>
      <point x="233" y="264"/>
      <point x="233" y="332" type="curve" smooth="yes"/>
      <point x="233" y="614" type="line" smooth="yes"/>
      <point x="233" y="679"/>
      <point x="260" y="706"/>
      <point x="325" y="708" type="curve"/>
      <point x="325" y="773" type="line"/>
      <point x="221" y="773"/>
      <point x="154" y="722"/>
      <point x="154" y="616" type="curve" smooth="yes"/>
      <point x="154" y="332" type="line" smooth="yes"/>
      <point x="154" y="265"/>
      <point x="113" y="240"/>
      <point x="32" y="239" type="curve"/>
      <point x="32" y="174" type="line"/>
      <point x="113" y="174"/>
      <point x="154" y="148"/>
      <point x="154" y="80" type="curve" smooth="yes"/>
      <point x="154" y="-202" type="line" smooth="yes"/>
      <point x="154" y="-309"/>
      <point x="220" y="-360"/>
    </contour>
  </outline>
</glyph>
<glyph name="braceright.telu" format="2">
  <advance width="365"/>
  <unicode hex="007D"/>
  <outline>
    <contour>
      <point x="40" y="773" type="curve"/>
      <point x="40" y="708" type="line"/>
      <point x="105" y="706"/>
      <point x="132" y="680"/>
      <point x="132" y="615" type="curve" smooth="yes"/>
      <point x="132" y="331" type="line" smooth="yes"/>
      <point x="132" y="263"/>
      <point x="163" y="222"/>
      <point x="234" y="209" type="curve"/>
      <point x="234" y="203" type="line"/>
      <point x="164" y="190"/>
      <point x="132" y="149"/>
      <point x="132" y="81" type="curve" smooth="yes"/>
      <point x="132" y="-202" type="line" smooth="yes"/>
      <point x="132" y="-267"/>
      <point x="105" y="-294"/>
      <point x="40" y="-296" type="curve"/>
      <point x="40" y="-361" type="line"/>
      <point x="144" y="-361"/>
      <point x="211" y="-310"/>
      <point x="211" y="-204" type="curve" smooth="yes"/>
      <point x="211" y="81" type="line" smooth="yes"/>
      <point x="211" y="148"/>
      <point x="252" y="173"/>
      <point x="333" y="174" type="curve"/>
      <point x="333" y="239" type="line"/>
      <point x="252" y="239"/>
      <point x="211" y="265"/>
      <point x="211" y="333" type="curve" smooth="yes"/>
      <point x="211" y="614" type="line" smooth="yes"/>
      <point x="211" y="721"/>
      <point x="145" y="772"/>
    </contour>
  </outline>
</glyph>
<glyph name="asciitilde.telu" format="2">
  <advance width="429"/>
  <unicode hex="007E"/>
  <outline>
    <contour>
      <point x="205" y="293" type="curve"/>
      <point x="242" y="274"/>
      <point x="265" y="264"/>
      <point x="305" y="264" type="curve" smooth="yes"/>
      <point x="343" y="264"/>
      <point x="376" y="282"/>
      <point x="402" y="313" type="curve"/>
      <point x="402" y="390" type="line"/>
      <point x="375" y="356"/>
      <point x="340" y="332"/>
      <point x="309" y="332" type="curve" smooth="yes"/>
      <point x="284" y="332"/>
      <point x="259" y="341"/>
      <point x="225" y="359" type="curve" smooth="yes"/>
      <point x="190" y="377"/>
      <point x="163" y="389"/>
      <point x="126" y="389" type="curve" smooth="yes"/>
      <point x="87" y="389"/>
      <point x="55" y="371"/>
      <point x="29" y="338" type="curve"/>
      <point x="29" y="261" type="line"/>
      <point x="59" y="298"/>
      <point x="93" y="320"/>
      <point x="122" y="320" type="curve" smooth="yes"/>
      <point x="146" y="320"/>
      <point x="175" y="310"/>
    </contour>
  </outline>
</glyph>
<glyph name="multiply.telu" format="2">
  <advance width="429"/>
  <unicode hex="00D7"/>
  <outline>
    <contour>
      <point x="31" y="190" type="line"/>
      <point x="77" y="143" type="line"/>
      <point x="213" y="279" type="line"/>
      <point x="349" y="144" type="line"/>
      <point x="395" y="190" type="line"/>
      <point x="261" y="326" type="line"/>
      <point x="398" y="464" type="line"/>
      <point x="350" y="510" type="line"/>
      <point x="213" y="373" type="line"/>
      <point x="77" y="508" type="line"/>
      <point x="31" y="461" type="line"/>
      <point x="166" y="326" type="line"/>
    </contour>
  </outline>
</glyph>
<glyph name="divide.telu" format="2">
  <advance width="429"/>
  <unicode hex="00F7"/>
  <outline>
    <contour>
      <point x="30" y="292" type="line"/>
      <point x="398" y="292" type="line"/>
      <point x="398" y="360" type="line"/>
      <point x="30" y="360" type="line"/>
    </contour>
    <contour>
      <point x="216" y="85" type="curve" smooth="yes"/>
      <point x="245" y="85"/>
      <point x="265" y="105"/>
      <point x="265" y="147" type="curve" smooth="yes"/>
      <point x="265" y="188"/>
      <point x="248" y="209"/>
      <point x="216" y="209" type="curve" smooth="yes"/>
      <point x="182" y="209"/>
      <point x="165" y="188"/>
      <point x="165" y="147" type="curve" smooth="yes"/>
      <point x="165" y="106"/>
      <point x="183" y="85"/>
    </contour>
    <contour>
      <point x="216" y="442" type="curve" smooth="yes"/>
      <point x="245" y="442"/>
      <point x="265" y="462"/>
      <point x="265" y="504" type="curve" smooth="yes"/>
      <point x="265" y="545"/>
      <point x="248" y="566"/>
      <point x="216" y="566" type="curve" smooth="yes"/>
      <point x="182" y="566"/>
      <point x="165" y="545"/>
      <point x="165" y="504" type="curve" smooth="yes"/>
      <point x="165" y="463"/>
      <point x="183" y="442"/>
    </contour>
  </outline>
</glyph>
<glyph name="uni0951" format="2">
  <unicode hex="0951"/>
  <outline>
    <contour>
      <point x="-255" y="607" type="line"/>
      <point x="-255" y="808" type="line"/>
      <point x="-316" y="808" type="line"/>
      <point x="-316" y="607" type="line"/>
    </contour>
  </outline>
</glyph>
<glyph name="uni0952" format="2">
  <unicode hex="0952"/>
  <outline>
    <contour>
      <point x="-445" y="-113" type="line"/>
      <point x="-445" y="-180" type="line"/>
      <point x="-127" y="-180" type="line"/>
      <point x="-127" y="-113" type="line"/>
    </contour>
  </outline>
</glyph>
<glyph name="dandatelu" format="2">
  <advance width="298"/>
  <unicode hex="0964"/>
  <outline>
    <contour>
      <point x="143" y="-139" type="line"/>
      <point x="219" y="-139" type="line"/>
      <point x="219" y="651" type="line"/>
      <point x="143" y="651" type="line"/>
    </contour>
  </outline>
</glyph>
<glyph name="dbldandatelu" format="2">
  <advance width="464"/>
  <unicode hex="0965"/>
  <outline>
    <contour>
      <point x="309" y="-139" type="line"/>
      <point x="385" y="-139" type="line"/>
      <point x="385" y="651" type="line"/>
      <point x="309" y="651" type="line"/>
    </contour>
    <contour>
      <point x="143" y="-139" type="line"/>
      <point x="219" y="-139" type="line"/>
      <point x="219" y="651" type="line"/>
      <point x="143" y="651" type="line"/>
    </contour>
  </outline>
</glyph>
<glyph name="uni0C00" format="2">
  <unicode hex="0C00"/>
  <outline>
    <contour>
      <point x="-286" y="600" type="curve" smooth="yes"/>
      <point x="-197" y="600"/>
      <point x="-145" y="658"/>
      <point x="-145" y="750" type="curve" smooth="yes"/>
      <point x="-145" y="770"/>
      <point x="-148" y="792"/>
      <point x="-152" y="808" type="curve"/>
      <point x="-217" y="794" type="line"/>
      <point x="-214" y="780"/>
      <point x="-212" y="770"/>
      <point x="-212" y="752" type="curve" smooth="yes"/>
      <point x="-212" y="690"/>
      <point x="-242" y="662"/>
      <point x="-286" y="662" type="curve" smooth="yes"/>
      <point x="-331" y="662"/>
      <point x="-361" y="686"/>
      <point x="-361" y="749" type="curve" smooth="yes"/>
      <point x="-361" y="769"/>
      <point x="-359" y="780"/>
      <point x="-356" y="794" type="curve"/>
      <point x="-420" y="808" type="line"/>
      <point x="-425" y="792"/>
      <point x="-428" y="770"/>
      <point x="-428" y="751" type="curve" smooth="yes"/>
      <point x="-428" y="655"/>
      <point x="-378" y="600"/>
    </contour>
    <contour>
      <point x="-287" y="707" type="curve" smooth="yes"/>
      <point x="-260" y="707"/>
      <point x="-244" y="726"/>
      <point x="-244" y="756" type="curve" smooth="yes"/>
      <point x="-244" y="784"/>
      <point x="-261" y="804"/>
      <point x="-287" y="804" type="curve" smooth="yes"/>
      <point x="-314" y="804"/>
      <point x="-329" y="784"/>
      <point x="-329" y="756" type="curve" smooth="yes"/>
      <point x="-329" y="727"/>
      <point x="-316" y="707"/>
    </contour>
  </outline>
</glyph>
<glyph name="candrabindutelu" format="2">
  <advance width="237"/>
  <unicode hex="0C01"/>
  <outline>
    <contour>
      <point x="32" y="208" type="curve" smooth="yes"/>
      <point x="32" y="58"/>
      <point x="105" y="-12"/>
      <point x="215" y="-12" type="curve" smooth="yes"/>
      <point x="221" y="-12" type="line"/>
      <point x="221" y="60" type="line"/>
      <point x="143" y="60"/>
      <point x="107" y="110"/>
      <point x="107" y="208" type="curve" smooth="yes"/>
      <point x="107" y="314"/>
      <point x="150" y="356"/>
      <point x="221" y="356" type="curve"/>
      <point x="221" y="428" type="line"/>
      <point x="217" y="428" type="line" smooth="yes"/>
      <point x="114" y="428"/>
      <point x="32" y="364"/>
    </contour>
  </outline>
</glyph>
<glyph name="anusvaratelu" format="2">
  <advance width="396"/>
  <unicode hex="0C02"/>
  <outline>
    <contour>
      <point x="32" y="207" type="curve" smooth="yes"/>
      <point x="32" y="69"/>
      <point x="95" y="-12"/>
      <point x="198" y="-12" type="curve" smooth="yes"/>
      <point x="301" y="-12"/>
      <point x="364" y="70"/>
      <point x="364" y="207" type="curve" smooth="yes"/>
      <point x="364" y="345"/>
      <point x="301" y="428"/>
      <point x="198" y="428" type="curve" smooth="yes"/>
      <point x="97" y="428"/>
      <point x="32" y="345"/>
    </contour>
    <contour>
      <point x="107" y="208" type="curve" smooth="yes"/>
      <point x="107" y="298"/>
      <point x="137" y="354"/>
      <point x="198" y="354" type="curve" smooth="yes"/>
      <point x="259" y="354"/>
      <point x="289" y="301"/>
      <point x="289" y="208" type="curve" smooth="yes"/>
      <point x="289" y="119"/>
      <point x="261" y="62"/>
      <point x="198" y="62" type="curve" smooth="yes"/>
      <point x="135" y="62"/>
      <point x="107" y="117"/>
    </contour>
  </outline>
</glyph>
<glyph name="visargatelu" format="2">
  <advance width="254"/>
  <unicode hex="0C03"/>
  <outline>
    <contour>
      <point x="28" y="105" type="curve" smooth="yes"/>
      <point x="28" y="39"/>
      <point x="62" y="-12"/>
      <point x="127" y="-12" type="curve" smooth="yes"/>
      <point x="194" y="-12"/>
      <point x="226" y="38"/>
      <point x="226" y="105" type="curve" smooth="yes"/>
      <point x="226" y="172"/>
      <point x="193" y="222"/>
      <point x="127" y="222" type="curve" smooth="yes"/>
      <point x="61" y="222"/>
      <point x="28" y="171"/>
    </contour>
    <contour>
      <point x="90" y="105" type="curve" smooth="yes"/>
      <point x="90" y="143"/>
      <point x="105" y="163"/>
      <point x="127" y="163" type="curve" smooth="yes"/>
      <point x="150" y="163"/>
      <point x="164" y="142"/>
      <point x="164" y="105" type="curve" smooth="yes"/>
      <point x="164" y="68"/>
      <point x="151" y="47"/>
      <point x="127" y="47" type="curve" smooth="yes"/>
      <point x="103" y="47"/>
      <point x="90" y="67"/>
    </contour>
    <contour>
      <point x="28" y="382" type="curve" smooth="yes"/>
      <point x="28" y="316"/>
      <point x="61" y="266"/>
      <point x="127" y="266" type="curve" smooth="yes"/>
      <point x="194" y="266"/>
      <point x="226" y="316"/>
      <point x="226" y="382" type="curve" smooth="yes"/>
      <point x="226" y="450"/>
      <point x="193" y="500"/>
      <point x="127" y="500" type="curve" smooth="yes"/>
      <point x="61" y="500"/>
      <point x="28" y="449"/>
    </contour>
    <contour>
      <point x="90" y="383" type="curve" smooth="yes"/>
      <point x="90" y="421"/>
      <point x="105" y="441"/>
      <point x="127" y="441" type="curve" smooth="yes"/>
      <point x="150" y="441"/>
      <point x="164" y="420"/>
      <point x="164" y="383" type="curve" smooth="yes"/>
      <point x="164" y="346"/>
      <point x="151" y="325"/>
      <point x="127" y="325" type="curve" smooth="yes"/>
      <point x="103" y="325"/>
      <point x="90" y="345"/>
    </contour>
  </outline>
</glyph>
<glyph name="uni0C04" format="2">
  <unicode hex="0C04"/>
  <outline>
    <contour>
      <point x="-386" y="714" type="curve" smooth="yes"/>
      <point x="-386" y="648"/>
      <point x="-353" y="598"/>
      <point x="-287" y="598" type="curve" smooth="yes"/>
      <point x="-220" y="598"/>
      <point x="-188" y="648"/>
      <point x="-188" y="714" type="curve" smooth="yes"/>
      <point x="-188" y="782"/>
      <point x="-221" y="832"/>
      <point x="-287" y="832" type="curve" smooth="yes"/>
      <point x="-353" y="832"/>
      <point x="-386" y="781"/>
    </contour>
    <contour>
      <point x="-324" y="715" type="curve" smooth="yes"/>
      <point x="-324" y="753"/>
      <point x="-309" y="773"/>
      <point x="-287" y="773" type="curve" smooth="yes"/>
      <point x="-264" y="773"/>
      <point x="-250" y="752"/>
      <point x="-250" y="715" type="curve" smooth="yes"/>
      <point x="-250" y="678"/>
      <point x="-263" y="657"/>
      <point x="-287" y="657" type="curve" smooth="yes"/>
      <point x="-311" y="657"/>
      <point x="-324" y="677"/>
    </contour>
  </outline>
</glyph>
<glyph name="atelu" format="2">
  <advance width="633"/>
  <unicode hex="0C05"/>
  <outline>
    <contour>
      <point x="308" y="-12" type="curve" smooth="yes"/>
      <point x="493" y="-12"/>
      <point x="599" y="94"/>
      <point x="599" y="284" type="curve" smooth="yes"/>
      <point x="599" y="421"/>
      <point x="542" y="500"/>
      <point x="451" y="500" type="curve" smooth="yes"/>
      <point x="375" y="500"/>
      <point x="336" y="441"/>
      <point x="336" y="380" type="curve" smooth="yes"/>
      <point x="336" y="315"/>
      <point x="369" y="274"/>
      <point x="396" y="251" type="curve"/>
      <point x="402" y="258" type="line"/>
      <point x="253" y="258" type="line"/>
      <point x="253" y="188" type="line"/>
      <point x="477" y="188" type="line"/>
      <point x="477" y="256" type="line"/>
      <point x="442" y="275"/>
      <point x="409" y="318"/>
      <point x="409" y="371" type="curve" smooth="yes"/>
      <point x="409" y="414"/>
      <point x="428" y="432"/>
      <point x="455" y="432" type="curve" smooth="yes"/>
      <point x="495" y="432"/>
      <point x="523" y="383"/>
      <point x="523" y="285" type="curve" smooth="yes"/>
      <point x="523" y="134"/>
      <point x="452" y="63"/>
      <point x="308" y="63" type="curve" smooth="yes"/>
      <point x="159" y="63"/>
      <point x="108" y="153"/>
      <point x="108" y="263" type="curve" smooth="yes"/>
      <point x="108" y="289" type="line" smooth="yes"/>
      <point x="108" y="375"/>
      <point x="135" y="433"/>
      <point x="175" y="433" type="curve" smooth="yes"/>
      <point x="198" y="433"/>
      <point x="213" y="414"/>
      <point x="213" y="372" type="curve" smooth="yes"/>
      <point x="213" y="327"/>
      <point x="193" y="301"/>
      <point x="153" y="301" type="curve" smooth="yes"/>
      <point x="117" y="301"/>
      <point x="92" y="323"/>
      <point x="72" y="343" type="curve"/>
      <point x="51" y="290" type="line"/>
      <point x="72" y="264"/>
      <point x="111" y="235"/>
      <point x="159" y="235" type="curve" smooth="yes"/>
      <point x="246" y="235"/>
      <point x="287" y="291"/>
      <point x="287" y="374" type="curve" smooth="yes"/>
      <point x="287" y="453"/>
      <point x="246" y="500"/>
      <point x="182" y="500" type="curve" smooth="yes"/>
      <point x="97" y="500"/>
      <point x="34" y="417"/>
      <point x="34" y="272" type="curve" smooth="yes"/>
      <point x="34" y="102"/>
      <point x="118" y="-12"/>
    </contour>
  </outline>
</glyph>
<glyph name="aatelu" format="2">
  <advance width="629"/>
  <unicode hex="0C06"/>
  <outline>
    <contour>
      <point x="324" y="-12" type="curve" smooth="yes"/>
      <point x="519" y="-12"/>
      <point x="583" y="88"/>
      <point x="583" y="167" type="curve" smooth="yes"/>
      <point x="583" y="231"/>
      <point x="547" y="259"/>
      <point x="502" y="279" type="curve"/>
      <point x="440" y="313"/>
      <point x="420" y="341"/>
      <point x="420" y="377" type="curve" smooth="yes"/>
      <point x="420" y="408"/>
      <point x="439" y="433"/>
      <point x="474" y="433" type="curve" smooth="yes"/>
      <point x="505" y="433"/>
      <point x="523" y="406"/>
      <point x="523" y="372" type="curve" smooth="yes"/>
      <point x="523" y="319"/>
      <point x="491" y="286"/>
      <point x="449" y="258" type="curve"/>
      <point x="253" y="258" type="line"/>
      <point x="253" y="188" type="line"/>
      <point x="386" y="188" type="line" smooth="yes"/>
      <point x="458" y="188"/>
      <point x="483" y="199"/>
      <point x="522" y="230" type="curve" smooth="yes"/>
      <point x="561" y="261"/>
      <point x="599" y="309"/>
      <point x="599" y="379" type="curve" smooth="yes"/>
      <point x="599" y="443"/>
      <point x="552" y="500"/>
      <point x="474" y="500" type="curve" smooth="yes"/>
      <point x="395" y="500"/>
      <point x="347" y="451"/>
      <point x="347" y="379" type="curve" smooth="yes"/>
      <point x="347" y="319"/>
      <point x="388" y="277"/>
      <point x="442" y="251" type="curve"/>
      <point x="488" y="229"/>
      <point x="507" y="208"/>
      <point x="507" y="173" type="curve" smooth="yes"/>
      <point x="507" y="108"/>
      <point x="440" y="63"/>
      <point x="325" y="63" type="curve" smooth="yes"/>
      <point x="156" y="63"/>
      <point x="108" y="153"/>
      <point x="108" y="263" type="curve" smooth="yes"/>
      <point x="108" y="289" type="line" smooth="yes"/>
      <point x="108" y="375"/>
      <point x="135" y="433"/>
      <point x="175" y="433" type="curve" smooth="yes"/>
      <point x="198" y="433"/>
      <point x="213" y="414"/>
      <point x="213" y="372" type="curve" smooth="yes"/>
      <point x="213" y="327"/>
      <point x="193" y="301"/>
      <point x="153" y="301" type="curve" smooth="yes"/>
      <point x="117" y="301"/>
      <point x="92" y="323"/>
      <point x="72" y="343" type="curve"/>
      <point x="51" y="290" type="line"/>
      <point x="72" y="264"/>
      <point x="111" y="235"/>
      <point x="159" y="235" type="curve" smooth="yes"/>
      <point x="246" y="235"/>
      <point x="287" y="291"/>
      <point x="287" y="374" type="curve" smooth="yes"/>
      <point x="287" y="453"/>
      <point x="245" y="500"/>
      <point x="182" y="500" type="curve" smooth="yes"/>
      <point x="97" y="500"/>
      <point x="34" y="417"/>
      <point x="34" y="272" type="curve" smooth="yes"/>
      <point x="34" y="105"/>
      <point x="115" y="-12"/>
    </contour>
  </outline>
</glyph>
<glyph name="iitelu" format="2">
  <advance width="756"/>
  <unicode hex="0C08"/>
  <outline>
    <contour>
      <point x="618" y="30" type="curve" smooth="yes"/>
      <point x="688" y="30"/>
      <point x="729" y="73"/>
      <point x="729" y="155" type="curve" smooth="yes"/>
      <point x="729" y="211"/>
      <point x="709" y="245"/>
      <point x="680" y="267" type="curve" smooth="yes"/>
      <point x="650" y="289"/>
      <point x="618" y="302"/>
      <point x="533" y="302" type="curve" smooth="yes"/>
      <point x="28" y="302" type="line"/>
      <point x="28" y="235" type="line"/>
      <point x="566" y="235" type="line" smooth="yes"/>
      <point x="640" y="235"/>
      <point x="661" y="196"/>
      <point x="661" y="149" type="curve" smooth="yes"/>
      <point x="661" y="112"/>
      <point x="648" y="89"/>
      <point x="619" y="89" type="curve" smooth="yes"/>
      <point x="592" y="89"/>
      <point x="577" y="107"/>
      <point x="577" y="141" type="curve" smooth="yes"/>
      <point x="577" y="182"/>
      <point x="606" y="222"/>
      <point x="647" y="248" type="curve"/>
      <point x="559" y="249" type="line"/>
      <point x="536" y="228"/>
      <point x="509" y="190"/>
      <point x="509" y="142" type="curve" smooth="yes"/>
      <point x="509" y="84"/>
      <point x="537" y="30"/>
    </contour>
    <contour>
      <point x="621" y="477" type="curve" smooth="yes"/>
      <point x="565" y="477"/>
      <point x="527" y="440"/>
      <point x="501" y="390" type="curve"/>
      <point x="569" y="365" type="line"/>
      <point x="586" y="398"/>
      <point x="603" y="416"/>
      <point x="622" y="416" type="curve" smooth="yes"/>
      <point x="641" y="416"/>
      <point x="652" y="405"/>
      <point x="652" y="384" type="curve" smooth="yes"/>
      <point x="652" y="345"/>
      <point x="622" y="311"/>
      <point x="577" y="274" type="curve"/>
      <point x="646" y="255" type="line"/>
      <point x="682" y="282"/>
      <point x="722" y="326"/>
      <point x="722" y="380" type="curve" smooth="yes"/>
      <point x="722" y="441"/>
      <point x="682" y="477"/>
    </contour>
    <contour>
      <point x="76" y="241" type="curve" smooth="yes"/>
      <point x="76" y="74"/>
      <point x="147" y="-12"/>
      <point x="268" y="-12" type="curve" smooth="yes"/>
      <point x="390" y="-12"/>
      <point x="461" y="75"/>
      <point x="461" y="241" type="curve" smooth="yes"/>
      <point x="461" y="409"/>
      <point x="389" y="500"/>
      <point x="268" y="500" type="curve" smooth="yes"/>
      <point x="150" y="500"/>
      <point x="76" y="406"/>
    </contour>
    <contour>
      <point x="150" y="247" type="curve" smooth="yes"/>
      <point x="150" y="355"/>
      <point x="189" y="430"/>
      <point x="268" y="430" type="curve" smooth="yes"/>
      <point x="346" y="430"/>
      <point x="387" y="354"/>
      <point x="387" y="241" type="curve" smooth="yes"/>
      <point x="387" y="129"/>
      <point x="346" y="63"/>
      <point x="268" y="63" type="curve" smooth="yes"/>
      <point x="189" y="63"/>
      <point x="150" y="129"/>
    </contour>
    <component base="hattelu" xOffset="147"/>
  </outline>
</glyph>
<glyph name="utelu" format="2">
  <advance width="617"/>
  <unicode hex="0C09"/>
  <outline>
    <contour>
      <point x="418" y="-12" type="curve" smooth="yes"/>
      <point x="513" y="-12"/>
      <point x="561" y="44"/>
      <point x="561" y="137" type="curve" smooth="yes"/>
      <point x="561" y="217"/>
      <point x="518" y="254"/>
      <point x="453" y="254" type="curve" smooth="yes"/>
      <point x="383" y="254"/>
      <point x="347" y="216"/>
      <point x="347" y="148" type="curve" smooth="yes"/>
      <point x="347" y="99"/>
      <point x="359" y="64"/>
      <point x="378" y="34" type="curve"/>
      <point x="436" y="46" type="line"/>
      <point x="419" y="66"/>
      <point x="409" y="103"/>
      <point x="409" y="135" type="curve" smooth="yes"/>
      <point x="409" y="171"/>
      <point x="423" y="193"/>
      <point x="449" y="193" type="curve" smooth="yes"/>
      <point x="474" y="193"/>
      <point x="488" y="174"/>
      <point x="488" y="132" type="curve" smooth="yes"/>
      <point x="488" y="90"/>
      <point x="472" y="58"/>
      <point x="422" y="58" type="curve" smooth="yes"/>
      <point x="403" y="58"/>
      <point x="382" y="59"/>
      <point x="369" y="61" type="curve"/>
      <point x="330" y="72"/>
      <point x="314" y="108"/>
      <point x="311" y="179" type="curve"/>
      <point x="242" y="179" type="line"/>
      <point x="239" y="114"/>
      <point x="220" y="62"/>
      <point x="172" y="62" type="curve" smooth="yes"/>
      <point x="132" y="62"/>
      <point x="109" y="100"/>
      <point x="109" y="197" type="curve" smooth="yes"/>
      <point x="109" y="233"/>
      <point x="112" y="265"/>
      <point x="119" y="293" type="curve"/>
      <point x="142" y="380"/>
      <point x="204" y="430"/>
      <point x="298" y="430" type="curve" smooth="yes"/>
      <point x="364" y="430"/>
      <point x="410" y="414"/>
      <point x="464" y="377" type="curve"/>
      <point x="509" y="438" type="line"/>
      <point x="450" y="473"/>
      <point x="385" y="500"/>
      <point x="299" y="500" type="curve" smooth="yes"/>
      <point x="141" y="500"/>
      <point x="34" y="396"/>
      <point x="34" y="196" type="curve" smooth="yes"/>
      <point x="34" y="63"/>
      <point x="79" y="-12"/>
      <point x="160" y="-12" type="curve" smooth="yes"/>
      <point x="208" y="-12"/>
      <point x="254" y="0"/>
      <point x="287" y="90" type="curve"/>
      <point x="266" y="90" type="line"/>
      <point x="288" y="24"/>
      <point x="330" y="-12"/>
    </contour>
    <contour>
      <point x="63" y="249" type="line"/>
      <point x="591" y="249" type="line"/>
      <point x="591" y="316" type="line"/>
      <point x="83" y="316" type="line"/>
    </contour>
    <contour>
      <point x="337" y="624" type="line"/>
      <point x="260" y="624" type="line"/>
      <point x="265" y="484" type="line"/>
      <point x="332" y="484" type="line"/>
    </contour>
  </outline>
</glyph>
<glyph name="uutelu" format="2">
  <advance width="858"/>
  <unicode hex="0C0A"/>
  <outline>
    <contour>
      <point x="418" y="-12" type="curve" smooth="yes"/>
      <point x="513" y="-12"/>
      <point x="561" y="45"/>
      <point x="561" y="137" type="curve" smooth="yes"/>
      <point x="561" y="217"/>
      <point x="518" y="254"/>
      <point x="453" y="254" type="curve" smooth="yes"/>
      <point x="383" y="254"/>
      <point x="347" y="216"/>
      <point x="347" y="148" type="curve" smooth="yes"/>
      <point x="347" y="99"/>
      <point x="359" y="64"/>
      <point x="378" y="34" type="curve"/>
      <point x="436" y="46" type="line"/>
      <point x="419" y="66"/>
      <point x="409" y="103"/>
      <point x="409" y="135" type="curve" smooth="yes"/>
      <point x="409" y="171"/>
      <point x="423" y="193"/>
      <point x="449" y="193" type="curve" smooth="yes"/>
      <point x="474" y="193"/>
      <point x="488" y="174"/>
      <point x="488" y="132" type="curve" smooth="yes"/>
      <point x="488" y="90"/>
      <point x="472" y="58"/>
      <point x="422" y="58" type="curve" smooth="yes"/>
      <point x="403" y="58"/>
      <point x="382" y="60"/>
      <point x="369" y="61" type="curve"/>
      <point x="330" y="72"/>
      <point x="314" y="108"/>
      <point x="311" y="179" type="curve"/>
      <point x="242" y="179" type="line"/>
      <point x="239" y="114"/>
      <point x="220" y="62"/>
      <point x="172" y="62" type="curve" smooth="yes"/>
      <point x="132" y="62"/>
      <point x="109" y="100"/>
      <point x="109" y="197" type="curve" smooth="yes"/>
      <point x="109" y="233"/>
      <point x="112" y="265"/>
      <point x="119" y="293" type="curve" smooth="yes"/>
      <point x="142" y="380"/>
      <point x="204" y="430"/>
      <point x="295" y="430" type="curve" smooth="yes"/>
      <point x="358" y="430"/>
      <point x="410" y="414"/>
      <point x="464" y="377" type="curve"/>
      <point x="509" y="438" type="line"/>
      <point x="450" y="473"/>
      <point x="379" y="500"/>
      <point x="297" y="500" type="curve" smooth="yes"/>
      <point x="141" y="500"/>
      <point x="34" y="396"/>
      <point x="34" y="196" type="curve" smooth="yes"/>
      <point x="34" y="63"/>
      <point x="79" y="-12"/>
      <point x="160" y="-12" type="curve" smooth="yes"/>
      <point x="208" y="-12"/>
      <point x="254" y="0"/>
      <point x="287" y="90" type="curve"/>
      <point x="266" y="90" type="line"/>
      <point x="288" y="24"/>
      <point x="330" y="-12"/>
    </contour>
    <contour>
      <point x="720" y="44" type="curve" smooth="yes"/>
      <point x="790" y="44"/>
      <point x="831" y="87"/>
      <point x="831" y="169" type="curve" smooth="yes"/>
      <point x="831" y="225"/>
      <point x="811" y="259"/>
      <point x="782" y="281" type="curve" smooth="yes"/>
      <point x="752" y="303"/>
      <point x="720" y="316"/>
      <point x="635" y="316" type="curve" smooth="yes"/>
      <point x="122" y="316" type="line"/>
      <point x="105" y="249" type="line"/>
      <point x="668" y="249" type="line" smooth="yes"/>
      <point x="742" y="249"/>
      <point x="763" y="210"/>
      <point x="763" y="163" type="curve" smooth="yes"/>
      <point x="763" y="126"/>
      <point x="750" y="103"/>
      <point x="721" y="103" type="curve" smooth="yes"/>
      <point x="694" y="103"/>
      <point x="679" y="121"/>
      <point x="679" y="155" type="curve" smooth="yes"/>
      <point x="679" y="196"/>
      <point x="708" y="236"/>
      <point x="749" y="262" type="curve"/>
      <point x="661" y="263" type="line"/>
      <point x="638" y="242"/>
      <point x="611" y="204"/>
      <point x="611" y="156" type="curve" smooth="yes"/>
      <point x="611" y="98"/>
      <point x="639" y="44"/>
    </contour>
    <contour>
      <point x="723" y="491" type="curve" smooth="yes"/>
      <point x="667" y="491"/>
      <point x="629" y="454"/>
      <point x="603" y="404" type="curve"/>
      <point x="671" y="379" type="line"/>
      <point x="688" y="412"/>
      <point x="705" y="430"/>
      <point x="724" y="430" type="curve" smooth="yes"/>
      <point x="743" y="430"/>
      <point x="754" y="419"/>
      <point x="754" y="398" type="curve" smooth="yes"/>
      <point x="754" y="359"/>
      <point x="724" y="325"/>
      <point x="679" y="288" type="curve"/>
      <point x="748" y="269" type="line"/>
      <point x="784" y="296"/>
      <point x="824" y="340"/>
      <point x="824" y="394" type="curve" smooth="yes"/>
      <point x="824" y="455"/>
      <point x="784" y="491"/>
    </contour>
    <contour>
      <point x="270" y="624" type="line"/>
      <point x="193" y="624" type="line"/>
      <point x="198" y="474" type="line"/>
      <point x="265" y="484" type="line"/>
    </contour>
    <contour>
      <point x="412" y="624" type="line"/>
      <point x="335" y="624" type="line"/>
      <point x="340" y="484" type="line"/>
      <point x="407" y="474" type="line"/>
    </contour>
  </outline>
</glyph>
<glyph name="lvocalictelu" format="2">
  <advance width="683"/>
  <unicode hex="0C0C"/>
  <outline>
    <contour>
      <point x="426" y="-74" type="curve" smooth="yes"/>
      <point x="571" y="-74"/>
      <point x="648" y="56"/>
      <point x="648" y="222" type="curve" smooth="yes"/>
      <point x="648" y="341"/>
      <point x="607" y="429"/>
      <point x="533" y="500" type="curve"/>
      <point x="475" y="445" type="line"/>
      <point x="532" y="395"/>
      <point x="572" y="322"/>
      <point x="572" y="221" type="curve" smooth="yes"/>
      <point x="572" y="79"/>
      <point x="513" y="0"/>
      <point x="428" y="0" type="curve" smooth="yes"/>
      <point x="378" y="0"/>
      <point x="353" y="31"/>
      <point x="353" y="74" type="curve" smooth="yes"/>
      <point x="353" y="113"/>
      <point x="369" y="147"/>
      <point x="409" y="220" type="curve" smooth="yes"/>
      <point x="438" y="274"/>
      <point x="460" y="325"/>
      <point x="460" y="373" type="curve" smooth="yes"/>
      <point x="460" y="429"/>
      <point x="434" y="500"/>
      <point x="352" y="500" type="curve" smooth="yes"/>
      <point x="294" y="500"/>
      <point x="257" y="472"/>
      <point x="230" y="398" type="curve"/>
      <point x="249" y="398" type="line"/>
      <point x="229" y="473"/>
      <point x="191" y="500"/>
      <point x="141" y="500" type="curve" smooth="yes"/>
      <point x="73" y="500"/>
      <point x="29" y="450"/>
      <point x="29" y="378" type="curve" smooth="yes"/>
      <point x="29" y="334"/>
      <point x="40" y="303"/>
      <point x="52" y="273" type="curve"/>
      <point x="122" y="293" type="line"/>
      <point x="113" y="315"/>
      <point x="105" y="341"/>
      <point x="105" y="373" type="curve" smooth="yes"/>
      <point x="105" y="404"/>
      <point x="119" y="430"/>
      <point x="147" y="430" type="curve" smooth="yes"/>
      <point x="180" y="430"/>
      <point x="203" y="386"/>
      <point x="206" y="310" type="curve"/>
      <point x="275" y="310" type="line"/>
      <point x="277" y="384"/>
      <point x="300" y="430"/>
      <point x="342" y="430" type="curve" smooth="yes"/>
      <point x="372" y="430"/>
      <point x="387" y="406"/>
      <point x="387" y="373" type="curve" smooth="yes"/>
      <point x="387" y="336"/>
      <point x="370" y="297"/>
      <point x="339" y="243" type="curve" smooth="yes"/>
      <point x="299" y="173"/>
      <point x="277" y="127"/>
      <point x="277" y="75" type="curve" smooth="yes"/>
      <point x="277" y="-12"/>
      <point x="328" y="-74"/>
    </contour>
  </outline>
</glyph>
<glyph name="eetelu" format="2">
  <advance width="545"/>
  <unicode hex="0C0F"/>
  <outline>
    <contour>
      <point x="376" y="-12" type="curve" smooth="yes"/>
      <point x="466" y="-12"/>
      <point x="511" y="62"/>
      <point x="511" y="186" type="curve" smooth="yes"/>
      <point x="511" y="426"/>
      <point x="367" y="614"/>
      <point x="234" y="712" type="curve"/>
      <point x="179" y="647" type="line"/>
      <point x="301" y="563"/>
      <point x="435" y="395"/>
      <point x="435" y="179" type="curve" smooth="yes"/>
      <point x="435" y="102"/>
      <point x="414" y="62"/>
      <point x="377" y="62" type="curve" smooth="yes"/>
      <point x="337" y="62"/>
      <point x="318" y="83"/>
      <point x="276" y="164" type="curve" smooth="yes"/>
      <point x="228" y="255"/>
      <point x="195" y="281"/>
      <point x="143" y="281" type="curve" smooth="yes"/>
      <point x="75" y="281"/>
      <point x="29" y="227"/>
      <point x="29" y="137" type="curve" smooth="yes"/>
      <point x="29" y="58"/>
      <point x="61" y="-12"/>
      <point x="140" y="-12" type="curve" smooth="yes"/>
      <point x="204" y="-12"/>
      <point x="233" y="24"/>
      <point x="259" y="80" type="curve"/>
      <point x="211" y="140" type="line"/>
      <point x="199" y="87"/>
      <point x="178" y="58"/>
      <point x="147" y="58" type="curve" smooth="yes"/>
      <point x="119" y="58"/>
      <point x="100" y="83"/>
      <point x="100" y="135" type="curve" smooth="yes"/>
      <point x="100" y="188"/>
      <point x="119" y="212"/>
      <point x="143" y="212" type="curve" smooth="yes"/>
      <point x="166" y="212"/>
      <point x="182" y="195"/>
      <point x="213" y="129" type="curve" smooth="yes"/>
      <point x="261" y="26"/>
      <point x="301" y="-12"/>
    </contour>
    <contour>
      <point x="75" y="693" type="curve" smooth="yes"/>
      <point x="75" y="631"/>
      <point x="101" y="569"/>
      <point x="129" y="513" type="curve"/>
      <point x="201" y="541" type="line"/>
      <point x="173" y="592"/>
      <point x="151" y="640"/>
      <point x="151" y="691" type="curve" smooth="yes"/>
      <point x="151" y="726"/>
      <point x="164" y="759"/>
      <point x="207" y="759" type="curve" smooth="yes"/>
      <point x="219" y="759"/>
      <point x="229" y="757"/>
      <point x="237" y="754" type="curve"/>
      <point x="255" y="823" type="line"/>
      <point x="243" y="828"/>
      <point x="223" y="831"/>
      <point x="197" y="831" type="curve" smooth="yes"/>
      <point x="134" y="831"/>
      <point x="75" y="787"/>
    </contour>
  </outline>
</glyph>
<glyph name="aitelu" format="2">
  <advance width="564"/>
  <unicode hex="0C10"/>
  <outline>
    <contour>
      <point x="387" y="-12" type="curve" smooth="yes"/>
      <point x="485" y="-12"/>
      <point x="527" y="69"/>
      <point x="527" y="232" type="curve" smooth="yes"/>
      <point x="527" y="370"/>
      <point x="485" y="500"/>
      <point x="374" y="500" type="curve" smooth="yes"/>
      <point x="326" y="500"/>
      <point x="280" y="481"/>
      <point x="248" y="398" type="curve"/>
      <point x="268" y="398" type="line"/>
      <point x="245" y="473"/>
      <point x="207" y="500"/>
      <point x="151" y="500" type="curve" smooth="yes"/>
      <point x="83" y="500"/>
      <point x="34" y="452"/>
      <point x="34" y="380" type="curve" smooth="yes"/>
      <point x="34" y="347"/>
      <point x="40" y="326"/>
      <point x="47" y="306" type="curve"/>
      <point x="119" y="323" type="line"/>
      <point x="114" y="337"/>
      <point x="110" y="358"/>
      <point x="110" y="375" type="curve" smooth="yes"/>
      <point x="110" y="406"/>
      <point x="127" y="430"/>
      <point x="156" y="430" type="curve" smooth="yes"/>
      <point x="195" y="430"/>
      <point x="216" y="393"/>
      <point x="225" y="324" type="curve"/>
      <point x="294" y="324" type="line"/>
      <point x="301" y="390"/>
      <point x="325" y="426"/>
      <point x="366" y="426" type="curve" smooth="yes"/>
      <point x="428" y="426"/>
      <point x="452" y="335"/>
      <point x="452" y="231" type="curve" smooth="yes"/>
      <point x="452" y="114"/>
      <point x="434" y="62"/>
      <point x="388" y="62" type="curve" smooth="yes"/>
      <point x="348" y="62"/>
      <point x="329" y="83"/>
      <point x="287" y="164" type="curve" smooth="yes"/>
      <point x="239" y="255"/>
      <point x="206" y="281"/>
      <point x="154" y="281" type="curve" smooth="yes"/>
      <point x="86" y="281"/>
      <point x="40" y="227"/>
      <point x="40" y="137" type="curve" smooth="yes"/>
      <point x="40" y="58"/>
      <point x="72" y="-12"/>
      <point x="151" y="-12" type="curve" smooth="yes"/>
      <point x="215" y="-12"/>
      <point x="244" y="24"/>
      <point x="270" y="80" type="curve"/>
      <point x="222" y="140" type="line"/>
      <point x="210" y="87"/>
      <point x="189" y="58"/>
      <point x="158" y="58" type="curve" smooth="yes"/>
      <point x="130" y="58"/>
      <point x="111" y="83"/>
      <point x="111" y="135" type="curve" smooth="yes"/>
      <point x="111" y="188"/>
      <point x="130" y="212"/>
      <point x="154" y="212" type="curve" smooth="yes"/>
      <point x="177" y="212"/>
      <point x="193" y="195"/>
      <point x="224" y="129" type="curve" smooth="yes"/>
      <point x="272" y="26"/>
      <point x="312" y="-12"/>
    </contour>
  </outline>
</glyph>
<glyph name="otelu" format="2">
  <advance width="564"/>
  <unicode hex="0C12"/>
  <outline>
    <contour>
      <point x="408" y="-12" type="curve" smooth="yes"/>
      <point x="479" y="-12"/>
      <point x="534" y="31"/>
      <point x="534" y="140" type="curve" smooth="yes"/>
      <point x="534" y="204"/>
      <point x="510" y="273"/>
      <point x="449" y="327" type="curve"/>
      <point x="392" y="269" type="line"/>
      <point x="436" y="232"/>
      <point x="458" y="187"/>
      <point x="458" y="136" type="curve" smooth="yes"/>
      <point x="458" y="89"/>
      <point x="443" y="63"/>
      <point x="399" y="63" type="curve" smooth="yes"/>
      <point x="354" y="63"/>
      <point x="327" y="98"/>
      <point x="324" y="179" type="curve"/>
      <point x="255" y="179" type="line"/>
      <point x="252" y="106"/>
      <point x="230" y="62"/>
      <point x="175" y="62" type="curve" smooth="yes"/>
      <point x="131" y="62"/>
      <point x="115" y="91"/>
      <point x="115" y="128" type="curve" smooth="yes"/>
      <point x="115" y="165"/>
      <point x="134" y="193"/>
      <point x="194" y="231" type="curve" smooth="yes"/>
      <point x="252" y="269"/>
      <point x="286" y="309"/>
      <point x="286" y="375" type="curve" smooth="yes"/>
      <point x="286" y="434"/>
      <point x="255" y="500"/>
      <point x="164" y="500" type="curve" smooth="yes"/>
      <point x="74" y="500"/>
      <point x="35" y="438"/>
      <point x="35" y="384" type="curve" smooth="yes"/>
      <point x="35" y="355"/>
      <point x="41" y="327"/>
      <point x="50" y="307" type="curve"/>
      <point x="119" y="326" type="line"/>
      <point x="113" y="341"/>
      <point x="110" y="356"/>
      <point x="110" y="374" type="curve" smooth="yes"/>
      <point x="110" y="409"/>
      <point x="127" y="433"/>
      <point x="162" y="433" type="curve" smooth="yes"/>
      <point x="197" y="433"/>
      <point x="211" y="408"/>
      <point x="211" y="376" type="curve" smooth="yes"/>
      <point x="211" y="335"/>
      <point x="189" y="314"/>
      <point x="149" y="288" type="curve" smooth="yes"/>
      <point x="73" y="238"/>
      <point x="40" y="194"/>
      <point x="40" y="127" type="curve" smooth="yes"/>
      <point x="40" y="54"/>
      <point x="78" y="-12"/>
      <point x="163" y="-12" type="curve" smooth="yes"/>
      <point x="227" y="-12"/>
      <point x="269" y="8"/>
      <point x="300" y="90" type="curve"/>
      <point x="279" y="90" type="line"/>
      <point x="309" y="8"/>
      <point x="349" y="-12"/>
    </contour>
  </outline>
</glyph>
<glyph name="autelu" format="2">
  <advance width="564"/>
  <unicode hex="0C14"/>
  <outline>
    <contour>
      <point x="448" y="409" type="curve" smooth="yes"/>
      <point x="518" y="409"/>
      <point x="559" y="452"/>
      <point x="559" y="534" type="curve" smooth="yes"/>
      <point x="559" y="590"/>
      <point x="539" y="623"/>
      <point x="512" y="646" type="curve" smooth="yes"/>
      <point x="483" y="670"/>
      <point x="445" y="683"/>
      <point x="352" y="683" type="curve" smooth="yes"/>
      <point x="24" y="683" type="line"/>
      <point x="24" y="613" type="line"/>
      <point x="111" y="613" type="line" smooth="yes"/>
      <point x="146" y="613"/>
      <point x="164" y="610"/>
      <point x="179" y="598" type="curve" smooth="yes"/>
      <point x="189" y="590"/>
      <point x="198" y="574"/>
      <point x="198" y="555" type="curve" smooth="yes"/>
      <point x="198" y="538"/>
      <point x="192" y="526"/>
      <point x="182" y="517" type="curve" smooth="yes"/>
      <point x="169" y="505"/>
      <point x="146" y="500"/>
      <point x="109" y="500" type="curve" smooth="yes"/>
      <point x="76" y="500" type="line"/>
      <point x="76" y="436" type="line"/>
      <point x="134" y="436" type="line" smooth="yes"/>
      <point x="178" y="436"/>
      <point x="213" y="445"/>
      <point x="241" y="471" type="curve"/>
      <point x="258" y="488"/>
      <point x="274" y="515"/>
      <point x="274" y="555" type="curve" smooth="yes"/>
      <point x="274" y="575"/>
      <point x="268" y="599"/>
      <point x="258" y="613" type="curve"/>
      <point x="398" y="613" type="line" smooth="yes"/>
      <point x="470" y="613"/>
      <point x="491" y="574"/>
      <point x="491" y="528" type="curve" smooth="yes"/>
      <point x="491" y="490"/>
      <point x="478" y="468"/>
      <point x="449" y="468" type="curve" smooth="yes"/>
      <point x="422" y="468"/>
      <point x="407" y="486"/>
      <point x="407" y="526" type="curve" smooth="yes"/>
      <point x="407" y="563"/>
      <point x="419" y="596"/>
      <point x="445" y="630" type="curve"/>
      <point x="373" y="629" type="line"/>
      <point x="355" y="604"/>
      <point x="339" y="568"/>
      <point x="339" y="526" type="curve" smooth="yes"/>
      <point x="339" y="463"/>
      <point x="367" y="409"/>
    </contour>
    <component base="otelu"/>
  </outline>
</glyph>
<glyph name="nnatelu" format="2">
  <advance width="630"/>
  <unicode hex="0C23"/>
  <outline>
    <contour>
      <point x="449" y="-12" type="curve" smooth="yes"/>
      <point x="546" y="-12"/>
      <point x="596" y="63"/>
      <point x="596" y="236" type="curve" smooth="yes"/>
      <point x="596" y="402"/>
      <point x="542" y="500"/>
      <point x="437" y="500" type="curve" smooth="yes"/>
      <point x="376" y="500"/>
      <point x="336" y="464"/>
      <point x="309" y="398" type="curve"/>
      <point x="328" y="398" type="line"/>
      <point x="301" y="466"/>
      <point x="254" y="500"/>
      <point x="180" y="500" type="curve" smooth="yes"/>
      <point x="94" y="500"/>
      <point x="39" y="445"/>
      <point x="39" y="368" type="curve" smooth="yes"/>
      <point x="39" y="297"/>
      <point x="81" y="255"/>
      <point x="127" y="235" type="curve"/>
      <point x="132" y="251" type="line"/>
      <point x="75" y="234"/>
      <point x="32" y="190"/>
      <point x="32" y="122" type="curve" smooth="yes"/>
      <point x="32" y="47"/>
      <point x="73" y="-12"/>
      <point x="161" y="-12" type="curve" smooth="yes"/>
      <point x="223" y="-12"/>
      <point x="269" y="8"/>
      <point x="314" y="63" type="curve"/>
      <point x="253" y="110" type="line"/>
      <point x="229" y="76"/>
      <point x="206" y="59"/>
      <point x="171" y="59" type="curve" smooth="yes"/>
      <point x="128" y="59"/>
      <point x="110" y="88"/>
      <point x="110" y="127" type="curve" smooth="yes"/>
      <point x="110" y="156"/>
      <point x="121" y="177"/>
      <point x="139" y="190" type="curve" smooth="yes"/>
      <point x="156" y="203"/>
      <point x="182" y="209"/>
      <point x="228" y="209" type="curve" smooth="yes"/>
      <point x="250" y="209" type="line"/>
      <point x="250" y="279" type="line"/>
      <point x="225" y="279" type="line" smooth="yes"/>
      <point x="193" y="279"/>
      <point x="165" y="283"/>
      <point x="146" y="297" type="curve" smooth="yes"/>
      <point x="128" y="310"/>
      <point x="117" y="329"/>
      <point x="117" y="360" type="curve" smooth="yes"/>
      <point x="117" y="398"/>
      <point x="143" y="430"/>
      <point x="191" y="430" type="curve" smooth="yes"/>
      <point x="252" y="430"/>
      <point x="279" y="381"/>
      <point x="285" y="324" type="curve"/>
      <point x="354" y="324" type="line"/>
      <point x="363" y="392"/>
      <point x="389" y="426"/>
      <point x="433" y="426" type="curve" smooth="yes"/>
      <point x="492" y="426"/>
      <point x="520" y="361"/>
      <point x="520" y="250" type="curve" smooth="yes"/>
      <point x="520" y="215" type="line" smooth="yes"/>
      <point x="520" y="95"/>
      <point x="494" y="55"/>
      <point x="449" y="55" type="curve" smooth="yes"/>
      <point x="416" y="55"/>
      <point x="402" y="79"/>
      <point x="402" y="125" type="curve" smooth="yes"/>
      <point x="402" y="169"/>
      <point x="421" y="194"/>
      <point x="454" y="194" type="curve" smooth="yes"/>
      <point x="487" y="194"/>
      <point x="515" y="168"/>
      <point x="538" y="128" type="curve"/>
      <point x="567" y="179" type="line"/>
      <point x="537" y="220"/>
      <point x="507" y="260"/>
      <point x="440" y="260" type="curve" smooth="yes"/>
      <point x="372" y="260"/>
      <point x="328" y="205"/>
      <point x="328" y="128" type="curve" smooth="yes"/>
      <point x="328" y="43"/>
      <point x="371" y="-12"/>
    </contour>
  </outline>
</glyph>
<glyph name="rratelu" format="2">
  <advance width="656"/>
  <unicode hex="0C31"/>
  <outline>
    <contour>
      <point x="452" y="-12" type="curve" smooth="yes"/>
      <point x="557" y="-12"/>
      <point x="620" y="85"/>
      <point x="620" y="255" type="curve" smooth="yes"/>
      <point x="620" y="416"/>
      <point x="568" y="500"/>
      <point x="472" y="500" type="curve" smooth="yes"/>
      <point x="396" y="500"/>
      <point x="357" y="443"/>
      <point x="357" y="387" type="curve" smooth="yes"/>
      <point x="357" y="329"/>
      <point x="384" y="296"/>
      <point x="409" y="272" type="curve"/>
      <point x="414" y="281" type="line"/>
      <point x="241" y="281" type="line"/>
      <point x="241" y="211" type="line"/>
      <point x="497" y="211" type="line"/>
      <point x="497" y="279" type="line"/>
      <point x="465" y="291"/>
      <point x="430" y="328"/>
      <point x="430" y="378" type="curve" smooth="yes"/>
      <point x="430" y="415"/>
      <point x="450" y="432"/>
      <point x="473" y="432" type="curve" smooth="yes"/>
      <point x="516" y="432"/>
      <point x="544" y="382"/>
      <point x="544" y="251" type="curve" smooth="yes"/>
      <point x="544" y="132"/>
      <point x="513" y="63"/>
      <point x="444" y="63" type="curve" smooth="yes"/>
      <point x="389" y="63"/>
      <point x="367" y="100"/>
      <point x="362" y="165" type="curve"/>
      <point x="294" y="165" type="line"/>
      <point x="290" y="110"/>
      <point x="268" y="63"/>
      <point x="207" y="63" type="curve" smooth="yes"/>
      <point x="131" y="63"/>
      <point x="111" y="131"/>
      <point x="111" y="238" type="curve" smooth="yes"/>
      <point x="111" y="268" type="line" smooth="yes"/>
      <point x="111" y="368"/>
      <point x="138" y="433"/>
      <point x="178" y="433" type="curve" smooth="yes"/>
      <point x="201" y="433"/>
      <point x="216" y="410"/>
      <point x="216" y="372" type="curve" smooth="yes"/>
      <point x="216" y="327"/>
      <point x="196" y="301"/>
      <point x="156" y="301" type="curve" smooth="yes"/>
      <point x="120" y="301"/>
      <point x="95" y="323"/>
      <point x="75" y="343" type="curve"/>
      <point x="54" y="290" type="line"/>
      <point x="74" y="259"/>
      <point x="118" y="235"/>
      <point x="166" y="235" type="curve" smooth="yes"/>
      <point x="245" y="235"/>
      <point x="290" y="293"/>
      <point x="290" y="374" type="curve" smooth="yes"/>
      <point x="290" y="453"/>
      <point x="249" y="500"/>
      <point x="185" y="500" type="curve" smooth="yes"/>
      <point x="98" y="500"/>
      <point x="37" y="414"/>
      <point x="37" y="245" type="curve" smooth="yes"/>
      <point x="37" y="90"/>
      <point x="79" y="-12"/>
      <point x="203" y="-12" type="curve" smooth="yes"/>
      <point x="256" y="-12"/>
      <point x="311" y="8"/>
      <point x="338" y="90" type="curve"/>
      <point x="317" y="90" type="line"/>
      <point x="346" y="7"/>
      <point x="395" y="-12"/>
    </contour>
  </outline>
</glyph>
<glyph name="latelu" format="2">
  <advance width="544"/>
  <unicode hex="0C32"/>
  <outline>
    <contour>
      <point x="273" y="-12" type="curve" smooth="yes"/>
      <point x="438" y="-12"/>
      <point x="510" y="99"/>
      <point x="510" y="246" type="curve" smooth="yes"/>
      <point x="510" y="362"/>
      <point x="462" y="448"/>
      <point x="394" y="500" type="curve"/>
      <point x="341" y="436" type="line"/>
      <point x="398" y="393"/>
      <point x="434" y="329"/>
      <point x="434" y="245" type="curve" smooth="yes"/>
      <point x="434" y="124"/>
      <point x="371" y="63"/>
      <point x="273" y="63" type="curve" smooth="yes"/>
      <point x="151" y="63"/>
      <point x="107" y="155"/>
      <point x="107" y="258" type="curve" smooth="yes"/>
      <point x="107" y="289" type="line" smooth="yes"/>
      <point x="107" y="373"/>
      <point x="133" y="433"/>
      <point x="174" y="433" type="curve" smooth="yes"/>
      <point x="197" y="433"/>
      <point x="212" y="414"/>
      <point x="212" y="372" type="curve" smooth="yes"/>
      <point x="212" y="327"/>
      <point x="192" y="301"/>
      <point x="152" y="301" type="curve" smooth="yes"/>
      <point x="116" y="301"/>
      <point x="91" y="323"/>
      <point x="71" y="343" type="curve"/>
      <point x="50" y="290" type="line"/>
      <point x="71" y="264"/>
      <point x="110" y="235"/>
      <point x="158" y="235" type="curve" smooth="yes"/>
      <point x="245" y="235"/>
      <point x="286" y="291"/>
      <point x="286" y="374" type="curve" smooth="yes"/>
      <point x="286" y="453"/>
      <point x="245" y="500"/>
      <point x="181" y="500" type="curve" smooth="yes"/>
      <point x="96" y="500"/>
      <point x="34" y="421"/>
      <point x="34" y="271" type="curve" smooth="yes"/>
      <point x="34" y="96"/>
      <point x="117" y="-12"/>
    </contour>
  </outline>
</glyph>
<glyph name="llatelu" format="2">
  <advance width="505"/>
  <unicode hex="0C33"/>
  <outline>
    <contour>
      <point x="255" y="-12" type="curve" smooth="yes"/>
      <point x="315" y="-12"/>
      <point x="375" y="13"/>
      <point x="375" y="92" type="curve" smooth="yes"/>
      <point x="375" y="131"/>
      <point x="352" y="162"/>
      <point x="323" y="173" type="curve"/>
      <point x="317" y="178"/>
      <point x="310" y="193"/>
      <point x="303" y="197" type="curve"/>
      <point x="288" y="206"/>
      <point x="269" y="214"/>
      <point x="222" y="220" type="curve" smooth="yes"/>
      <point x="127" y="232"/>
      <point x="101" y="273"/>
      <point x="101" y="319" type="curve" smooth="yes"/>
      <point x="101" y="347"/>
      <point x="117" y="375"/>
      <point x="151" y="375" type="curve" smooth="yes"/>
      <point x="179" y="375"/>
      <point x="192" y="354"/>
      <point x="192" y="327" type="curve" smooth="yes"/>
      <point x="192" y="273"/>
      <point x="142" y="246"/>
      <point x="81" y="237" type="curve"/>
      <point x="112" y="191" type="line"/>
      <point x="200" y="211"/>
      <point x="265" y="252"/>
      <point x="265" y="332" type="curve" smooth="yes"/>
      <point x="265" y="385"/>
      <point x="232" y="442"/>
      <point x="150" y="442" type="curve" smooth="yes"/>
      <point x="75" y="442"/>
      <point x="28" y="385"/>
      <point x="28" y="321" type="curve" smooth="yes"/>
      <point x="28" y="224"/>
      <point x="112" y="168"/>
      <point x="207" y="160" type="curve" smooth="yes"/>
      <point x="214" y="159"/>
      <point x="208" y="159"/>
      <point x="225" y="155" type="curve"/>
      <point x="280" y="150"/>
      <point x="305" y="128"/>
      <point x="305" y="95" type="curve" smooth="yes"/>
      <point x="305" y="65"/>
      <point x="283" y="53"/>
      <point x="257" y="53" type="curve" smooth="yes"/>
      <point x="231" y="53"/>
      <point x="209" y="65"/>
      <point x="209" y="95" type="curve" smooth="yes"/>
      <point x="209" y="122"/>
      <point x="223" y="141"/>
      <point x="287" y="156" type="curve"/>
      <point x="304" y="153" type="line"/>
      <point x="421" y="175"/>
      <point x="475" y="239"/>
      <point x="475" y="324" type="curve" smooth="yes"/>
      <point x="475" y="416"/>
      <point x="419" y="469"/>
      <point x="310" y="497" type="curve"/>
      <point x="292" y="432" type="line"/>
      <point x="366" y="414"/>
      <point x="399" y="380"/>
      <point x="399" y="325" type="curve" smooth="yes"/>
      <point x="399" y="257"/>
      <point x="345" y="219"/>
      <point x="231" y="201" type="curve"/>
      <point x="230" y="189" type="line"/>
      <point x="170" y="170"/>
      <point x="139" y="136"/>
      <point x="139" y="89" type="curve" smooth="yes"/>
      <point x="139" y="10"/>
      <point x="203" y="-12"/>
    </contour>
    <component base="hattelu" xOffset="200"/>
  </outline>
</glyph>
<glyph name="lllatelu" format="2">
  <advance width="641"/>
  <unicode hex="0C34"/>
  <outline>
    <contour>
      <point x="445" y="-12" type="curve" smooth="yes"/>
      <point x="562" y="-12"/>
      <point x="604" y="80"/>
      <point x="604" y="223" type="curve" smooth="yes"/>
      <point x="604" y="417"/>
      <point x="526" y="500"/>
      <point x="443" y="500" type="curve" smooth="yes"/>
      <point x="377" y="500"/>
      <point x="336" y="453"/>
      <point x="336" y="374" type="curve" smooth="yes"/>
      <point x="336" y="291"/>
      <point x="377" y="235"/>
      <point x="465" y="235" type="curve" smooth="yes"/>
      <point x="512" y="235"/>
      <point x="557" y="261"/>
      <point x="580" y="290" type="curve"/>
      <point x="559" y="343" type="line"/>
      <point x="539" y="323"/>
      <point x="506" y="301"/>
      <point x="470" y="301" type="curve" smooth="yes"/>
      <point x="430" y="301"/>
      <point x="410" y="327"/>
      <point x="410" y="372" type="curve" smooth="yes"/>
      <point x="410" y="414"/>
      <point x="425" y="433"/>
      <point x="448" y="433" type="curve" smooth="yes"/>
      <point x="491" y="433"/>
      <point x="530" y="370"/>
      <point x="530" y="234" type="curve" smooth="yes"/>
      <point x="530" y="212" type="line" smooth="yes"/>
      <point x="530" y="120"/>
      <point x="512" y="63"/>
      <point x="437" y="63" type="curve" smooth="yes"/>
      <point x="380" y="63"/>
      <point x="358" y="106"/>
      <point x="355" y="179" type="curve"/>
      <point x="286" y="179" type="line"/>
      <point x="283" y="106"/>
      <point x="261" y="63"/>
      <point x="204" y="63" type="curve" smooth="yes"/>
      <point x="128" y="63"/>
      <point x="111" y="120"/>
      <point x="111" y="212" type="curve" smooth="yes"/>
      <point x="111" y="234" type="line" smooth="yes"/>
      <point x="111" y="370"/>
      <point x="150" y="433"/>
      <point x="193" y="433" type="curve" smooth="yes"/>
      <point x="216" y="433"/>
      <point x="231" y="414"/>
      <point x="231" y="372" type="curve" smooth="yes"/>
      <point x="231" y="327"/>
      <point x="211" y="301"/>
      <point x="171" y="301" type="curve" smooth="yes"/>
      <point x="135" y="301"/>
      <point x="102" y="323"/>
      <point x="82" y="343" type="curve"/>
      <point x="61" y="290" type="line"/>
      <point x="84" y="261"/>
      <point x="129" y="235"/>
      <point x="176" y="235" type="curve" smooth="yes"/>
      <point x="264" y="235"/>
      <point x="305" y="291"/>
      <point x="305" y="374" type="curve" smooth="yes"/>
      <point x="305" y="453"/>
      <point x="264" y="500"/>
      <point x="198" y="500" type="curve" smooth="yes"/>
      <point x="115" y="500"/>
      <point x="37" y="417"/>
      <point x="37" y="223" type="curve" smooth="yes"/>
      <point x="37" y="80"/>
      <point x="79" y="-12"/>
      <point x="196" y="-12" type="curve" smooth="yes"/>
      <point x="246" y="-12"/>
      <point x="301" y="4"/>
      <point x="331" y="90" type="curve"/>
      <point x="310" y="90" type="line"/>
      <point x="340" y="4"/>
      <point x="395" y="-12"/>
    </contour>
  </outline>
</glyph>
<glyph name="avagrahatelu" format="2">
  <advance width="453"/>
  <unicode hex="0C3D"/>
  <outline>
    <contour>
      <point x="164" y="500" type="curve" smooth="yes"/>
      <point x="74" y="500"/>
      <point x="35" y="438"/>
      <point x="35" y="384" type="curve" smooth="yes"/>
      <point x="35" y="355"/>
      <point x="41" y="327"/>
      <point x="50" y="307" type="curve"/>
      <point x="119" y="326" type="line"/>
      <point x="113" y="341"/>
      <point x="110" y="356"/>
      <point x="110" y="374" type="curve" smooth="yes"/>
      <point x="110" y="409"/>
      <point x="127" y="433"/>
      <point x="162" y="433" type="curve" smooth="yes"/>
      <point x="197" y="433"/>
      <point x="211" y="408"/>
      <point x="211" y="376" type="curve" smooth="yes"/>
      <point x="211" y="335"/>
      <point x="189" y="314"/>
      <point x="149" y="288" type="curve" smooth="yes"/>
      <point x="73" y="238"/>
      <point x="40" y="194"/>
      <point x="40" y="127" type="curve" smooth="yes"/>
      <point x="40" y="88"/>
      <point x="51" y="60"/>
      <point x="74" y="38" type="curve" smooth="yes"/>
      <point x="100" y="14"/>
      <point x="133" y="0"/>
      <point x="215" y="0" type="curve" smooth="yes"/>
      <point x="438" y="0" type="line"/>
      <point x="438" y="75" type="line"/>
      <point x="210" y="75" type="line" smooth="yes"/>
      <point x="167" y="75"/>
      <point x="148" y="79"/>
      <point x="136" y="87" type="curve" smooth="yes"/>
      <point x="123" y="95"/>
      <point x="115" y="111"/>
      <point x="115" y="130" type="curve" smooth="yes"/>
      <point x="115" y="168"/>
      <point x="134" y="193"/>
      <point x="194" y="231" type="curve" smooth="yes"/>
      <point x="252" y="269"/>
      <point x="286" y="309"/>
      <point x="286" y="375" type="curve" smooth="yes"/>
      <point x="286" y="434"/>
      <point x="255" y="500"/>
    </contour>
  </outline>
</glyph>
<glyph name="aavowelsigntelu" format="2">
  <advance width="187"/>
  <unicode hex="0C3E"/>
  <outline>
    <contour>
      <point x="62" y="226" type="curve" smooth="yes"/>
      <point x="132" y="226"/>
      <point x="173" y="269"/>
      <point x="173" y="351" type="curve" smooth="yes"/>
      <point x="173" y="407"/>
      <point x="153" y="440"/>
      <point x="126" y="463" type="curve" smooth="yes"/>
      <point x="97" y="487"/>
      <point x="59" y="500"/>
      <point x="-21" y="500" type="curve" smooth="yes"/>
      <point x="-482" y="500" type="line"/>
      <point x="-482" y="430" type="line"/>
      <point x="12" y="430" type="line" smooth="yes"/>
      <point x="84" y="430"/>
      <point x="105" y="391"/>
      <point x="105" y="345" type="curve" smooth="yes"/>
      <point x="105" y="307"/>
      <point x="92" y="285"/>
      <point x="63" y="285" type="curve" smooth="yes"/>
      <point x="36" y="285"/>
      <point x="21" y="303"/>
      <point x="21" y="343" type="curve" smooth="yes"/>
      <point x="21" y="380"/>
      <point x="33" y="413"/>
      <point x="59" y="447" type="curve"/>
      <point x="-13" y="446" type="line"/>
      <point x="-31" y="421"/>
      <point x="-47" y="385"/>
      <point x="-47" y="343" type="curve" smooth="yes"/>
      <point x="-47" y="280"/>
      <point x="-19" y="226"/>
    </contour>
  </outline>
</glyph>
<glyph name="ivowelsigntelu" format="2">
  <unicode hex="0C3F"/>
  <outline>
    <contour>
      <point x="-273" y="436" type="curve" smooth="yes"/>
      <point x="-185" y="436"/>
      <point x="-133" y="480"/>
      <point x="-133" y="596" type="curve" smooth="yes"/>
      <point x="-133" y="700"/>
      <point x="-181" y="773"/>
      <point x="-269" y="773" type="curve" smooth="yes"/>
      <point x="-337" y="773"/>
      <point x="-379" y="727"/>
      <point x="-379" y="660" type="curve" smooth="yes"/>
      <point x="-379" y="587"/>
      <point x="-335" y="556"/>
      <point x="-276" y="556" type="curve" smooth="yes"/>
      <point x="-216" y="556"/>
      <point x="-183" y="586"/>
      <point x="-158" y="619" type="curve"/>
      <point x="-179" y="673" type="line"/>
      <point x="-203" y="636"/>
      <point x="-234" y="616"/>
      <point x="-266" y="616" type="curve" smooth="yes"/>
      <point x="-290" y="616"/>
      <point x="-312" y="623"/>
      <point x="-312" y="660" type="curve" smooth="yes"/>
      <point x="-312" y="692"/>
      <point x="-297" y="712"/>
      <point x="-267" y="712" type="curve" smooth="yes"/>
      <point x="-231" y="712"/>
      <point x="-201" y="674"/>
      <point x="-201" y="602" type="curve" smooth="yes"/>
      <point x="-201" y="591" type="line" smooth="yes"/>
      <point x="-201" y="517"/>
      <point x="-234" y="501"/>
      <point x="-275" y="501" type="curve" smooth="yes"/>
      <point x="-302" y="501"/>
      <point x="-325" y="506"/>
      <point x="-346" y="516" type="curve"/>
      <point x="-369" y="456" type="line"/>
      <point x="-343" y="445"/>
      <point x="-310" y="436"/>
    </contour>
  </outline>
</glyph>
<glyph name="iivowelsigntelu" format="2">
  <unicode hex="0C40"/>
  <outline>
    <contour>
      <point x="-273" y="436" type="curve" smooth="yes"/>
      <point x="-185" y="436"/>
      <point x="-133" y="482"/>
      <point x="-133" y="584" type="curve" smooth="yes"/>
      <point x="-133" y="676"/>
      <point x="-181" y="747"/>
      <point x="-269" y="747" type="curve" smooth="yes"/>
      <point x="-333" y="747"/>
      <point x="-379" y="706"/>
      <point x="-379" y="644" type="curve" smooth="yes"/>
      <point x="-379" y="579"/>
      <point x="-335" y="551"/>
      <point x="-276" y="551" type="curve" smooth="yes"/>
      <point x="-216" y="551"/>
      <point x="-183" y="582"/>
      <point x="-158" y="615" type="curve"/>
      <point x="-179" y="665" type="line"/>
      <point x="-203" y="628"/>
      <point x="-234" y="608"/>
      <point x="-266" y="608" type="curve" smooth="yes"/>
      <point x="-290" y="608"/>
      <point x="-312" y="616"/>
      <point x="-312" y="646" type="curve" smooth="yes"/>
      <point x="-312" y="672"/>
      <point x="-297" y="689"/>
      <point x="-267" y="689" type="curve" smooth="yes"/>
      <point x="-231" y="689"/>
      <point x="-201" y="653"/>
      <point x="-201" y="590" type="curve" smooth="yes"/>
      <point x="-201" y="580" type="line" smooth="yes"/>
      <point x="-201" y="515"/>
      <point x="-234" y="501"/>
      <point x="-275" y="501" type="curve" smooth="yes"/>
      <point x="-302" y="501"/>
      <point x="-325" y="506"/>
      <point x="-346" y="516" type="curve"/>
      <point x="-369" y="456" type="line"/>
      <point x="-343" y="445"/>
      <point x="-310" y="436"/>
    </contour>
    <contour>
      <point x="-243" y="869" type="curve" smooth="yes"/>
      <point x="-316" y="869"/>
      <point x="-356" y="827"/>
      <point x="-356" y="765" type="curve" smooth="yes"/>
      <point x="-356" y="727"/>
      <point x="-341" y="699"/>
      <point x="-326" y="677" type="curve"/>
      <point x="-265" y="703" type="line"/>
      <point x="-279" y="720"/>
      <point x="-289" y="736"/>
      <point x="-289" y="760" type="curve" smooth="yes"/>
      <point x="-289" y="786"/>
      <point x="-273" y="806"/>
      <point x="-244" y="806" type="curve" smooth="yes"/>
      <point x="-216" y="806"/>
      <point x="-204" y="786"/>
      <point x="-194" y="757" type="curve"/>
      <point x="-124" y="777" type="line"/>
      <point x="-144" y="835"/>
      <point x="-182" y="869"/>
    </contour>
  </outline>
</glyph>
<glyph name="uvowelsigntelu" format="2">
  <advance width="259"/>
  <unicode hex="0C41"/>
  <outline>
    <contour>
      <point x="81" y="-12" type="curve" smooth="yes"/>
      <point x="177" y="-12"/>
      <point x="225" y="59"/>
      <point x="225" y="181" type="curve" smooth="yes"/>
      <point x="225" y="332"/>
      <point x="146" y="443"/>
      <point x="71" y="500" type="curve"/>
      <point x="19" y="436" type="line"/>
      <point x="80" y="391"/>
      <point x="149" y="303"/>
      <point x="149" y="175" type="curve" smooth="yes"/>
      <point x="149" y="102"/>
      <point x="130" y="63"/>
      <point x="75" y="63" type="curve" smooth="yes"/>
      <point x="21" y="63"/>
      <point x="-11" y="97"/>
      <point x="-51" y="154" type="curve"/>
      <point x="-104" y="107" type="line"/>
      <point x="-54" y="38"/>
      <point x="-2" y="-12"/>
    </contour>
  </outline>
</glyph>
<glyph name="uuvowelsigntelu" format="2">
  <advance width="498"/>
  <unicode hex="0C42"/>
  <outline>
    <contour>
      <point x="82" y="-12" type="curve" smooth="yes"/>
      <point x="178" y="-12"/>
      <point x="226" y="61"/>
      <point x="226" y="176" type="curve" smooth="yes"/>
      <point x="226" y="315"/>
      <point x="166" y="401"/>
      <point x="107" y="453" type="curve"/>
      <point x="109" y="471" type="line"/>
      <point x="98" y="481"/>
      <point x="81" y="490"/>
      <point x="68" y="500" type="curve"/>
      <point x="23" y="437" type="line"/>
      <point x="84" y="387"/>
      <point x="150" y="297"/>
      <point x="150" y="172" type="curve" smooth="yes"/>
      <point x="150" y="104"/>
      <point x="131" y="63"/>
      <point x="76" y="63" type="curve" smooth="yes"/>
      <point x="23" y="63"/>
      <point x="-9" y="96"/>
      <point x="-50" y="154" type="curve"/>
      <point x="-101" y="107" type="line"/>
      <point x="-51" y="38"/>
      <point x="1" y="-12"/>
    </contour>
    <contour>
      <point x="373" y="226" type="curve" smooth="yes"/>
      <point x="443" y="226"/>
      <point x="484" y="269"/>
      <point x="484" y="351" type="curve" smooth="yes"/>
      <point x="484" y="407"/>
      <point x="464" y="440"/>
      <point x="437" y="463" type="curve" smooth="yes"/>
      <point x="408" y="487"/>
      <point x="370" y="500"/>
      <point x="290" y="500" type="curve" smooth="yes"/>
      <point x="68" y="500" type="line"/>
      <point x="74" y="430" type="line"/>
      <point x="323" y="430" type="line" smooth="yes"/>
      <point x="395" y="430"/>
      <point x="416" y="391"/>
      <point x="416" y="345" type="curve" smooth="yes"/>
      <point x="416" y="307"/>
      <point x="403" y="285"/>
      <point x="374" y="285" type="curve" smooth="yes"/>
      <point x="347" y="285"/>
      <point x="332" y="303"/>
      <point x="332" y="343" type="curve" smooth="yes"/>
      <point x="332" y="380"/>
      <point x="344" y="413"/>
      <point x="370" y="447" type="curve"/>
      <point x="298" y="446" type="line"/>
      <point x="280" y="421"/>
      <point x="264" y="385"/>
      <point x="264" y="343" type="curve" smooth="yes"/>
      <point x="264" y="280"/>
      <point x="292" y="226"/>
    </contour>
  </outline>
</glyph>
<glyph name="rvocalicvowelsigntelu" format="2">
  <advance width="318"/>
  <unicode hex="0C43"/>
  <outline>
    <contour>
      <point x="87" y="-386" type="curve" smooth="yes"/>
      <point x="210" y="-386"/>
      <point x="310" y="-320"/>
      <point x="310" y="-82" type="curve" smooth="yes"/>
      <point x="310" y="199"/>
      <point x="158" y="398"/>
      <point x="26" y="500" type="curve"/>
      <point x="-25" y="438" type="line"/>
      <point x="116" y="324"/>
      <point x="237" y="155"/>
      <point x="237" y="-83" type="curve" smooth="yes"/>
      <point x="237" y="-285"/>
      <point x="157" y="-319"/>
      <point x="87" y="-319" type="curve" smooth="yes"/>
      <point x="11" y="-319"/>
      <point x="-24" y="-272"/>
      <point x="-24" y="-202" type="curve" smooth="yes"/>
      <point x="-24" y="-184" type="line" smooth="yes"/>
      <point x="-24" y="-117"/>
      <point x="3" y="-79"/>
      <point x="38" y="-79" type="curve" smooth="yes"/>
      <point x="61" y="-79"/>
      <point x="77" y="-98"/>
      <point x="77" y="-135" type="curve" smooth="yes"/>
      <point x="77" y="-175"/>
      <point x="55" y="-194"/>
      <point x="22" y="-194" type="curve" smooth="yes"/>
      <point x="-12" y="-194"/>
      <point x="-31" y="-184"/>
      <point x="-51" y="-166" type="curve"/>
      <point x="-55" y="-229" type="line"/>
      <point x="-32" y="-245"/>
      <point x="-8" y="-255"/>
      <point x="30" y="-255" type="curve" smooth="yes"/>
      <point x="106" y="-255"/>
      <point x="145" y="-208"/>
      <point x="145" y="-131" type="curve" smooth="yes"/>
      <point x="145" y="-71"/>
      <point x="110" y="-15"/>
      <point x="40" y="-15" type="curve" smooth="yes"/>
      <point x="-34" y="-15"/>
      <point x="-90" y="-78"/>
      <point x="-90" y="-186" type="curve" smooth="yes"/>
      <point x="-90" y="-304"/>
      <point x="-30" y="-386"/>
    </contour>
  </outline>
</glyph>
<glyph name="rrvocalicvowelsigntelu" format="2">
  <advance width="503"/>
  <unicode hex="0C44"/>
  <outline>
    <contour>
      <point x="87" y="-386" type="curve" smooth="yes"/>
      <point x="210" y="-386"/>
      <point x="310" y="-320"/>
      <point x="310" y="-82" type="curve" smooth="yes"/>
      <point x="310" y="152"/>
      <point x="200" y="334"/>
      <point x="79" y="440" type="curve"/>
      <point x="81" y="460" type="line"/>
      <point x="64" y="476"/>
      <point x="56" y="487"/>
      <point x="40" y="500" type="curve"/>
      <point x="-8" y="426" type="line"/>
      <point x="125" y="310"/>
      <point x="237" y="147"/>
      <point x="237" y="-83" type="curve" smooth="yes"/>
      <point x="237" y="-285"/>
      <point x="157" y="-319"/>
      <point x="87" y="-319" type="curve" smooth="yes"/>
      <point x="11" y="-319"/>
      <point x="-24" y="-272"/>
      <point x="-24" y="-202" type="curve" smooth="yes"/>
      <point x="-24" y="-184" type="line" smooth="yes"/>
      <point x="-24" y="-117"/>
      <point x="3" y="-79"/>
      <point x="38" y="-79" type="curve" smooth="yes"/>
      <point x="61" y="-79"/>
      <point x="77" y="-98"/>
      <point x="77" y="-135" type="curve" smooth="yes"/>
      <point x="77" y="-175"/>
      <point x="55" y="-194"/>
      <point x="22" y="-194" type="curve" smooth="yes"/>
      <point x="-12" y="-194"/>
      <point x="-31" y="-184"/>
      <point x="-51" y="-166" type="curve"/>
      <point x="-55" y="-229" type="line"/>
      <point x="-32" y="-245"/>
      <point x="-8" y="-255"/>
      <point x="30" y="-255" type="curve" smooth="yes"/>
      <point x="106" y="-255"/>
      <point x="145" y="-208"/>
      <point x="145" y="-131" type="curve" smooth="yes"/>
      <point x="145" y="-71"/>
      <point x="110" y="-15"/>
      <point x="40" y="-15" type="curve" smooth="yes"/>
      <point x="-34" y="-15"/>
      <point x="-90" y="-78"/>
      <point x="-90" y="-186" type="curve" smooth="yes"/>
      <point x="-90" y="-304"/>
      <point x="-30" y="-386"/>
    </contour>
    <contour>
      <point x="378" y="226" type="curve" smooth="yes"/>
      <point x="448" y="226"/>
      <point x="489" y="269"/>
      <point x="489" y="351" type="curve" smooth="yes"/>
      <point x="489" y="407"/>
      <point x="469" y="440"/>
      <point x="442" y="463" type="curve" smooth="yes"/>
      <point x="413" y="487"/>
      <point x="375" y="500"/>
      <point x="295" y="500" type="curve" smooth="yes"/>
      <point x="40" y="500" type="line"/>
      <point x="47" y="436" type="line"/>
      <point x="75" y="433"/>
      <point x="106" y="430"/>
      <point x="169" y="430" type="curve" smooth="yes"/>
      <point x="328" y="430" type="line" smooth="yes"/>
      <point x="400" y="430"/>
      <point x="421" y="391"/>
      <point x="421" y="345" type="curve" smooth="yes"/>
      <point x="421" y="307"/>
      <point x="408" y="285"/>
      <point x="379" y="285" type="curve" smooth="yes"/>
      <point x="352" y="285"/>
      <point x="337" y="303"/>
      <point x="337" y="343" type="curve" smooth="yes"/>
      <point x="337" y="380"/>
      <point x="349" y="413"/>
      <point x="375" y="447" type="curve"/>
      <point x="303" y="446" type="line"/>
      <point x="285" y="421"/>
      <point x="269" y="385"/>
      <point x="269" y="343" type="curve" smooth="yes"/>
      <point x="269" y="280"/>
      <point x="297" y="226"/>
    </contour>
  </outline>
</glyph>
<glyph name="evowelsigntelu" format="2">
  <unicode hex="0C46"/>
  <outline>
    <contour>
      <point x="-80" y="555" type="curve" smooth="yes"/>
      <point x="-80" y="598"/>
      <point x="-95" y="629"/>
      <point x="-119" y="649" type="curve" smooth="yes"/>
      <point x="-148" y="673"/>
      <point x="-182" y="683"/>
      <point x="-252" y="683" type="curve" smooth="yes"/>
      <point x="-480" y="683" type="line"/>
      <point x="-480" y="613" type="line"/>
      <point x="-243" y="613" type="line" smooth="yes"/>
      <point x="-208" y="613"/>
      <point x="-190" y="610"/>
      <point x="-175" y="598" type="curve" smooth="yes"/>
      <point x="-165" y="590"/>
      <point x="-156" y="574"/>
      <point x="-156" y="555" type="curve" smooth="yes"/>
      <point x="-156" y="538"/>
      <point x="-162" y="526"/>
      <point x="-172" y="517" type="curve" smooth="yes"/>
      <point x="-185" y="505"/>
      <point x="-206" y="500"/>
      <point x="-245" y="500" type="curve" smooth="yes"/>
      <point x="-272" y="500" type="line"/>
      <point x="-272" y="430" type="line"/>
      <point x="-243" y="430" type="line" smooth="yes"/>
      <point x="-185" y="430"/>
      <point x="-141" y="444"/>
      <point x="-113" y="471" type="curve" smooth="yes"/>
      <point x="-92" y="491"/>
      <point x="-80" y="518"/>
    </contour>
  </outline>
</glyph>
<glyph name="eevowelsigntelu" format="2">
  <unicode hex="0C47"/>
  <outline>
    <contour>
      <point x="-80" y="555" type="curve" smooth="yes"/>
      <point x="-80" y="598"/>
      <point x="-95" y="629"/>
      <point x="-119" y="649" type="curve" smooth="yes"/>
      <point x="-148" y="673"/>
      <point x="-182" y="683"/>
      <point x="-252" y="683" type="curve" smooth="yes"/>
      <point x="-480" y="683" type="line"/>
      <point x="-480" y="613" type="line"/>
      <point x="-243" y="613" type="line" smooth="yes"/>
      <point x="-208" y="613"/>
      <point x="-190" y="610"/>
      <point x="-175" y="598" type="curve" smooth="yes"/>
      <point x="-165" y="590"/>
      <point x="-156" y="574"/>
      <point x="-156" y="555" type="curve" smooth="yes"/>
      <point x="-156" y="538"/>
      <point x="-162" y="526"/>
      <point x="-172" y="517" type="curve" smooth="yes"/>
      <point x="-185" y="505"/>
      <point x="-206" y="500"/>
      <point x="-245" y="500" type="curve" smooth="yes"/>
      <point x="-272" y="500" type="line"/>
      <point x="-272" y="430" type="line"/>
      <point x="-243" y="430" type="line" smooth="yes"/>
      <point x="-185" y="430"/>
      <point x="-141" y="444"/>
      <point x="-113" y="471" type="curve" smooth="yes"/>
      <point x="-92" y="491"/>
      <point x="-80" y="518"/>
    </contour>
    <contour>
      <point x="-163" y="824" type="curve" smooth="yes"/>
      <point x="-230" y="824"/>
      <point x="-275" y="781"/>
      <point x="-275" y="720" type="curve" smooth="yes"/>
      <point x="-275" y="680"/>
      <point x="-263" y="648"/>
      <point x="-241" y="619" type="curve"/>
      <point x="-178" y="644" type="line"/>
      <point x="-197" y="671"/>
      <point x="-205" y="688"/>
      <point x="-205" y="714" type="curve" smooth="yes"/>
      <point x="-205" y="741"/>
      <point x="-193" y="762"/>
      <point x="-165" y="762" type="curve" smooth="yes"/>
      <point x="-138" y="762"/>
      <point x="-125" y="739"/>
      <point x="-115" y="708" type="curve"/>
      <point x="-45" y="728" type="line"/>
      <point x="-63" y="789"/>
      <point x="-105" y="824"/>
    </contour>
  </outline>
</glyph>
<glyph name="ovowelsigntelu" format="2">
  <advance width="165"/>
  <unicode hex="0C4A"/>
  <outline>
    <contour>
      <point x="41" y="423" type="curve" smooth="yes"/>
      <point x="111" y="423"/>
      <point x="152" y="466"/>
      <point x="152" y="551" type="curve" smooth="yes"/>
      <point x="152" y="601"/>
      <point x="134" y="636"/>
      <point x="107" y="660" type="curve" smooth="yes"/>
      <point x="79" y="685"/>
      <point x="35" y="697"/>
      <point x="-22" y="697" type="curve" smooth="yes"/>
      <point x="-51" y="697" type="line" smooth="yes"/>
      <point x="-130" y="697"/>
      <point x="-171" y="659"/>
      <point x="-187" y="618" type="curve"/>
      <point x="-182" y="611" type="line"/>
      <point x="-201" y="667"/>
      <point x="-235" y="697"/>
      <point x="-290" y="697" type="curve" smooth="yes"/>
      <point x="-296" y="697" type="line" smooth="yes"/>
      <point x="-365" y="697"/>
      <point x="-418" y="645"/>
      <point x="-418" y="567" type="curve" smooth="yes"/>
      <point x="-418" y="476"/>
      <point x="-361" y="430"/>
      <point x="-273" y="430" type="curve" smooth="yes"/>
      <point x="-267" y="430" type="line"/>
      <point x="-267" y="500" type="line"/>
      <point x="-275" y="500" type="line" smooth="yes"/>
      <point x="-327" y="500"/>
      <point x="-342" y="525"/>
      <point x="-342" y="564" type="curve" smooth="yes"/>
      <point x="-342" y="603"/>
      <point x="-321" y="627"/>
      <point x="-289" y="627" type="curve" smooth="yes"/>
      <point x="-287" y="627" type="line" smooth="yes"/>
      <point x="-248" y="627"/>
      <point x="-228" y="590"/>
      <point x="-222" y="532" type="curve"/>
      <point x="-150" y="532" type="line"/>
      <point x="-143" y="591"/>
      <point x="-124" y="627"/>
      <point x="-55" y="627" type="curve" smooth="yes"/>
      <point x="-3" y="627" type="line" smooth="yes"/>
      <point x="63" y="627"/>
      <point x="84" y="590"/>
      <point x="84" y="542" type="curve" smooth="yes"/>
      <point x="84" y="504"/>
      <point x="72" y="482"/>
      <point x="42" y="482" type="curve" smooth="yes"/>
      <point x="15" y="482"/>
      <point x="0" y="500"/>
      <point x="0" y="540" type="curve" smooth="yes"/>
      <point x="0" y="577"/>
      <point x="12" y="610"/>
      <point x="38" y="644" type="curve"/>
      <point x="-34" y="643" type="line"/>
      <point x="-52" y="618"/>
      <point x="-68" y="582"/>
      <point x="-68" y="540" type="curve" smooth="yes"/>
      <point x="-68" y="477"/>
      <point x="-40" y="423"/>
    </contour>
  </outline>
</glyph>
<glyph name="oovowelsigntelu" format="2">
  <advance width="165"/>
  <unicode hex="0C4B"/>
  <outline>
    <contour>
      <point x="41" y="423" type="curve" smooth="yes"/>
      <point x="111" y="423"/>
      <point x="152" y="466"/>
      <point x="152" y="551" type="curve" smooth="yes"/>
      <point x="152" y="601"/>
      <point x="134" y="636"/>
      <point x="107" y="660" type="curve" smooth="yes"/>
      <point x="79" y="685"/>
      <point x="35" y="697"/>
      <point x="-22" y="697" type="curve" smooth="yes"/>
      <point x="-51" y="697" type="line" smooth="yes"/>
      <point x="-130" y="697"/>
      <point x="-171" y="659"/>
      <point x="-187" y="618" type="curve"/>
      <point x="-182" y="611" type="line"/>
      <point x="-201" y="667"/>
      <point x="-235" y="697"/>
      <point x="-290" y="697" type="curve" smooth="yes"/>
      <point x="-296" y="697" type="line" smooth="yes"/>
      <point x="-365" y="697"/>
      <point x="-418" y="645"/>
      <point x="-418" y="567" type="curve" smooth="yes"/>
      <point x="-418" y="476"/>
      <point x="-361" y="430"/>
      <point x="-273" y="430" type="curve" smooth="yes"/>
      <point x="-267" y="430" type="line"/>
      <point x="-267" y="500" type="line"/>
      <point x="-275" y="500" type="line" smooth="yes"/>
      <point x="-327" y="500"/>
      <point x="-342" y="525"/>
      <point x="-342" y="564" type="curve" smooth="yes"/>
      <point x="-342" y="603"/>
      <point x="-321" y="627"/>
      <point x="-289" y="627" type="curve" smooth="yes"/>
      <point x="-287" y="627" type="line" smooth="yes"/>
      <point x="-248" y="627"/>
      <point x="-228" y="590"/>
      <point x="-222" y="532" type="curve"/>
      <point x="-150" y="532" type="line"/>
      <point x="-143" y="591"/>
      <point x="-124" y="627"/>
      <point x="-55" y="627" type="curve" smooth="yes"/>
      <point x="-3" y="627" type="line" smooth="yes"/>
      <point x="63" y="627"/>
      <point x="84" y="590"/>
      <point x="84" y="542" type="curve" smooth="yes"/>
      <point x="84" y="504"/>
      <point x="72" y="482"/>
      <point x="42" y="482" type="curve" smooth="yes"/>
      <point x="15" y="482"/>
      <point x="0" y="500"/>
      <point x="0" y="540" type="curve" smooth="yes"/>
      <point x="0" y="577"/>
      <point x="12" y="610"/>
      <point x="38" y="644" type="curve"/>
      <point x="-34" y="643" type="line"/>
      <point x="-52" y="618"/>
      <point x="-68" y="582"/>
      <point x="-68" y="540" type="curve" smooth="yes"/>
      <point x="-68" y="477"/>
      <point x="-40" y="423"/>
    </contour>
    <contour>
      <point x="60" y="836" type="curve" smooth="yes"/>
      <point x="-7" y="836"/>
      <point x="-52" y="793"/>
      <point x="-52" y="732" type="curve" smooth="yes"/>
      <point x="-52" y="692"/>
      <point x="-40" y="660"/>
      <point x="-18" y="631" type="curve"/>
      <point x="45" y="656" type="line"/>
      <point x="26" y="683"/>
      <point x="18" y="700"/>
      <point x="18" y="726" type="curve" smooth="yes"/>
      <point x="18" y="753"/>
      <point x="30" y="774"/>
      <point x="58" y="774" type="curve" smooth="yes"/>
      <point x="85" y="774"/>
      <point x="98" y="751"/>
      <point x="108" y="720" type="curve"/>
      <point x="178" y="740" type="line"/>
      <point x="160" y="801"/>
      <point x="118" y="836"/>
    </contour>
  </outline>
</glyph>
<glyph name="auvowelsigntelu" format="2">
  <advance width="164"/>
  <unicode hex="0C4C"/>
  <outline>
    <contour>
      <point x="38" y="409" type="curve" smooth="yes"/>
      <point x="108" y="409"/>
      <point x="149" y="452"/>
      <point x="149" y="534" type="curve" smooth="yes"/>
      <point x="149" y="588"/>
      <point x="129" y="622"/>
      <point x="102" y="645" type="curve" smooth="yes"/>
      <point x="73" y="669"/>
      <point x="35" y="683"/>
      <point x="-54" y="683" type="curve" smooth="yes"/>
      <point x="-427" y="683" type="line"/>
      <point x="-427" y="613" type="line"/>
      <point x="-297" y="613" type="line" smooth="yes"/>
      <point x="-262" y="613"/>
      <point x="-244" y="610"/>
      <point x="-229" y="598" type="curve" smooth="yes"/>
      <point x="-219" y="590"/>
      <point x="-210" y="574"/>
      <point x="-210" y="555" type="curve" smooth="yes"/>
      <point x="-210" y="538"/>
      <point x="-216" y="526"/>
      <point x="-226" y="517" type="curve" smooth="yes"/>
      <point x="-239" y="505"/>
      <point x="-260" y="500"/>
      <point x="-299" y="500" type="curve" smooth="yes"/>
      <point x="-351" y="500" type="line"/>
      <point x="-351" y="430" type="line"/>
      <point x="-297" y="430" type="line" smooth="yes"/>
      <point x="-239" y="430"/>
      <point x="-195" y="444"/>
      <point x="-167" y="471" type="curve" smooth="yes"/>
      <point x="-146" y="491"/>
      <point x="-134" y="518"/>
      <point x="-134" y="555" type="curve" smooth="yes"/>
      <point x="-134" y="579"/>
      <point x="-141" y="601"/>
      <point x="-149" y="613" type="curve"/>
      <point x="-12" y="613" type="line" smooth="yes"/>
      <point x="60" y="613"/>
      <point x="81" y="574"/>
      <point x="81" y="528" type="curve" smooth="yes"/>
      <point x="81" y="490"/>
      <point x="68" y="468"/>
      <point x="39" y="468" type="curve" smooth="yes"/>
      <point x="12" y="468"/>
      <point x="-3" y="486"/>
      <point x="-3" y="526" type="curve" smooth="yes"/>
      <point x="-3" y="563"/>
      <point x="9" y="596"/>
      <point x="35" y="630" type="curve"/>
      <point x="-37" y="629" type="line"/>
      <point x="-55" y="604"/>
      <point x="-71" y="568"/>
      <point x="-71" y="526" type="curve" smooth="yes"/>
      <point x="-71" y="463"/>
      <point x="-43" y="409"/>
    </contour>
  </outline>
</glyph>
<glyph name="viramatelu" format="2">
  <unicode hex="0C4D"/>
  <outline>
    <contour>
      <point x="-326" y="540" type="curve" smooth="yes"/>
      <point x="-326" y="460"/>
      <point x="-259" y="430"/>
      <point x="-184" y="430" type="curve" smooth="yes"/>
      <point x="-175" y="430" type="line"/>
      <point x="-175" y="500" type="line"/>
      <point x="-179" y="500" type="line" smooth="yes"/>
      <point x="-205" y="500"/>
      <point x="-221" y="503"/>
      <point x="-233" y="512" type="curve" smooth="yes"/>
      <point x="-243" y="520"/>
      <point x="-250" y="532"/>
      <point x="-250" y="549" type="curve" smooth="yes"/>
      <point x="-250" y="564"/>
      <point x="-243" y="576"/>
      <point x="-233" y="583" type="curve" smooth="yes"/>
      <point x="-219" y="593"/>
      <point x="-203" y="596"/>
      <point x="-168" y="596" type="curve" smooth="yes"/>
      <point x="-91" y="596" type="line"/>
      <point x="-91" y="665" type="line"/>
      <point x="-168" y="665" type="line" smooth="yes"/>
      <point x="-205" y="665"/>
      <point x="-222" y="668"/>
      <point x="-237" y="677" type="curve" smooth="yes"/>
      <point x="-249" y="685"/>
      <point x="-257" y="697"/>
      <point x="-257" y="716" type="curve" smooth="yes"/>
      <point x="-257" y="733"/>
      <point x="-249" y="745"/>
      <point x="-238" y="752" type="curve" smooth="yes"/>
      <point x="-223" y="761"/>
      <point x="-207" y="763"/>
      <point x="-170" y="763" type="curve" smooth="yes"/>
      <point x="30" y="763" type="line"/>
      <point x="30" y="832" type="line"/>
      <point x="-154" y="832" type="line" smooth="yes"/>
      <point x="-226" y="832"/>
      <point x="-264" y="825"/>
      <point x="-294" y="803" type="curve" smooth="yes"/>
      <point x="-318" y="785"/>
      <point x="-333" y="757"/>
      <point x="-333" y="724" type="curve" smooth="yes"/>
      <point x="-333" y="679"/>
      <point x="-309" y="644"/>
      <point x="-268" y="620" type="curve"/>
      <point x="-268" y="636" type="line"/>
      <point x="-302" y="614"/>
      <point x="-326" y="582"/>
    </contour>
  </outline>
</glyph>
<glyph name="lengthmarktelu" format="2">
  <unicode hex="0C55"/>
  <outline>
    <contour>
      <point x="-134" y="672" type="curve" smooth="yes"/>
      <point x="-201" y="672"/>
      <point x="-246" y="629"/>
      <point x="-246" y="568" type="curve" smooth="yes"/>
      <point x="-246" y="528"/>
      <point x="-234" y="496"/>
      <point x="-212" y="467" type="curve"/>
      <point x="-149" y="492" type="line"/>
      <point x="-168" y="519"/>
      <point x="-176" y="536"/>
      <point x="-176" y="562" type="curve" smooth="yes"/>
      <point x="-176" y="589"/>
      <point x="-164" y="610"/>
      <point x="-136" y="610" type="curve" smooth="yes"/>
      <point x="-109" y="610"/>
      <point x="-96" y="587"/>
      <point x="-86" y="556" type="curve"/>
      <point x="-16" y="576" type="line"/>
      <point x="-34" y="637"/>
      <point x="-76" y="672"/>
    </contour>
  </outline>
</glyph>
<glyph name="ailengthmarktelu" format="2">
  <unicode hex="0C56"/>
  <outline>
    <contour>
      <point x="-393" y="-61" type="curve" smooth="yes"/>
      <point x="-462" y="-61"/>
      <point x="-500" y="-109"/>
      <point x="-500" y="-175" type="curve" smooth="yes"/>
      <point x="-500" y="-219"/>
      <point x="-485" y="-254"/>
      <point x="-456" y="-278" type="curve" smooth="yes"/>
      <point x="-426" y="-303"/>
      <point x="-383" y="-318"/>
      <point x="-296" y="-318" type="curve" smooth="yes"/>
      <point x="-65" y="-318" type="line"/>
      <point x="-65" y="-248" type="line"/>
      <point x="-340" y="-248" type="line" smooth="yes"/>
      <point x="-412" y="-248"/>
      <point x="-434" y="-214"/>
      <point x="-434" y="-173" type="curve" smooth="yes"/>
      <point x="-434" y="-140"/>
      <point x="-420" y="-120"/>
      <point x="-395" y="-120" type="curve" smooth="yes"/>
      <point x="-373" y="-120"/>
      <point x="-357" y="-135"/>
      <point x="-357" y="-170" type="curve" smooth="yes"/>
      <point x="-357" y="-208"/>
      <point x="-372" y="-242"/>
      <point x="-395" y="-270" type="curve"/>
      <point x="-322" y="-267" type="line"/>
      <point x="-305" y="-239"/>
      <point x="-291" y="-206"/>
      <point x="-291" y="-168" type="curve" smooth="yes"/>
      <point x="-291" y="-113"/>
      <point x="-318" y="-61"/>
    </contour>
  </outline>
</glyph>
<glyph name="tsatelu" format="2">
  <advance width="583"/>
  <unicode hex="0C58"/>
  <outline>
    <contour>
      <point x="411" y="-12" type="curve" smooth="yes"/>
      <point x="499" y="-12"/>
      <point x="549" y="53"/>
      <point x="549" y="159" type="curve" smooth="yes"/>
      <point x="549" y="306"/>
      <point x="475" y="403"/>
      <point x="337" y="454" type="curve"/>
      <point x="300" y="392" type="line"/>
      <point x="393" y="359"/>
      <point x="473" y="287"/>
      <point x="473" y="162" type="curve" smooth="yes"/>
      <point x="473" y="97"/>
      <point x="454" y="63"/>
      <point x="401" y="63" type="curve" smooth="yes"/>
      <point x="359" y="63"/>
      <point x="332" y="98"/>
      <point x="329" y="179" type="curve"/>
      <point x="260" y="179" type="line"/>
      <point x="257" y="106"/>
      <point x="237" y="63"/>
      <point x="188" y="63" type="curve" smooth="yes"/>
      <point x="147" y="63"/>
      <point x="131" y="99"/>
      <point x="131" y="142" type="curve" smooth="yes"/>
      <point x="131" y="199"/>
      <point x="161" y="241"/>
      <point x="214" y="266" type="curve"/>
      <point x="214" y="332" type="line"/>
      <point x="25" y="332" type="line"/>
      <point x="25" y="263" type="line"/>
      <point x="126" y="263" type="line"/>
      <point x="129" y="280" type="line"/>
      <point x="80" y="243"/>
      <point x="57" y="194"/>
      <point x="57" y="132" type="curve" smooth="yes"/>
      <point x="57" y="47"/>
      <point x="105" y="-12"/>
      <point x="178" y="-12" type="curve" smooth="yes"/>
      <point x="227" y="-12"/>
      <point x="275" y="4"/>
      <point x="305" y="90" type="curve"/>
      <point x="284" y="90" type="line"/>
      <point x="314" y="8"/>
      <point x="354" y="-12"/>
    </contour>
    <contour>
      <point x="315" y="384" type="curve" smooth="yes"/>
      <point x="365" y="384"/>
      <point x="397" y="408"/>
      <point x="431" y="467" type="curve" smooth="yes"/>
      <point x="465" y="526" type="line" smooth="yes"/>
      <point x="497" y="582"/>
      <point x="518" y="603"/>
      <point x="561" y="606" type="curve"/>
      <point x="552" y="679" type="line"/>
      <point x="485" y="678"/>
      <point x="455" y="648"/>
      <point x="407" y="566" type="curve" smooth="yes"/>
      <point x="367" y="497" type="line" smooth="yes"/>
      <point x="348" y="464"/>
      <point x="338" y="454"/>
      <point x="321" y="454" type="curve" smooth="yes"/>
      <point x="300" y="454"/>
      <point x="288" y="479"/>
      <point x="276" y="545" type="curve"/>
      <point x="201" y="525" type="line"/>
      <point x="221" y="409"/>
      <point x="262" y="384"/>
    </contour>
    <contour>
      <point x="371" y="869" type="curve" smooth="yes"/>
      <point x="296" y="869"/>
      <point x="269" y="817"/>
      <point x="269" y="762" type="curve" smooth="yes"/>
      <point x="269" y="724"/>
      <point x="283" y="691"/>
      <point x="300" y="663" type="curve"/>
      <point x="373" y="660" type="line"/>
      <point x="350" y="688"/>
      <point x="335" y="722"/>
      <point x="335" y="760" type="curve" smooth="yes"/>
      <point x="335" y="795"/>
      <point x="351" y="810"/>
      <point x="373" y="810" type="curve" smooth="yes"/>
      <point x="398" y="810"/>
      <point x="412" y="790"/>
      <point x="412" y="757" type="curve" smooth="yes"/>
      <point x="412" y="716"/>
      <point x="390" y="682"/>
      <point x="318" y="682" type="curve" smooth="yes"/>
      <point x="65" y="682" type="line"/>
      <point x="65" y="612" type="line"/>
      <point x="274" y="612" type="line" smooth="yes"/>
      <point x="361" y="612"/>
      <point x="404" y="627"/>
      <point x="434" y="652" type="curve" smooth="yes"/>
      <point x="463" y="676"/>
      <point x="478" y="711"/>
      <point x="478" y="755" type="curve" smooth="yes"/>
      <point x="478" y="821"/>
      <point x="440" y="869"/>
    </contour>
  </outline>
</glyph>
<glyph name="rrratelu" format="2">
  <advance width="549"/>
  <unicode hex="0C5A"/>
  <outline>
    <contour>
      <point x="389" y="-12" type="curve" smooth="yes"/>
      <point x="463" y="-12"/>
      <point x="515" y="55"/>
      <point x="515" y="207" type="curve" smooth="yes"/>
      <point x="515" y="378"/>
      <point x="429" y="500"/>
      <point x="275" y="500" type="curve" smooth="yes"/>
      <point x="120" y="500"/>
      <point x="34" y="378"/>
      <point x="34" y="205" type="curve" smooth="yes"/>
      <point x="34" y="63"/>
      <point x="79" y="-12"/>
      <point x="159" y="-12" type="curve" smooth="yes"/>
      <point x="207" y="-12"/>
      <point x="252" y="0"/>
      <point x="285" y="90" type="curve"/>
      <point x="264" y="90" type="line"/>
      <point x="298" y="-1"/>
      <point x="342" y="-12"/>
    </contour>
    <contour>
      <point x="379" y="62" type="curve" smooth="yes"/>
      <point x="332" y="62"/>
      <point x="312" y="115"/>
      <point x="309" y="179" type="curve"/>
      <point x="240" y="179" type="line"/>
      <point x="237" y="115"/>
      <point x="217" y="62"/>
      <point x="171" y="62" type="curve" smooth="yes"/>
      <point x="132" y="62"/>
      <point x="110" y="102"/>
      <point x="110" y="204" type="curve" smooth="yes"/>
      <point x="110" y="341"/>
      <point x="167" y="430"/>
      <point x="271" y="430" type="curve" smooth="yes"/>
      <point x="279" y="430" type="line" smooth="yes"/>
      <point x="387" y="430"/>
      <point x="439" y="337"/>
      <point x="439" y="204" type="curve" smooth="yes"/>
      <point x="439" y="98"/>
      <point x="415" y="62"/>
    </contour>
    <contour>
      <point x="61" y="249" type="line"/>
      <point x="465" y="249" type="line"/>
      <point x="465" y="316" type="line"/>
      <point x="81" y="316" type="line"/>
    </contour>
  </outline>
</glyph>
<glyph name="llvocalictelu" format="2">
  <advance width="940"/>
  <unicode hex="0C61"/>
  <outline>
    <contour>
      <point x="426" y="-74" type="curve" smooth="yes"/>
      <point x="571" y="-74"/>
      <point x="648" y="56"/>
      <point x="648" y="222" type="curve" smooth="yes"/>
      <point x="648" y="341"/>
      <point x="611" y="416"/>
      <point x="528" y="494" type="curve"/>
      <point x="475" y="445" type="line"/>
      <point x="532" y="395"/>
      <point x="572" y="322"/>
      <point x="572" y="221" type="curve" smooth="yes"/>
      <point x="572" y="79"/>
      <point x="513" y="0"/>
      <point x="428" y="0" type="curve" smooth="yes"/>
      <point x="378" y="0"/>
      <point x="353" y="31"/>
      <point x="353" y="74" type="curve" smooth="yes"/>
      <point x="353" y="113"/>
      <point x="369" y="147"/>
      <point x="409" y="220" type="curve" smooth="yes"/>
      <point x="438" y="274"/>
      <point x="460" y="325"/>
      <point x="460" y="373" type="curve" smooth="yes"/>
      <point x="460" y="429"/>
      <point x="434" y="500"/>
      <point x="352" y="500" type="curve" smooth="yes"/>
      <point x="294" y="500"/>
      <point x="257" y="472"/>
      <point x="230" y="398" type="curve"/>
      <point x="249" y="398" type="line"/>
      <point x="229" y="473"/>
      <point x="191" y="500"/>
      <point x="141" y="500" type="curve" smooth="yes"/>
      <point x="73" y="500"/>
      <point x="29" y="450"/>
      <point x="29" y="378" type="curve" smooth="yes"/>
      <point x="29" y="334"/>
      <point x="40" y="303"/>
      <point x="52" y="273" type="curve"/>
      <point x="122" y="293" type="line"/>
      <point x="113" y="315"/>
      <point x="105" y="341"/>
      <point x="105" y="373" type="curve" smooth="yes"/>
      <point x="105" y="404"/>
      <point x="119" y="430"/>
      <point x="147" y="430" type="curve" smooth="yes"/>
      <point x="180" y="430"/>
      <point x="203" y="386"/>
      <point x="206" y="310" type="curve"/>
      <point x="275" y="310" type="line"/>
      <point x="277" y="384"/>
      <point x="300" y="430"/>
      <point x="342" y="430" type="curve" smooth="yes"/>
      <point x="372" y="430"/>
      <point x="387" y="406"/>
      <point x="387" y="373" type="curve" smooth="yes"/>
      <point x="387" y="336"/>
      <point x="370" y="297"/>
      <point x="339" y="243" type="curve" smooth="yes"/>
      <point x="299" y="173"/>
      <point x="277" y="127"/>
      <point x="277" y="75" type="curve" smooth="yes"/>
      <point x="277" y="-12"/>
      <point x="328" y="-74"/>
    </contour>
    <contour>
      <point x="815" y="226" type="curve" smooth="yes"/>
      <point x="885" y="226"/>
      <point x="926" y="269"/>
      <point x="926" y="351" type="curve" smooth="yes"/>
      <point x="926" y="407"/>
      <point x="906" y="440"/>
      <point x="879" y="463" type="curve" smooth="yes"/>
      <point x="850" y="487"/>
      <point x="812" y="500"/>
      <point x="732" y="500" type="curve" smooth="yes"/>
      <point x="516" y="500" type="line"/>
      <point x="475" y="445" type="line"/>
      <point x="526" y="430" type="line"/>
      <point x="765" y="430" type="line" smooth="yes"/>
      <point x="837" y="430"/>
      <point x="858" y="391"/>
      <point x="858" y="345" type="curve" smooth="yes"/>
      <point x="858" y="307"/>
      <point x="845" y="285"/>
      <point x="816" y="285" type="curve" smooth="yes"/>
      <point x="789" y="285"/>
      <point x="774" y="303"/>
      <point x="774" y="343" type="curve" smooth="yes"/>
      <point x="774" y="380"/>
      <point x="786" y="413"/>
      <point x="812" y="447" type="curve"/>
      <point x="740" y="446" type="line"/>
      <point x="722" y="421"/>
      <point x="706" y="385"/>
      <point x="706" y="343" type="curve" smooth="yes"/>
      <point x="706" y="280"/>
      <point x="734" y="226"/>
    </contour>
  </outline>
</glyph>
<glyph name="lvocalicvowelsigntelu" format="2">
  <unicode hex="0C62"/>
  <outline>
    <contour>
      <point x="-153" y="-467" type="curve" smooth="yes"/>
      <point x="-51" y="-467"/>
      <point x="14" y="-386"/>
      <point x="14" y="-253" type="curve" smooth="yes"/>
      <point x="14" y="-180"/>
      <point x="-9" y="-115"/>
      <point x="-59" y="-61" type="curve"/>
      <point x="-116" y="-107" type="line"/>
      <point x="-82" y="-141"/>
      <point x="-53" y="-189"/>
      <point x="-53" y="-258" type="curve" smooth="yes"/>
      <point x="-53" y="-341"/>
      <point x="-91" y="-405"/>
      <point x="-148" y="-405" type="curve" smooth="yes"/>
      <point x="-178" y="-405"/>
      <point x="-198" y="-386"/>
      <point x="-198" y="-351" type="curve" smooth="yes"/>
      <point x="-198" y="-320"/>
      <point x="-187" y="-299"/>
      <point x="-162" y="-259" type="curve" smooth="yes"/>
      <point x="-138" y="-221"/>
      <point x="-122" y="-183"/>
      <point x="-122" y="-148" type="curve" smooth="yes"/>
      <point x="-122" y="-104"/>
      <point x="-150" y="-61"/>
      <point x="-204" y="-61" type="curve" smooth="yes"/>
      <point x="-246" y="-61"/>
      <point x="-276" y="-79"/>
      <point x="-295" y="-132" type="curve"/>
      <point x="-279" y="-135" type="line"/>
      <point x="-295" y="-86"/>
      <point x="-322" y="-61"/>
      <point x="-364" y="-61" type="curve" smooth="yes"/>
      <point x="-411" y="-61"/>
      <point x="-449" y="-97"/>
      <point x="-449" y="-154" type="curve" smooth="yes"/>
      <point x="-449" y="-177"/>
      <point x="-443" y="-204"/>
      <point x="-433" y="-229" type="curve"/>
      <point x="-370" y="-212" type="line"/>
      <point x="-377" y="-197"/>
      <point x="-382" y="-177"/>
      <point x="-382" y="-157" type="curve" smooth="yes"/>
      <point x="-382" y="-140"/>
      <point x="-374" y="-122"/>
      <point x="-355" y="-122" type="curve" smooth="yes"/>
      <point x="-331" y="-122"/>
      <point x="-321" y="-147"/>
      <point x="-318" y="-199" type="curve"/>
      <point x="-257" y="-199" type="line"/>
      <point x="-254" y="-151"/>
      <point x="-240" y="-122"/>
      <point x="-214" y="-122" type="curve" smooth="yes"/>
      <point x="-196" y="-122"/>
      <point x="-187" y="-135"/>
      <point x="-187" y="-154" type="curve" smooth="yes"/>
      <point x="-187" y="-177"/>
      <point x="-200" y="-200"/>
      <point x="-220" y="-234" type="curve" smooth="yes"/>
      <point x="-246" y="-277"/>
      <point x="-264" y="-311"/>
      <point x="-264" y="-351" type="curve" smooth="yes"/>
      <point x="-264" y="-419"/>
      <point x="-224" y="-467"/>
    </contour>
  </outline>
</glyph>
<glyph name="llvocalicvowelsigntelu" format="2">
  <advance width="262"/>
  <unicode hex="0C63"/>
  <outline>
    <contour>
      <point x="-153" y="-467" type="curve" smooth="yes"/>
      <point x="-51" y="-467"/>
      <point x="14" y="-386"/>
      <point x="14" y="-253" type="curve" smooth="yes"/>
      <point x="14" y="-165"/>
      <point x="-19" y="-118"/>
      <point x="-72" y="-61" type="curve"/>
      <point x="-116" y="-107" type="line"/>
      <point x="-82" y="-141"/>
      <point x="-53" y="-189"/>
      <point x="-53" y="-258" type="curve" smooth="yes"/>
      <point x="-53" y="-341"/>
      <point x="-91" y="-405"/>
      <point x="-148" y="-405" type="curve" smooth="yes"/>
      <point x="-178" y="-405"/>
      <point x="-198" y="-386"/>
      <point x="-198" y="-351" type="curve" smooth="yes"/>
      <point x="-198" y="-320"/>
      <point x="-187" y="-299"/>
      <point x="-162" y="-259" type="curve" smooth="yes"/>
      <point x="-138" y="-221"/>
      <point x="-122" y="-183"/>
      <point x="-122" y="-148" type="curve" smooth="yes"/>
      <point x="-122" y="-104"/>
      <point x="-150" y="-61"/>
      <point x="-204" y="-61" type="curve" smooth="yes"/>
      <point x="-246" y="-61"/>
      <point x="-276" y="-79"/>
      <point x="-295" y="-132" type="curve"/>
      <point x="-279" y="-135" type="line"/>
      <point x="-295" y="-86"/>
      <point x="-322" y="-61"/>
      <point x="-364" y="-61" type="curve" smooth="yes"/>
      <point x="-411" y="-61"/>
      <point x="-449" y="-97"/>
      <point x="-449" y="-154" type="curve" smooth="yes"/>
      <point x="-449" y="-177"/>
      <point x="-443" y="-204"/>
      <point x="-433" y="-229" type="curve"/>
      <point x="-370" y="-212" type="line"/>
      <point x="-377" y="-197"/>
      <point x="-382" y="-177"/>
      <point x="-382" y="-157" type="curve" smooth="yes"/>
      <point x="-382" y="-140"/>
      <point x="-374" y="-122"/>
      <point x="-355" y="-122" type="curve" smooth="yes"/>
      <point x="-331" y="-122"/>
      <point x="-321" y="-147"/>
      <point x="-318" y="-199" type="curve"/>
      <point x="-257" y="-199" type="line"/>
      <point x="-254" y="-151"/>
      <point x="-240" y="-122"/>
      <point x="-214" y="-122" type="curve" smooth="yes"/>
      <point x="-196" y="-122"/>
      <point x="-187" y="-135"/>
      <point x="-187" y="-154" type="curve" smooth="yes"/>
      <point x="-187" y="-177"/>
      <point x="-200" y="-200"/>
      <point x="-220" y="-234" type="curve" smooth="yes"/>
      <point x="-246" y="-277"/>
      <point x="-264" y="-311"/>
      <point x="-264" y="-351" type="curve" smooth="yes"/>
      <point x="-264" y="-419"/>
      <point x="-224" y="-467"/>
    </contour>
    <contour>
      <point x="159" y="-296" type="curve" smooth="yes"/>
      <point x="218" y="-296"/>
      <point x="262" y="-256"/>
      <point x="262" y="-184" type="curve" smooth="yes"/>
      <point x="262" y="-140"/>
      <point x="245" y="-109"/>
      <point x="217" y="-89" type="curve" smooth="yes"/>
      <point x="189" y="-69"/>
      <point x="153" y="-61"/>
      <point x="93" y="-61" type="curve" smooth="yes"/>
      <point x="-72" y="-61" type="line"/>
      <point x="-61" y="-122" type="line"/>
      <point x="123" y="-122" type="line" smooth="yes"/>
      <point x="179" y="-122"/>
      <point x="199" y="-145"/>
      <point x="199" y="-186" type="curve" smooth="yes"/>
      <point x="199" y="-218"/>
      <point x="186" y="-236"/>
      <point x="161" y="-236" type="curve" smooth="yes"/>
      <point x="134" y="-236"/>
      <point x="119" y="-217"/>
      <point x="119" y="-182" type="curve" smooth="yes"/>
      <point x="119" y="-150"/>
      <point x="133" y="-124"/>
      <point x="155" y="-96" type="curve"/>
      <point x="84" y="-102" type="line"/>
      <point x="70" y="-127"/>
      <point x="56" y="-152"/>
      <point x="56" y="-189" type="curve" smooth="yes"/>
      <point x="56" y="-246"/>
      <point x="89" y="-296"/>
    </contour>
  </outline>
</glyph>
<glyph name="zerotelu" format="2">
  <advance width="518"/>
  <unicode hex="0C66"/>
  <outline>
    <contour>
      <point x="44" y="312" type="curve" smooth="yes"/>
      <point x="44" y="111"/>
      <point x="117" y="-12"/>
      <point x="258" y="-12" type="curve" smooth="yes"/>
      <point x="399" y="-12"/>
      <point x="474" y="100"/>
      <point x="474" y="312" type="curve" smooth="yes"/>
      <point x="474" y="515"/>
      <point x="395" y="633"/>
      <point x="258" y="633" type="curve" smooth="yes"/>
      <point x="120" y="633"/>
      <point x="44" y="515"/>
    </contour>
    <contour>
      <point x="124" y="310" type="curve" smooth="yes"/>
      <point x="124" y="472"/>
      <point x="170" y="556"/>
      <point x="258" y="556" type="curve" smooth="yes"/>
      <point x="347" y="556"/>
      <point x="394" y="473"/>
      <point x="394" y="310" type="curve" smooth="yes"/>
      <point x="394" y="146"/>
      <point x="348" y="65"/>
      <point x="258" y="65" type="curve" smooth="yes"/>
      <point x="168" y="65"/>
      <point x="124" y="147"/>
    </contour>
  </outline>
</glyph>
<glyph name="onetelu" format="2">
  <advance width="509"/>
  <unicode hex="0C67"/>
  <outline>
    <contour>
      <point x="254" y="633" type="curve" smooth="yes"/>
      <point x="111" y="633"/>
      <point x="44" y="500"/>
      <point x="44" y="322" type="curve" smooth="yes"/>
      <point x="44" y="191"/>
      <point x="75" y="84"/>
      <point x="115" y="-8" type="curve"/>
      <point x="193" y="25" type="line"/>
      <point x="155" y="101"/>
      <point x="124" y="192"/>
      <point x="124" y="320" type="curve" smooth="yes"/>
      <point x="124" y="462"/>
      <point x="165" y="556"/>
      <point x="257" y="556" type="curve" smooth="yes"/>
      <point x="351" y="556"/>
      <point x="385" y="449"/>
      <point x="385" y="314" type="curve" smooth="yes"/>
      <point x="385" y="192"/>
      <point x="354" y="101"/>
      <point x="316" y="25" type="curve"/>
      <point x="394" y="-8" type="line"/>
      <point x="434" y="84"/>
      <point x="465" y="194"/>
      <point x="465" y="315" type="curve" smooth="yes"/>
      <point x="465" y="515"/>
      <point x="392" y="633"/>
    </contour>
  </outline>
</glyph>
<glyph name="twotelu" format="2">
  <advance width="583"/>
  <unicode hex="0C68"/>
  <outline>
    <contour>
      <point x="316" y="633" type="curve" smooth="yes"/>
      <point x="211" y="633"/>
      <point x="157" y="561"/>
      <point x="157" y="479" type="curve" smooth="yes"/>
      <point x="157" y="395"/>
      <point x="204" y="344"/>
      <point x="279" y="344" type="curve" smooth="yes"/>
      <point x="351" y="344"/>
      <point x="395" y="380"/>
      <point x="395" y="466" type="curve" smooth="yes"/>
      <point x="395" y="499"/>
      <point x="385" y="535"/>
      <point x="367" y="560" type="curve"/>
      <point x="348" y="585" type="line"/>
      <point x="287" y="573" type="line"/>
      <point x="309" y="548"/>
      <point x="323" y="512"/>
      <point x="323" y="478" type="curve" smooth="yes"/>
      <point x="323" y="430"/>
      <point x="307" y="414"/>
      <point x="278" y="414" type="curve" smooth="yes"/>
      <point x="249" y="414"/>
      <point x="232" y="433"/>
      <point x="232" y="476" type="curve" smooth="yes"/>
      <point x="232" y="525"/>
      <point x="260" y="563"/>
      <point x="309" y="563" type="curve" smooth="yes"/>
      <point x="325" y="563"/>
      <point x="339" y="562"/>
      <point x="357" y="557" type="curve"/>
      <point x="407" y="546"/>
      <point x="459" y="461"/>
      <point x="459" y="308" type="curve" smooth="yes"/>
      <point x="459" y="235"/>
      <point x="451" y="171"/>
      <point x="414" y="129" type="curve" smooth="yes"/>
      <point x="386" y="97"/>
      <point x="340" y="78"/>
      <point x="236" y="78" type="curve" smooth="yes"/>
      <point x="15" y="78" type="line"/>
      <point x="15" y="0" type="line"/>
      <point x="225" y="0" type="line" smooth="yes"/>
      <point x="365" y="0"/>
      <point x="429" y="27"/>
      <point x="474" y="77" type="curve" smooth="yes"/>
      <point x="520" y="129"/>
      <point x="539" y="206"/>
      <point x="539" y="308" type="curve" smooth="yes"/>
      <point x="539" y="489"/>
      <point x="468" y="633"/>
    </contour>
  </outline>
</glyph>
<glyph name="threetelu" format="2">
  <advance width="422"/>
  <unicode hex="0C69"/>
  <outline>
    <contour>
      <point x="198" y="-12" type="curve" smooth="yes"/>
      <point x="323" y="-12"/>
      <point x="382" y="67"/>
      <point x="382" y="162" type="curve" smooth="yes"/>
      <point x="382" y="250"/>
      <point x="334" y="294"/>
      <point x="276" y="317" type="curve"/>
      <point x="274" y="305" type="line"/>
      <point x="343" y="330"/>
      <point x="382" y="384"/>
      <point x="382" y="459" type="curve" smooth="yes"/>
      <point x="382" y="562"/>
      <point x="315" y="633"/>
      <point x="200" y="633" type="curve" smooth="yes"/>
      <point x="127" y="633"/>
      <point x="66" y="606"/>
      <point x="12" y="567" type="curve"/>
      <point x="48" y="495" type="line"/>
      <point x="94" y="530"/>
      <point x="138" y="556"/>
      <point x="195" y="556" type="curve" smooth="yes"/>
      <point x="265" y="556"/>
      <point x="300" y="518"/>
      <point x="300" y="457" type="curve" smooth="yes"/>
      <point x="300" y="417"/>
      <point x="284" y="390"/>
      <point x="259" y="373" type="curve" smooth="yes"/>
      <point x="234" y="356"/>
      <point x="209" y="349"/>
      <point x="152" y="349" type="curve" smooth="yes"/>
      <point x="128" y="349" type="line"/>
      <point x="128" y="274" type="line"/>
      <point x="152" y="274" type="line" smooth="yes"/>
      <point x="206" y="274"/>
      <point x="234" y="266"/>
      <point x="258" y="250" type="curve" smooth="yes"/>
      <point x="284" y="233"/>
      <point x="300" y="207"/>
      <point x="300" y="164" type="curve" smooth="yes"/>
      <point x="300" y="105"/>
      <point x="268" y="65"/>
      <point x="195" y="65" type="curve" smooth="yes"/>
      <point x="134" y="65"/>
      <point x="91" y="94"/>
      <point x="48" y="126" type="curve"/>
      <point x="12" y="54" type="line"/>
      <point x="61" y="19"/>
      <point x="122" y="-12"/>
    </contour>
  </outline>
</glyph>
<glyph name="fourtelu" format="2">
  <advance width="525"/>
  <unicode hex="0C6A"/>
  <outline>
    <contour>
      <point x="261" y="-12" type="curve" smooth="yes"/>
      <point x="327" y="-12"/>
      <point x="391" y="16"/>
      <point x="391" y="99" type="curve" smooth="yes"/>
      <point x="391" y="155"/>
      <point x="363" y="185"/>
      <point x="325" y="204" type="curve"/>
      <point x="293" y="243" type="line"/>
      <point x="173" y="247"/>
      <point x="117" y="305"/>
      <point x="117" y="404" type="curve" smooth="yes"/>
      <point x="117" y="480"/>
      <point x="156" y="529"/>
      <point x="210" y="570" type="curve"/>
      <point x="162" y="633" type="line"/>
      <point x="87" y="576"/>
      <point x="37" y="500"/>
      <point x="37" y="404" type="curve" smooth="yes"/>
      <point x="37" y="282"/>
      <point x="111" y="199"/>
      <point x="216" y="184" type="curve"/>
      <point x="230" y="181" type="line"/>
      <point x="283" y="176"/>
      <point x="315" y="149"/>
      <point x="315" y="110" type="curve" smooth="yes"/>
      <point x="315" y="75"/>
      <point x="293" y="61"/>
      <point x="261" y="61" type="curve" smooth="yes"/>
      <point x="231" y="61"/>
      <point x="209" y="76"/>
      <point x="209" y="110" type="curve" smooth="yes"/>
      <point x="209" y="142"/>
      <point x="233" y="171"/>
      <point x="290" y="181" type="curve"/>
      <point x="309" y="185" type="line"/>
      <point x="414" y="200"/>
      <point x="488" y="282"/>
      <point x="488" y="404" type="curve" smooth="yes"/>
      <point x="488" y="500"/>
      <point x="438" y="576"/>
      <point x="363" y="633" type="curve"/>
      <point x="315" y="570" type="line"/>
      <point x="369" y="529"/>
      <point x="408" y="480"/>
      <point x="408" y="404" type="curve" smooth="yes"/>
      <point x="408" y="305"/>
      <point x="352" y="247"/>
      <point x="231" y="243" type="curve"/>
      <point x="228" y="241"/>
      <point x="214" y="208"/>
      <point x="210" y="206" type="curve"/>
      <point x="164" y="187"/>
      <point x="133" y="155"/>
      <point x="133" y="99" type="curve" smooth="yes"/>
      <point x="133" y="19"/>
      <point x="196" y="-12"/>
    </contour>
  </outline>
</glyph>
<glyph name="fivetelu" format="2">
  <advance width="554"/>
  <unicode hex="0C6B"/>
  <outline>
    <contour>
      <point x="182" y="-12" type="curve" smooth="yes"/>
      <point x="321" y="-12"/>
      <point x="376" y="111"/>
      <point x="376" y="312" type="curve" smooth="yes"/>
      <point x="376" y="521"/>
      <point x="313" y="633"/>
      <point x="182" y="633" type="curve" smooth="yes"/>
      <point x="112" y="633"/>
      <point x="52" y="610"/>
      <point x="14" y="582" type="curve"/>
      <point x="50" y="510" type="line"/>
      <point x="90" y="540"/>
      <point x="134" y="556"/>
      <point x="174" y="556" type="curve" smooth="yes"/>
      <point x="256" y="556"/>
      <point x="298" y="489"/>
      <point x="298" y="311" type="curve" smooth="yes"/>
      <point x="298" y="158"/>
      <point x="271" y="65"/>
      <point x="174" y="65" type="curve" smooth="yes"/>
      <point x="134" y="65"/>
      <point x="90" y="81"/>
      <point x="50" y="111" type="curve"/>
      <point x="14" y="39" type="line"/>
      <point x="46" y="16"/>
      <point x="108" y="-12"/>
    </contour>
    <contour>
      <point x="516" y="169" type="curve" smooth="yes"/>
      <point x="516" y="240"/>
      <point x="480" y="289"/>
      <point x="427" y="316" type="curve"/>
      <point x="428" y="304" type="line"/>
      <point x="476" y="331"/>
      <point x="516" y="375"/>
      <point x="516" y="453" type="curve" smooth="yes"/>
      <point x="516" y="513"/>
      <point x="491" y="580"/>
      <point x="447" y="632" type="curve"/>
      <point x="376" y="593" type="line"/>
      <point x="417" y="543"/>
      <point x="436" y="494"/>
      <point x="436" y="443" type="curve" smooth="yes"/>
      <point x="436" y="396"/>
      <point x="412" y="354"/>
      <point x="367" y="354" type="curve"/>
      <point x="366" y="265" type="line"/>
      <point x="415" y="263"/>
      <point x="436" y="225"/>
      <point x="436" y="179" type="curve" smooth="yes"/>
      <point x="436" y="127"/>
      <point x="417" y="78"/>
      <point x="376" y="28" type="curve"/>
      <point x="447" y="-11" type="line"/>
      <point x="491" y="42"/>
      <point x="516" y="108"/>
    </contour>
  </outline>
</glyph>
<glyph name="sixtelu" format="2">
  <advance width="521"/>
  <unicode hex="0C6C"/>
  <outline>
    <contour>
      <point x="40" y="163" type="curve" smooth="yes"/>
      <point x="40" y="117"/>
      <point x="63" y="75"/>
      <point x="94" y="50" type="curve" smooth="yes"/>
      <point x="139" y="14"/>
      <point x="191" y="0"/>
      <point x="318" y="0" type="curve" smooth="yes"/>
      <point x="506" y="0" type="line"/>
      <point x="506" y="78" type="line"/>
      <point x="295" y="78" type="line" smooth="yes"/>
      <point x="221" y="78"/>
      <point x="181" y="82"/>
      <point x="152" y="105" type="curve" smooth="yes"/>
      <point x="134" y="120"/>
      <point x="120" y="141"/>
      <point x="120" y="176" type="curve" smooth="yes"/>
      <point x="120" y="207"/>
      <point x="132" y="229"/>
      <point x="150" y="243" type="curve" smooth="yes"/>
      <point x="178" y="265"/>
      <point x="224" y="271"/>
      <point x="285" y="271" type="curve" smooth="yes"/>
      <point x="350" y="271" type="line"/>
      <point x="350" y="349" type="line"/>
      <point x="285" y="349" type="line" smooth="yes"/>
      <point x="223" y="349"/>
      <point x="194" y="355"/>
      <point x="168" y="369" type="curve" smooth="yes"/>
      <point x="141" y="384"/>
      <point x="125" y="407"/>
      <point x="125" y="447" type="curve" smooth="yes"/>
      <point x="125" y="481"/>
      <point x="137" y="499"/>
      <point x="152" y="512" type="curve" smooth="yes"/>
      <point x="175" y="532"/>
      <point x="210" y="539"/>
      <point x="244" y="540" type="curve" smooth="yes"/>
      <point x="247" y="540" type="line"/>
      <point x="247" y="620" type="line"/>
      <point x="245" y="620" type="line" smooth="yes"/>
      <point x="195" y="619"/>
      <point x="146" y="607"/>
      <point x="110" y="582" type="curve" smooth="yes"/>
      <point x="70" y="555"/>
      <point x="45" y="514"/>
      <point x="45" y="454" type="curve" smooth="yes"/>
      <point x="45" y="378"/>
      <point x="88" y="330"/>
      <point x="148" y="302" type="curve"/>
      <point x="149" y="320" type="line"/>
      <point x="81" y="287"/>
      <point x="40" y="246"/>
    </contour>
  </outline>
</glyph>
<glyph name="seventelu" format="2">
  <advance width="443"/>
  <unicode hex="0C6D"/>
  <outline>
    <contour>
      <point x="227" y="-12" type="curve" smooth="yes"/>
      <point x="368" y="-12"/>
      <point x="408" y="69"/>
      <point x="408" y="137" type="curve" smooth="yes"/>
      <point x="408" y="179"/>
      <point x="401" y="207"/>
      <point x="387" y="234" type="curve"/>
      <point x="314" y="213" type="line"/>
      <point x="321" y="198"/>
      <point x="328" y="175"/>
      <point x="328" y="155" type="curve" smooth="yes"/>
      <point x="328" y="100"/>
      <point x="301" y="63"/>
      <point x="223" y="63" type="curve" smooth="yes"/>
      <point x="153" y="63"/>
      <point x="119" y="103"/>
      <point x="119" y="155" type="curve" smooth="yes"/>
      <point x="119" y="213"/>
      <point x="145" y="244"/>
      <point x="257" y="297" type="curve" smooth="yes"/>
      <point x="366" y="349"/>
      <point x="398" y="400"/>
      <point x="398" y="477" type="curve" smooth="yes"/>
      <point x="398" y="546"/>
      <point x="361" y="633"/>
      <point x="225" y="633" type="curve" smooth="yes"/>
      <point x="98" y="633"/>
      <point x="46" y="559"/>
      <point x="46" y="491" type="curve" smooth="yes"/>
      <point x="46" y="455"/>
      <point x="54" y="424"/>
      <point x="69" y="394" type="curve"/>
      <point x="140" y="420" type="line"/>
      <point x="135" y="430"/>
      <point x="126" y="452"/>
      <point x="126" y="479" type="curve" smooth="yes"/>
      <point x="126" y="524"/>
      <point x="156" y="558"/>
      <point x="224" y="558" type="curve" smooth="yes"/>
      <point x="288" y="558"/>
      <point x="318" y="528"/>
      <point x="318" y="477" type="curve" smooth="yes"/>
      <point x="318" y="421"/>
      <point x="282" y="397"/>
      <point x="194" y="354" type="curve" smooth="yes"/>
      <point x="104" y="310"/>
      <point x="39" y="258"/>
      <point x="39" y="164" type="curve" smooth="yes"/>
      <point x="39" y="71"/>
      <point x="90" y="-12"/>
    </contour>
  </outline>
</glyph>
<glyph name="eighttelu" format="2">
  <advance width="594"/>
  <unicode hex="0C6E"/>
  <outline>
    <contour>
      <point x="250" y="-12" type="curve" smooth="yes"/>
      <point x="397" y="-12"/>
      <point x="460" y="111"/>
      <point x="460" y="299" type="curve" smooth="yes"/>
      <point x="460" y="400"/>
      <point x="423" y="491"/>
      <point x="382" y="543" type="curve"/>
      <point x="579" y="543" type="line"/>
      <point x="579" y="620" type="line"/>
      <point x="315" y="620" type="line"/>
      <point x="284" y="555" type="line"/>
      <point x="345" y="494"/>
      <point x="380" y="396"/>
      <point x="380" y="290" type="curve" smooth="yes"/>
      <point x="380" y="137"/>
      <point x="334" y="65"/>
      <point x="250" y="65" type="curve" smooth="yes"/>
      <point x="154" y="65"/>
      <point x="122" y="153"/>
      <point x="122" y="287" type="curve" smooth="yes"/>
      <point x="122" y="381"/>
      <point x="154" y="466"/>
      <point x="193" y="527" type="curve"/>
      <point x="125" y="570" type="line"/>
      <point x="74" y="494"/>
      <point x="42" y="386"/>
      <point x="42" y="281" type="curve" smooth="yes"/>
      <point x="42" y="91"/>
      <point x="122" y="-12"/>
    </contour>
  </outline>
</glyph>
<glyph name="ninetelu" format="2">
  <advance width="521"/>
  <unicode hex="0C6F"/>
  <outline>
    <contour>
      <point x="45" y="166" type="curve" smooth="yes"/>
      <point x="45" y="106"/>
      <point x="70" y="65"/>
      <point x="110" y="38" type="curve" smooth="yes"/>
      <point x="146" y="13"/>
      <point x="195" y="1"/>
      <point x="245" y="0" type="curve" smooth="yes"/>
      <point x="247" y="0" type="line"/>
      <point x="247" y="80" type="line"/>
      <point x="244" y="80" type="line"/>
      <point x="210" y="81"/>
      <point x="175" y="88"/>
      <point x="152" y="108" type="curve" smooth="yes"/>
      <point x="137" y="121"/>
      <point x="125" y="139"/>
      <point x="125" y="173" type="curve" smooth="yes"/>
      <point x="125" y="213"/>
      <point x="141" y="236"/>
      <point x="168" y="251" type="curve" smooth="yes"/>
      <point x="194" y="265"/>
      <point x="223" y="271"/>
      <point x="285" y="271" type="curve" smooth="yes"/>
      <point x="350" y="271" type="line"/>
      <point x="350" y="349" type="line"/>
      <point x="285" y="349" type="line" smooth="yes"/>
      <point x="224" y="349"/>
      <point x="178" y="355"/>
      <point x="150" y="377" type="curve" smooth="yes"/>
      <point x="132" y="391"/>
      <point x="120" y="413"/>
      <point x="120" y="444" type="curve" smooth="yes"/>
      <point x="120" y="479"/>
      <point x="134" y="500"/>
      <point x="152" y="515" type="curve" smooth="yes"/>
      <point x="181" y="538"/>
      <point x="221" y="542"/>
      <point x="295" y="542" type="curve" smooth="yes"/>
      <point x="506" y="542" type="line"/>
      <point x="506" y="620" type="line"/>
      <point x="318" y="620" type="line" smooth="yes"/>
      <point x="191" y="620"/>
      <point x="141" y="609"/>
      <point x="94" y="570" type="curve" smooth="yes"/>
      <point x="63" y="545"/>
      <point x="40" y="501"/>
      <point x="40" y="460" type="curve" smooth="yes"/>
      <point x="40" y="374"/>
      <point x="83" y="331"/>
      <point x="149" y="298" type="curve"/>
      <point x="148" y="318" type="line"/>
      <point x="88" y="290"/>
      <point x="45" y="242"/>
    </contour>
  </outline>
</glyph>
<glyph name="uni0C77" format="2">
  <advance width="901"/>
  <unicode hex="0C77"/>
  <outline>
    <contour>
      <point x="131" y="489" type="curve"/>
      <point x="57" y="493" type="line"/>
      <point x="48" y="433"/>
      <point x="43" y="375"/>
      <point x="43" y="319" type="curve" smooth="yes"/>
      <point x="43" y="-23"/>
      <point x="194" y="-214"/>
      <point x="458" y="-214" type="curve" smooth="yes"/>
      <point x="694" y="-214"/>
      <point x="858" y="-69"/>
      <point x="858" y="248" type="curve" smooth="yes"/>
      <point x="858" y="545"/>
      <point x="710" y="682"/>
      <point x="526" y="682" type="curve" smooth="yes"/>
      <point x="337" y="682"/>
      <point x="218" y="543"/>
      <point x="218" y="334" type="curve" smooth="yes"/>
      <point x="218" y="147"/>
      <point x="313" y="40"/>
      <point x="459" y="40" type="curve" smooth="yes"/>
      <point x="602" y="40"/>
      <point x="688" y="121"/>
      <point x="688" y="268" type="curve" smooth="yes"/>
      <point x="688" y="389"/>
      <point x="619" y="472"/>
      <point x="520" y="472" type="curve" smooth="yes"/>
      <point x="424" y="472"/>
      <point x="373" y="406"/>
      <point x="373" y="334" type="curve" smooth="yes"/>
      <point x="373" y="256"/>
      <point x="418" y="206"/>
      <point x="485" y="206" type="curve" smooth="yes"/>
      <point x="523" y="206"/>
      <point x="549" y="216"/>
      <point x="569" y="232" type="curve"/>
      <point x="540" y="289" type="line"/>
      <point x="524" y="279"/>
      <point x="512" y="273"/>
      <point x="487" y="273" type="curve" smooth="yes"/>
      <point x="458" y="273"/>
      <point x="445" y="297"/>
      <point x="445" y="334" type="curve" smooth="yes"/>
      <point x="445" y="379"/>
      <point x="468" y="407"/>
      <point x="518" y="407" type="curve" smooth="yes"/>
      <point x="583" y="407"/>
      <point x="613" y="352"/>
      <point x="613" y="268" type="curve" smooth="yes"/>
      <point x="613" y="164"/>
      <point x="566" y="106"/>
      <point x="459" y="106" type="curve" smooth="yes"/>
      <point x="350" y="106"/>
      <point x="293" y="189"/>
      <point x="293" y="333" type="curve" smooth="yes"/>
      <point x="293" y="526"/>
      <point x="390" y="614"/>
      <point x="526" y="614" type="curve" smooth="yes"/>
      <point x="694" y="614"/>
      <point x="781" y="471"/>
      <point x="781" y="248" type="curve" smooth="yes"/>
      <point x="781" y="2"/>
      <point x="673" y="-143"/>
      <point x="459" y="-143" type="curve" smooth="yes"/>
      <point x="233" y="-143"/>
      <point x="118" y="29"/>
      <point x="118" y="324" type="curve" smooth="yes"/>
      <point x="118" y="382"/>
      <point x="121" y="433"/>
    </contour>
  </outline>
</glyph>
<glyph name="uni0C78" format="2">
  <advance width="481"/>
  <unicode hex="0C78"/>
  <outline>
    <contour>
      <point x="39" y="373" type="curve" smooth="yes"/>
      <point x="39" y="210"/>
      <point x="116" y="121"/>
      <point x="236" y="121" type="curve" smooth="yes"/>
      <point x="357" y="121"/>
      <point x="433" y="210"/>
      <point x="433" y="374" type="curve" smooth="yes"/>
      <point x="433" y="543"/>
      <point x="355" y="633"/>
      <point x="236" y="633" type="curve" smooth="yes"/>
      <point x="118" y="633"/>
      <point x="39" y="539"/>
    </contour>
    <contour>
      <point x="119" y="375" type="curve" smooth="yes"/>
      <point x="119" y="484"/>
      <point x="157" y="556"/>
      <point x="236" y="556" type="curve" smooth="yes"/>
      <point x="315" y="556"/>
      <point x="353" y="484"/>
      <point x="353" y="373" type="curve" smooth="yes"/>
      <point x="353" y="256"/>
      <point x="313" y="198"/>
      <point x="236" y="198" type="curve" smooth="yes"/>
      <point x="159" y="198"/>
      <point x="119" y="263"/>
    </contour>
    <contour>
      <point x="439" y="98" type="curve" smooth="yes"/>
      <point x="439" y="161"/>
      <point x="410" y="207"/>
      <point x="364" y="255" type="curve"/>
      <point x="304" y="202" type="line"/>
      <point x="337" y="166"/>
      <point x="361" y="136"/>
      <point x="361" y="95" type="curve" smooth="yes"/>
      <point x="361" y="45"/>
      <point x="330" y="10"/>
      <point x="256" y="-28" type="curve"/>
      <point x="299" y="-101" type="line"/>
      <point x="387" y="-46"/>
      <point x="439" y="-1"/>
    </contour>
  </outline>
</glyph>
<glyph name="uni0C79" format="2">
  <advance width="224"/>
  <unicode hex="0C79"/>
  <outline>
    <contour>
      <point x="152" y="0" type="line"/>
      <point x="152" y="620" type="line"/>
      <point x="72" y="620" type="line"/>
      <point x="72" y="0" type="line"/>
    </contour>
  </outline>
</glyph>
<glyph name="uni0C7A" format="2">
  <advance width="384"/>
  <unicode hex="0C7A"/>
  <outline>
    <contour>
      <point x="170" y="217" type="curve" smooth="yes"/>
      <point x="219" y="217"/>
      <point x="244" y="246"/>
      <point x="266" y="287" type="curve"/>
      <point x="300" y="388" type="line"/>
      <point x="300" y="620" type="line"/>
      <point x="232" y="620" type="line"/>
      <point x="232" y="375" type="line" smooth="yes"/>
      <point x="232" y="340"/>
      <point x="228" y="323"/>
      <point x="221" y="312" type="curve" smooth="yes"/>
      <point x="212" y="298"/>
      <point x="198" y="294"/>
      <point x="182" y="294" type="curve" smooth="yes"/>
      <point x="166" y="294"/>
      <point x="154" y="299"/>
      <point x="146" y="310" type="curve" smooth="yes"/>
      <point x="138" y="322"/>
      <point x="134" y="340"/>
      <point x="134" y="381" type="curve" smooth="yes"/>
      <point x="134" y="620" type="line"/>
      <point x="54" y="620" type="line"/>
      <point x="54" y="397" type="line" smooth="yes"/>
      <point x="54" y="310"/>
      <point x="64" y="281"/>
      <point x="84" y="254" type="curve" smooth="yes"/>
      <point x="104" y="228"/>
      <point x="131" y="217"/>
    </contour>
    <contour>
      <point x="312" y="0" type="line"/>
      <point x="312" y="620" type="line"/>
      <point x="232" y="620" type="line"/>
      <point x="232" y="0" type="line"/>
    </contour>
  </outline>
</glyph>
<glyph name="uni0C7B" format="2">
  <advance width="536"/>
  <unicode hex="0C7B"/>
  <outline>
    <contour>
      <point x="328" y="217" type="curve" smooth="yes"/>
      <point x="374" y="217"/>
      <point x="399" y="245"/>
      <point x="421" y="288" type="curve"/>
      <point x="455" y="388" type="line"/>
      <point x="455" y="620" type="line"/>
      <point x="384" y="620" type="line"/>
      <point x="384" y="376" type="line" smooth="yes"/>
      <point x="384" y="348"/>
      <point x="383" y="323"/>
      <point x="370" y="307" type="curve" smooth="yes"/>
      <point x="363" y="299"/>
      <point x="354" y="294"/>
      <point x="340" y="294" type="curve" smooth="yes"/>
      <point x="326" y="294"/>
      <point x="317" y="299"/>
      <point x="311" y="307" type="curve" smooth="yes"/>
      <point x="301" y="321"/>
      <point x="299" y="340"/>
      <point x="299" y="385" type="curve" smooth="yes"/>
      <point x="299" y="620" type="line"/>
      <point x="219" y="620" type="line"/>
      <point x="219" y="403" type="line" smooth="yes"/>
      <point x="219" y="330"/>
      <point x="225" y="283"/>
      <point x="253" y="249" type="curve" smooth="yes"/>
      <point x="269" y="230"/>
      <point x="296" y="217"/>
    </contour>
    <contour>
      <point x="464" y="0" type="line"/>
      <point x="464" y="620" type="line"/>
      <point x="384" y="620" type="line"/>
      <point x="384" y="0" type="line"/>
    </contour>
    <contour>
      <point x="163" y="217" type="curve" smooth="yes"/>
      <point x="212" y="217"/>
      <point x="242" y="245"/>
      <point x="261" y="287" type="curve"/>
      <point x="290" y="388" type="line"/>
      <point x="290" y="620" type="line"/>
      <point x="219" y="620" type="line"/>
      <point x="219" y="376" type="line" smooth="yes"/>
      <point x="219" y="348"/>
      <point x="218" y="323"/>
      <point x="205" y="307" type="curve" smooth="yes"/>
      <point x="198" y="299"/>
      <point x="189" y="294"/>
      <point x="175" y="294" type="curve" smooth="yes"/>
      <point x="161" y="294"/>
      <point x="152" y="299"/>
      <point x="146" y="307" type="curve" smooth="yes"/>
      <point x="136" y="321"/>
      <point x="134" y="340"/>
      <point x="134" y="385" type="curve" smooth="yes"/>
      <point x="134" y="620" type="line"/>
      <point x="54" y="620" type="line"/>
      <point x="54" y="402" type="line" smooth="yes"/>
      <point x="54" y="321"/>
      <point x="59" y="283"/>
      <point x="83" y="252" type="curve" smooth="yes"/>
      <point x="101" y="230"/>
      <point x="127" y="217"/>
    </contour>
  </outline>
</glyph>
<glyph name="uni0C7C" format="2">
  <advance width="461"/>
  <unicode hex="0C7C"/>
  <outline>
    <contour>
      <point x="32" y="276" type="line"/>
      <point x="429" y="276" type="line"/>
      <point x="429" y="353" type="line"/>
      <point x="32" y="353" type="line"/>
    </contour>
  </outline>
</glyph>
<glyph name="uni0C7D" format="2">
  <advance width="448"/>
  <unicode hex="0C7D"/>
  <outline>
    <contour>
      <point x="40" y="128" type="curve" smooth="yes"/>
      <point x="40" y="90"/>
      <point x="53" y="58"/>
      <point x="81" y="36" type="curve" smooth="yes"/>
      <point x="110" y="13"/>
      <point x="144" y="0"/>
      <point x="232" y="0" type="curve" smooth="yes"/>
      <point x="431" y="0" type="line"/>
      <point x="431" y="77" type="line"/>
      <point x="223" y="77" type="line" smooth="yes"/>
      <point x="162" y="77"/>
      <point x="121" y="83"/>
      <point x="121" y="130" type="curve" smooth="yes"/>
      <point x="121" y="173"/>
      <point x="156" y="190"/>
      <point x="247" y="224" type="curve" smooth="yes"/>
      <point x="325" y="253"/>
      <point x="392" y="290"/>
      <point x="392" y="378" type="curve" smooth="yes"/>
      <point x="392" y="416"/>
      <point x="377" y="449"/>
      <point x="349" y="469" type="curve" smooth="yes"/>
      <point x="322" y="489"/>
      <point x="290" y="500"/>
      <point x="207" y="500" type="curve" smooth="yes"/>
      <point x="41" y="500" type="line"/>
      <point x="41" y="426" type="line"/>
      <point x="215" y="426" type="line" smooth="yes"/>
      <point x="288" y="426"/>
      <point x="311" y="411"/>
      <point x="311" y="376" type="curve" smooth="yes"/>
      <point x="311" y="335"/>
      <point x="276" y="320"/>
      <point x="196" y="288" type="curve" smooth="yes"/>
      <point x="125" y="260"/>
      <point x="40" y="226"/>
    </contour>
  </outline>
</glyph>
<glyph name="uni0C7E" format="2">
  <advance width="448"/>
  <unicode hex="0C7E"/>
  <outline>
    <contour>
      <point x="40" y="93" type="curve" smooth="yes"/>
      <point x="40" y="61"/>
      <point x="53" y="36"/>
      <point x="78" y="21" type="curve" smooth="yes"/>
      <point x="101" y="7"/>
      <point x="130" y="0"/>
      <point x="195" y="0" type="curve" smooth="yes"/>
      <point x="431" y="0" type="line"/>
      <point x="431" y="77" type="line"/>
      <point x="159" y="77" type="line" smooth="yes"/>
      <point x="133" y="77"/>
      <point x="121" y="83"/>
      <point x="121" y="98" type="curve" smooth="yes"/>
      <point x="121" y="115"/>
      <point x="129" y="123"/>
      <point x="233" y="149" type="curve" smooth="yes"/>
      <point x="359" y="181"/>
      <point x="392" y="212"/>
      <point x="392" y="271" type="curve" smooth="yes"/>
      <point x="392" y="299"/>
      <point x="381" y="320"/>
      <point x="360" y="334" type="curve" smooth="yes"/>
      <point x="338" y="348"/>
      <point x="315" y="356"/>
      <point x="255" y="356" type="curve" smooth="yes"/>
      <point x="153" y="356" type="line" smooth="yes"/>
      <point x="131" y="356"/>
      <point x="121" y="361"/>
      <point x="121" y="373" type="curve" smooth="yes"/>
      <point x="121" y="390"/>
      <point x="133" y="398"/>
      <point x="232" y="424" type="curve" smooth="yes"/>
      <point x="355" y="456"/>
      <point x="392" y="486"/>
      <point x="392" y="544" type="curve" smooth="yes"/>
      <point x="392" y="578"/>
      <point x="379" y="600"/>
      <point x="354" y="614" type="curve" smooth="yes"/>
      <point x="329" y="627"/>
      <point x="307" y="633"/>
      <point x="236" y="633" type="curve" smooth="yes"/>
      <point x="41" y="633" type="line"/>
      <point x="41" y="560" type="line"/>
      <point x="273" y="560" type="line" smooth="yes"/>
      <point x="299" y="560"/>
      <point x="311" y="554"/>
      <point x="311" y="539" type="curve" smooth="yes"/>
      <point x="311" y="522"/>
      <point x="303" y="514"/>
      <point x="199" y="488" type="curve" smooth="yes"/>
      <point x="73" y="456"/>
      <point x="40" y="425"/>
      <point x="40" y="366" type="curve" smooth="yes"/>
      <point x="40" y="338"/>
      <point x="51" y="317"/>
      <point x="72" y="303" type="curve" smooth="yes"/>
      <point x="94" y="289"/>
      <point x="117" y="282"/>
      <point x="177" y="282" type="curve" smooth="yes"/>
      <point x="279" y="282" type="line" smooth="yes"/>
      <point x="301" y="282"/>
      <point x="311" y="277"/>
      <point x="311" y="264" type="curve" smooth="yes"/>
      <point x="311" y="247"/>
      <point x="299" y="239"/>
      <point x="200" y="213" type="curve" smooth="yes"/>
      <point x="77" y="181"/>
      <point x="40" y="151"/>
    </contour>
  </outline>
</glyph>
<glyph name="uni0C7F" format="2">
  <advance width="567"/>
  <unicode hex="0C7F"/>
  <outline>
    <contour>
      <point x="255" y="-12" type="curve" smooth="yes"/>
      <point x="430" y="-12"/>
      <point x="504" y="128"/>
      <point x="542" y="311" type="curve"/>
      <point x="465" y="335" type="line"/>
      <point x="427" y="155"/>
      <point x="373" y="63"/>
      <point x="260" y="63" type="curve" smooth="yes"/>
      <point x="170" y="63"/>
      <point x="118" y="128"/>
      <point x="118" y="248" type="curve" smooth="yes"/>
      <point x="118" y="261" type="line" smooth="yes"/>
      <point x="118" y="364"/>
      <point x="145" y="431"/>
      <point x="192" y="431" type="curve" smooth="yes"/>
      <point x="215" y="431"/>
      <point x="230" y="412"/>
      <point x="230" y="372" type="curve" smooth="yes"/>
      <point x="230" y="327"/>
      <point x="210" y="301"/>
      <point x="170" y="301" type="curve" smooth="yes"/>
      <point x="134" y="301"/>
      <point x="109" y="323"/>
      <point x="89" y="343" type="curve"/>
      <point x="68" y="288" type="line"/>
      <point x="89" y="260"/>
      <point x="131" y="233"/>
      <point x="176" y="233" type="curve" smooth="yes"/>
      <point x="270" y="233"/>
      <point x="306" y="292"/>
      <point x="306" y="374" type="curve" smooth="yes"/>
      <point x="306" y="452"/>
      <point x="266" y="500"/>
      <point x="200" y="500" type="curve" smooth="yes"/>
      <point x="111" y="500"/>
      <point x="43" y="417"/>
      <point x="43" y="257" type="curve" smooth="yes"/>
      <point x="43" y="93"/>
      <point x="120" y="-12"/>
    </contour>
  </outline>
</glyph>
<glyph name="uni1CDA" format="2">
  <unicode hex="1CDA"/>
  <outline>
    <contour>
      <point x="-312" y="607" type="line"/>
      <point x="-312" y="808" type="line"/>
      <point x="-370" y="808" type="line"/>
      <point x="-370" y="607" type="line"/>
    </contour>
    <contour>
      <point x="-202" y="607" type="line"/>
      <point x="-202" y="808" type="line"/>
      <point x="-260" y="808" type="line"/>
      <point x="-260" y="607" type="line"/>
    </contour>
  </outline>
</glyph>
<glyph name="uni1CF2" format="2">
  <advance width="398"/>
  <unicode hex="1CF2"/>
  <outline>
    <contour>
      <point x="199" y="247" type="curve" smooth="yes"/>
      <point x="285" y="247"/>
      <point x="348" y="296"/>
      <point x="374" y="437" type="curve"/>
      <point x="298" y="454" type="line"/>
      <point x="280" y="362"/>
      <point x="257" y="321"/>
      <point x="199" y="321" type="curve" smooth="yes"/>
      <point x="141" y="321"/>
      <point x="118" y="362"/>
      <point x="100" y="454" type="curve"/>
      <point x="24" y="437" type="line"/>
      <point x="50" y="296"/>
      <point x="113" y="247"/>
    </contour>
    <contour>
      <point x="199" y="203" type="curve" smooth="yes"/>
      <point x="113" y="203"/>
      <point x="50" y="154"/>
      <point x="24" y="13" type="curve"/>
      <point x="99" y="-4" type="line"/>
      <point x="118" y="88"/>
      <point x="141" y="129"/>
      <point x="199" y="129" type="curve" smooth="yes"/>
      <point x="257" y="129"/>
      <point x="280" y="88"/>
      <point x="298" y="-4" type="curve"/>
      <point x="374" y="13" type="line"/>
      <point x="348" y="154"/>
      <point x="285" y="203"/>
    </contour>
  </outline>
</glyph>
<glyph name="endash.telu" format="2">
  <advance width="500"/>
  <unicode hex="2013"/>
  <outline>
    <contour>
      <point x="38" y="218" type="line"/>
      <point x="462" y="218" type="line"/>
      <point x="462" y="288" type="line"/>
      <point x="38" y="288" type="line"/>
    </contour>
  </outline>
</glyph>
<glyph name="emdash.telu" format="2">
  <advance width="1000"/>
  <unicode hex="2014"/>
  <outline>
    <contour>
      <point x="38" y="218" type="line"/>
      <point x="962" y="218" type="line"/>
      <point x="962" y="288" type="line"/>
      <point x="38" y="288" type="line"/>
    </contour>
  </outline>
</glyph>
<glyph name="quoteleft.telu" format="2">
  <advance width="242"/>
  <unicode hex="2018"/>
  <outline>
    <contour>
      <point x="58" y="527" type="line"/>
      <point x="145" y="527" type="line"/>
      <point x="152" y="598"/>
      <point x="168" y="690"/>
      <point x="190" y="773" type="curve"/>
      <point x="129" y="773" type="line"/>
      <point x="97" y="701"/>
      <point x="71" y="622"/>
      <point x="52" y="538" type="curve"/>
    </contour>
  </outline>
</glyph>
<glyph name="quoteright.telu" format="2">
  <advance width="242"/>
  <unicode hex="2019"/>
  <outline>
    <contour>
      <point x="183" y="773" type="line"/>
      <point x="97" y="773" type="line"/>
      <point x="91" y="704"/>
      <point x="73" y="607"/>
      <point x="52" y="527" type="curve"/>
      <point x="114" y="527" type="line"/>
      <point x="146" y="602"/>
      <point x="171" y="679"/>
      <point x="190" y="762" type="curve"/>
    </contour>
  </outline>
</glyph>
<glyph name="quotedblleft.telu" format="2">
  <advance width="408"/>
  <unicode hex="201C"/>
  <outline>
    <contour>
      <point x="224" y="527" type="line"/>
      <point x="311" y="527" type="line"/>
      <point x="318" y="602"/>
      <point x="335" y="689"/>
      <point x="356" y="773" type="curve"/>
      <point x="294" y="773" type="line"/>
      <point x="263" y="701"/>
      <point x="238" y="622"/>
      <point x="218" y="538" type="curve"/>
    </contour>
    <contour>
      <point x="58" y="527" type="line"/>
      <point x="145" y="527" type="line"/>
      <point x="152" y="598"/>
      <point x="168" y="690"/>
      <point x="190" y="773" type="curve"/>
      <point x="129" y="773" type="line"/>
      <point x="97" y="701"/>
      <point x="71" y="622"/>
      <point x="52" y="538" type="curve"/>
    </contour>
  </outline>
</glyph>
<glyph name="quotedblright.telu" format="2">
  <advance width="408"/>
  <unicode hex="201D"/>
  <outline>
    <contour>
      <point x="349" y="773" type="line"/>
      <point x="264" y="773" type="line"/>
      <point x="256" y="697"/>
      <point x="241" y="614"/>
      <point x="218" y="527" type="curve"/>
      <point x="280" y="527" type="line"/>
      <point x="312" y="602"/>
      <point x="337" y="679"/>
      <point x="356" y="762" type="curve"/>
    </contour>
    <contour>
      <point x="183" y="773" type="line"/>
      <point x="97" y="773" type="line"/>
      <point x="91" y="704"/>
      <point x="73" y="607"/>
      <point x="52" y="527" type="curve"/>
      <point x="114" y="527" type="line"/>
      <point x="146" y="602"/>
      <point x="171" y="679"/>
      <point x="190" y="762" type="curve"/>
    </contour>
  </outline>
</glyph>
<glyph name="uni20B9.telu" format="2">
  <advance width="429"/>
  <unicode hex="20B9"/>
  <outline>
    <contour>
      <point x="202" y="0" type="line"/>
      <point x="294" y="0" type="line"/>
      <point x="135" y="253" type="line"/>
      <point x="222" y="272"/>
      <point x="264" y="327"/>
      <point x="270" y="424" type="curve"/>
      <point x="379" y="424" type="line"/>
      <point x="379" y="489" type="line"/>
      <point x="268" y="489" type="line"/>
      <point x="262" y="538"/>
      <point x="244" y="567"/>
      <point x="223" y="586" type="curve"/>
      <point x="379" y="586" type="line"/>
      <point x="379" y="651" type="line"/>
      <point x="55" y="651" type="line"/>
      <point x="55" y="586" type="line"/>
      <point x="75" y="586" type="line" smooth="yes"/>
      <point x="125" y="586"/>
      <point x="149" y="575"/>
      <point x="165" y="558" type="curve" smooth="yes"/>
      <point x="181" y="541"/>
      <point x="188" y="519"/>
      <point x="191" y="489" type="curve"/>
      <point x="55" y="489" type="line"/>
      <point x="55" y="424" type="line"/>
      <point x="192" y="424" type="line"/>
      <point x="187" y="355"/>
      <point x="172" y="318"/>
      <point x="76" y="318" type="curve" smooth="yes"/>
      <point x="65" y="318" type="line"/>
      <point x="55" y="248" type="line"/>
    </contour>
  </outline>
</glyph>
<glyph name="minus.telu" format="2">
  <advance width="429"/>
  <unicode hex="2212"/>
  <outline>
    <contour>
      <point x="30" y="292" type="line"/>
      <point x="399" y="292" type="line"/>
      <point x="399" y="360" type="line"/>
      <point x="30" y="360" type="line"/>
    </contour>
  </outline>
</glyph>
<glyph name="aavowelsign1telu" format="2">
  <outline>
    <contour>
      <point x="660" y="262" type="curve" smooth="yes"/>
      <point x="730" y="262"/>
      <point x="771" y="305"/>
      <point x="771" y="387" type="curve" smooth="yes"/>
      <point x="771" y="443"/>
      <point x="751" y="476"/>
      <point x="724" y="499" type="curve" smooth="yes"/>
      <point x="695" y="523"/>
      <point x="657" y="536"/>
      <point x="577" y="536" type="curve" smooth="yes"/>
      <point x="273" y="536" type="line"/>
      <point x="273" y="466" type="line"/>
      <point x="610" y="466" type="line" smooth="yes"/>
      <point x="682" y="466"/>
      <point x="703" y="427"/>
      <point x="703" y="381" type="curve" smooth="yes"/>
      <point x="703" y="343"/>
      <point x="690" y="321"/>
      <point x="661" y="321" type="curve" smooth="yes"/>
      <point x="634" y="321"/>
      <point x="619" y="339"/>
      <point x="619" y="379" type="curve" smooth="yes"/>
      <point x="619" y="416"/>
      <point x="631" y="449"/>
      <point x="657" y="483" type="curve"/>
      <point x="585" y="482" type="line"/>
      <point x="567" y="457"/>
      <point x="551" y="421"/>
      <point x="551" y="379" type="curve" smooth="yes"/>
      <point x="551" y="316"/>
      <point x="579" y="262"/>
    </contour>
  </outline>
</glyph>
<glyph name="aavowelsign2telu" format="2">
  <advance width="793"/>
  <outline>
    <contour>
      <point x="668" y="226" type="curve" smooth="yes"/>
      <point x="738" y="226"/>
      <point x="779" y="269"/>
      <point x="779" y="351" type="curve" smooth="yes"/>
      <point x="779" y="407"/>
      <point x="759" y="440"/>
      <point x="732" y="463" type="curve" smooth="yes"/>
      <point x="703" y="487"/>
      <point x="665" y="500"/>
      <point x="585" y="500" type="curve" smooth="yes"/>
      <point x="93" y="500" type="line"/>
      <point x="93" y="430" type="line"/>
      <point x="618" y="430" type="line" smooth="yes"/>
      <point x="690" y="430"/>
      <point x="711" y="391"/>
      <point x="711" y="345" type="curve" smooth="yes"/>
      <point x="711" y="307"/>
      <point x="698" y="285"/>
      <point x="669" y="285" type="curve" smooth="yes"/>
      <point x="642" y="285"/>
      <point x="627" y="303"/>
      <point x="627" y="343" type="curve" smooth="yes"/>
      <point x="627" y="380"/>
      <point x="639" y="413"/>
      <point x="665" y="447" type="curve"/>
      <point x="593" y="446" type="line"/>
      <point x="575" y="421"/>
      <point x="559" y="385"/>
      <point x="559" y="343" type="curve" smooth="yes"/>
      <point x="559" y="280"/>
      <point x="587" y="226"/>
    </contour>
  </outline>
</glyph>
<glyph name="ailengthmarkUItelu" format="2">
  <outline>
    <contour>
      <point x="-391" y="-47" type="curve" smooth="yes"/>
      <point x="-460" y="-47"/>
      <point x="-498" y="-95"/>
      <point x="-498" y="-161" type="curve" smooth="yes"/>
      <point x="-498" y="-205"/>
      <point x="-483" y="-240"/>
      <point x="-454" y="-264" type="curve" smooth="yes"/>
      <point x="-424" y="-289"/>
      <point x="-381" y="-304"/>
      <point x="-294" y="-304" type="curve" smooth="yes"/>
      <point x="-67" y="-304" type="line"/>
      <point x="-67" y="-234" type="line"/>
      <point x="-338" y="-234" type="line" smooth="yes"/>
      <point x="-410" y="-234"/>
      <point x="-432" y="-200"/>
      <point x="-432" y="-159" type="curve" smooth="yes"/>
      <point x="-432" y="-126"/>
      <point x="-418" y="-106"/>
      <point x="-393" y="-106" type="curve" smooth="yes"/>
      <point x="-371" y="-106"/>
      <point x="-355" y="-121"/>
      <point x="-355" y="-156" type="curve" smooth="yes"/>
      <point x="-355" y="-194"/>
      <point x="-370" y="-228"/>
      <point x="-393" y="-256" type="curve"/>
      <point x="-320" y="-253" type="line"/>
      <point x="-303" y="-225"/>
      <point x="-289" y="-192"/>
      <point x="-289" y="-154" type="curve" smooth="yes"/>
      <point x="-289" y="-99"/>
      <point x="-316" y="-47"/>
    </contour>
  </outline>
</glyph>
<glyph name="ailengthmarknarrowUItelu" format="2">
  <outline>
    <contour>
      <point x="-300" y="-46" type="curve" smooth="yes"/>
      <point x="-369" y="-46"/>
      <point x="-407" y="-94"/>
      <point x="-407" y="-160" type="curve" smooth="yes"/>
      <point x="-407" y="-204"/>
      <point x="-392" y="-239"/>
      <point x="-363" y="-263" type="curve" smooth="yes"/>
      <point x="-333" y="-288"/>
      <point x="-290" y="-303"/>
      <point x="-203" y="-303" type="curve" smooth="yes"/>
      <point x="-20" y="-303" type="line"/>
      <point x="-20" y="-233" type="line"/>
      <point x="-247" y="-233" type="line" smooth="yes"/>
      <point x="-319" y="-233"/>
      <point x="-341" y="-199"/>
      <point x="-341" y="-158" type="curve" smooth="yes"/>
      <point x="-341" y="-125"/>
      <point x="-327" y="-105"/>
      <point x="-302" y="-105" type="curve" smooth="yes"/>
      <point x="-280" y="-105"/>
      <point x="-264" y="-120"/>
      <point x="-264" y="-155" type="curve" smooth="yes"/>
      <point x="-264" y="-193"/>
      <point x="-279" y="-227"/>
      <point x="-302" y="-255" type="curve"/>
      <point x="-229" y="-252" type="line"/>
      <point x="-212" y="-224"/>
      <point x="-198" y="-191"/>
      <point x="-198" y="-153" type="curve" smooth="yes"/>
      <point x="-198" y="-98"/>
      <point x="-225" y="-46"/>
    </contour>
  </outline>
</glyph>
<glyph name="ailengthmarknarrowtelu" format="2">
  <outline>
    <contour>
      <point x="-300" y="-61" type="curve" smooth="yes"/>
      <point x="-369" y="-61"/>
      <point x="-407" y="-109"/>
      <point x="-407" y="-175" type="curve" smooth="yes"/>
      <point x="-407" y="-219"/>
      <point x="-392" y="-254"/>
      <point x="-363" y="-278" type="curve" smooth="yes"/>
      <point x="-333" y="-303"/>
      <point x="-290" y="-318"/>
      <point x="-203" y="-318" type="curve" smooth="yes"/>
      <point x="-20" y="-318" type="line"/>
      <point x="-20" y="-248" type="line"/>
      <point x="-247" y="-248" type="line" smooth="yes"/>
      <point x="-319" y="-248"/>
      <point x="-341" y="-214"/>
      <point x="-341" y="-173" type="curve" smooth="yes"/>
      <point x="-341" y="-140"/>
      <point x="-327" y="-120"/>
      <point x="-302" y="-120" type="curve" smooth="yes"/>
      <point x="-280" y="-120"/>
      <point x="-264" y="-135"/>
      <point x="-264" y="-170" type="curve" smooth="yes"/>
      <point x="-264" y="-208"/>
      <point x="-279" y="-242"/>
      <point x="-302" y="-270" type="curve"/>
      <point x="-229" y="-267" type="line"/>
      <point x="-212" y="-239"/>
      <point x="-198" y="-206"/>
      <point x="-198" y="-168" type="curve" smooth="yes"/>
      <point x="-198" y="-113"/>
      <point x="-225" y="-61"/>
    </contour>
  </outline>
</glyph>
<glyph name="ailengthmarkwideUItelu" format="2">
  <outline>
    <contour>
      <point x="-368" y="-46" type="curve" smooth="yes"/>
      <point x="-437" y="-46"/>
      <point x="-475" y="-94"/>
      <point x="-475" y="-160" type="curve" smooth="yes"/>
      <point x="-475" y="-204"/>
      <point x="-460" y="-239"/>
      <point x="-431" y="-263" type="curve" smooth="yes"/>
      <point x="-401" y="-288"/>
      <point x="-358" y="-303"/>
      <point x="-271" y="-303" type="curve" smooth="yes"/>
      <point x="9" y="-303" type="line"/>
      <point x="9" y="-233" type="line"/>
      <point x="-315" y="-233" type="line" smooth="yes"/>
      <point x="-387" y="-233"/>
      <point x="-409" y="-199"/>
      <point x="-409" y="-158" type="curve" smooth="yes"/>
      <point x="-409" y="-125"/>
      <point x="-395" y="-105"/>
      <point x="-370" y="-105" type="curve" smooth="yes"/>
      <point x="-348" y="-105"/>
      <point x="-332" y="-120"/>
      <point x="-332" y="-155" type="curve" smooth="yes"/>
      <point x="-332" y="-193"/>
      <point x="-347" y="-227"/>
      <point x="-370" y="-255" type="curve"/>
      <point x="-297" y="-252" type="line"/>
      <point x="-280" y="-224"/>
      <point x="-266" y="-191"/>
      <point x="-266" y="-153" type="curve" smooth="yes"/>
      <point x="-266" y="-98"/>
      <point x="-293" y="-46"/>
    </contour>
  </outline>
</glyph>
<glyph name="ailengthmarkwiderUItelu" format="2">
  <outline>
    <contour>
      <point x="-389" y="-46" type="curve" smooth="yes"/>
      <point x="-458" y="-46"/>
      <point x="-496" y="-94"/>
      <point x="-496" y="-160" type="curve" smooth="yes"/>
      <point x="-496" y="-204"/>
      <point x="-481" y="-239"/>
      <point x="-452" y="-263" type="curve" smooth="yes"/>
      <point x="-422" y="-288"/>
      <point x="-379" y="-303"/>
      <point x="-292" y="-303" type="curve" smooth="yes"/>
      <point x="30" y="-303" type="line"/>
      <point x="30" y="-233" type="line"/>
      <point x="-336" y="-233" type="line" smooth="yes"/>
      <point x="-408" y="-233"/>
      <point x="-430" y="-199"/>
      <point x="-430" y="-158" type="curve" smooth="yes"/>
      <point x="-430" y="-125"/>
      <point x="-416" y="-105"/>
      <point x="-391" y="-105" type="curve" smooth="yes"/>
      <point x="-369" y="-105"/>
      <point x="-353" y="-120"/>
      <point x="-353" y="-155" type="curve" smooth="yes"/>
      <point x="-353" y="-193"/>
      <point x="-368" y="-227"/>
      <point x="-391" y="-255" type="curve"/>
      <point x="-318" y="-252" type="line"/>
      <point x="-301" y="-224"/>
      <point x="-287" y="-191"/>
      <point x="-287" y="-153" type="curve" smooth="yes"/>
      <point x="-287" y="-98"/>
      <point x="-314" y="-46"/>
    </contour>
  </outline>
</glyph>
<glyph name="ailengthmarkwidertelu" format="2">
  <outline>
    <contour>
      <point x="-389" y="-61" type="curve" smooth="yes"/>
      <point x="-458" y="-61"/>
      <point x="-496" y="-109"/>
      <point x="-496" y="-175" type="curve" smooth="yes"/>
      <point x="-496" y="-219"/>
      <point x="-481" y="-254"/>
      <point x="-452" y="-278" type="curve" smooth="yes"/>
      <point x="-422" y="-303"/>
      <point x="-379" y="-318"/>
      <point x="-292" y="-318" type="curve" smooth="yes"/>
      <point x="30" y="-318" type="line"/>
      <point x="30" y="-248" type="line"/>
      <point x="-336" y="-248" type="line" smooth="yes"/>
      <point x="-408" y="-248"/>
      <point x="-430" y="-214"/>
      <point x="-430" y="-173" type="curve" smooth="yes"/>
      <point x="-430" y="-140"/>
      <point x="-416" y="-120"/>
      <point x="-391" y="-120" type="curve" smooth="yes"/>
      <point x="-369" y="-120"/>
      <point x="-353" y="-135"/>
      <point x="-353" y="-170" type="curve" smooth="yes"/>
      <point x="-353" y="-208"/>
      <point x="-368" y="-242"/>
      <point x="-391" y="-270" type="curve"/>
      <point x="-318" y="-267" type="line"/>
      <point x="-301" y="-239"/>
      <point x="-287" y="-206"/>
      <point x="-287" y="-168" type="curve" smooth="yes"/>
      <point x="-287" y="-113"/>
      <point x="-314" y="-61"/>
    </contour>
  </outline>
</glyph>
<glyph name="ailengthmarkwidetelu" format="2">
  <outline>
    <contour>
      <point x="-368" y="-61" type="curve" smooth="yes"/>
      <point x="-437" y="-61"/>
      <point x="-475" y="-109"/>
      <point x="-475" y="-175" type="curve" smooth="yes"/>
      <point x="-475" y="-219"/>
      <point x="-460" y="-254"/>
      <point x="-431" y="-278" type="curve" smooth="yes"/>
      <point x="-401" y="-303"/>
      <point x="-358" y="-318"/>
      <point x="-271" y="-318" type="curve" smooth="yes"/>
      <point x="9" y="-318" type="line"/>
      <point x="9" y="-248" type="line"/>
      <point x="-315" y="-248" type="line" smooth="yes"/>
      <point x="-387" y="-248"/>
      <point x="-409" y="-214"/>
      <point x="-409" y="-173" type="curve" smooth="yes"/>
      <point x="-409" y="-140"/>
      <point x="-395" y="-120"/>
      <point x="-370" y="-120" type="curve" smooth="yes"/>
      <point x="-348" y="-120"/>
      <point x="-332" y="-135"/>
      <point x="-332" y="-170" type="curve" smooth="yes"/>
      <point x="-332" y="-208"/>
      <point x="-347" y="-242"/>
      <point x="-370" y="-270" type="curve"/>
      <point x="-297" y="-267" type="line"/>
      <point x="-280" y="-239"/>
      <point x="-266" y="-206"/>
      <point x="-266" y="-168" type="curve" smooth="yes"/>
      <point x="-266" y="-113"/>
      <point x="-293" y="-61"/>
    </contour>
  </outline>
</glyph>
<glyph name="auvowelsign1telu" format="2">
  <advance width="770"/>
  <outline>
    <contour>
      <point x="656" y="255" type="curve" smooth="yes"/>
      <point x="726" y="255"/>
      <point x="767" y="298"/>
      <point x="767" y="380" type="curve" smooth="yes"/>
      <point x="767" y="434"/>
      <point x="747" y="468"/>
      <point x="720" y="491" type="curve" smooth="yes"/>
      <point x="691" y="515"/>
      <point x="653" y="529"/>
      <point x="564" y="529" type="curve" smooth="yes"/>
      <point x="65" y="529" type="line"/>
      <point x="65" y="459" type="line"/>
      <point x="177" y="459" type="line" smooth="yes"/>
      <point x="209" y="459"/>
      <point x="225" y="455"/>
      <point x="238" y="445" type="curve" smooth="yes"/>
      <point x="248" y="437"/>
      <point x="254" y="424"/>
      <point x="254" y="409" type="curve" smooth="yes"/>
      <point x="254" y="393"/>
      <point x="249" y="382"/>
      <point x="240" y="375" type="curve" smooth="yes"/>
      <point x="227" y="364"/>
      <point x="207" y="361"/>
      <point x="173" y="361" type="curve" smooth="yes"/>
      <point x="143" y="361" type="line"/>
      <point x="143" y="291" type="line"/>
      <point x="168" y="291" type="line" smooth="yes"/>
      <point x="234" y="291"/>
      <point x="270" y="301"/>
      <point x="298" y="326" type="curve" smooth="yes"/>
      <point x="318" y="344"/>
      <point x="330" y="371"/>
      <point x="330" y="406" type="curve" smooth="yes"/>
      <point x="330" y="428"/>
      <point x="323" y="448"/>
      <point x="315" y="459" type="curve"/>
      <point x="606" y="459" type="line" smooth="yes"/>
      <point x="678" y="459"/>
      <point x="699" y="420"/>
      <point x="699" y="374" type="curve" smooth="yes"/>
      <point x="699" y="336"/>
      <point x="686" y="314"/>
      <point x="657" y="314" type="curve" smooth="yes"/>
      <point x="630" y="314"/>
      <point x="615" y="332"/>
      <point x="615" y="372" type="curve" smooth="yes"/>
      <point x="615" y="409"/>
      <point x="627" y="442"/>
      <point x="653" y="476" type="curve"/>
      <point x="581" y="475" type="line"/>
      <point x="563" y="450"/>
      <point x="547" y="414"/>
      <point x="547" y="372" type="curve" smooth="yes"/>
      <point x="547" y="309"/>
      <point x="575" y="255"/>
    </contour>
  </outline>
</glyph>
<glyph name="auvowelsign2telu" format="2">
  <outline>
    <contour>
      <point x="447" y="409" type="curve" smooth="yes"/>
      <point x="517" y="409"/>
      <point x="558" y="452"/>
      <point x="558" y="534" type="curve" smooth="yes"/>
      <point x="558" y="588"/>
      <point x="538" y="622"/>
      <point x="511" y="645" type="curve" smooth="yes"/>
      <point x="482" y="669"/>
      <point x="444" y="683"/>
      <point x="355" y="683" type="curve" smooth="yes"/>
      <point x="-11" y="683" type="line"/>
      <point x="-11" y="613" type="line"/>
      <point x="111" y="613" type="line" smooth="yes"/>
      <point x="146" y="613"/>
      <point x="164" y="610"/>
      <point x="179" y="598" type="curve" smooth="yes"/>
      <point x="189" y="590"/>
      <point x="198" y="574"/>
      <point x="198" y="555" type="curve" smooth="yes"/>
      <point x="198" y="538"/>
      <point x="192" y="526"/>
      <point x="182" y="517" type="curve" smooth="yes"/>
      <point x="169" y="505"/>
      <point x="148" y="500"/>
      <point x="109" y="500" type="curve" smooth="yes"/>
      <point x="75" y="500" type="line"/>
      <point x="75" y="430" type="line"/>
      <point x="111" y="430" type="line" smooth="yes"/>
      <point x="169" y="430"/>
      <point x="213" y="444"/>
      <point x="241" y="471" type="curve" smooth="yes"/>
      <point x="262" y="491"/>
      <point x="274" y="518"/>
      <point x="274" y="555" type="curve" smooth="yes"/>
      <point x="274" y="579"/>
      <point x="267" y="601"/>
      <point x="259" y="613" type="curve"/>
      <point x="397" y="613" type="line" smooth="yes"/>
      <point x="469" y="613"/>
      <point x="490" y="574"/>
      <point x="490" y="528" type="curve" smooth="yes"/>
      <point x="490" y="490"/>
      <point x="477" y="468"/>
      <point x="448" y="468" type="curve" smooth="yes"/>
      <point x="421" y="468"/>
      <point x="406" y="486"/>
      <point x="406" y="526" type="curve" smooth="yes"/>
      <point x="406" y="563"/>
      <point x="418" y="596"/>
      <point x="444" y="630" type="curve"/>
      <point x="372" y="629" type="line"/>
      <point x="354" y="604"/>
      <point x="338" y="568"/>
      <point x="338" y="526" type="curve" smooth="yes"/>
      <point x="338" y="463"/>
      <point x="366" y="409"/>
    </contour>
  </outline>
</glyph>
<glyph name="auvowelsign3telu" format="2">
  <outline>
    <contour>
      <point x="133" y="409" type="curve" smooth="yes"/>
      <point x="203" y="409"/>
      <point x="244" y="452"/>
      <point x="244" y="534" type="curve" smooth="yes"/>
      <point x="244" y="588"/>
      <point x="224" y="622"/>
      <point x="197" y="645" type="curve" smooth="yes"/>
      <point x="168" y="669"/>
      <point x="130" y="683"/>
      <point x="41" y="683" type="curve" smooth="yes"/>
      <point x="-368" y="683" type="line"/>
      <point x="-368" y="613" type="line"/>
      <point x="-200" y="613" type="line" smooth="yes"/>
      <point x="-165" y="613"/>
      <point x="-147" y="610"/>
      <point x="-132" y="598" type="curve" smooth="yes"/>
      <point x="-122" y="590"/>
      <point x="-113" y="574"/>
      <point x="-113" y="555" type="curve" smooth="yes"/>
      <point x="-113" y="538"/>
      <point x="-119" y="526"/>
      <point x="-129" y="517" type="curve" smooth="yes"/>
      <point x="-142" y="505"/>
      <point x="-163" y="500"/>
      <point x="-202" y="500" type="curve" smooth="yes"/>
      <point x="-255" y="500" type="line"/>
      <point x="-255" y="430" type="line"/>
      <point x="-200" y="430" type="line" smooth="yes"/>
      <point x="-142" y="430"/>
      <point x="-98" y="444"/>
      <point x="-70" y="471" type="curve" smooth="yes"/>
      <point x="-49" y="491"/>
      <point x="-37" y="518"/>
      <point x="-37" y="555" type="curve" smooth="yes"/>
      <point x="-37" y="579"/>
      <point x="-44" y="601"/>
      <point x="-52" y="613" type="curve"/>
      <point x="83" y="613" type="line" smooth="yes"/>
      <point x="155" y="613"/>
      <point x="176" y="574"/>
      <point x="176" y="528" type="curve" smooth="yes"/>
      <point x="176" y="490"/>
      <point x="163" y="468"/>
      <point x="134" y="468" type="curve" smooth="yes"/>
      <point x="107" y="468"/>
      <point x="92" y="486"/>
      <point x="92" y="526" type="curve" smooth="yes"/>
      <point x="92" y="563"/>
      <point x="104" y="596"/>
      <point x="130" y="630" type="curve"/>
      <point x="58" y="629" type="line"/>
      <point x="40" y="604"/>
      <point x="24" y="568"/>
      <point x="24" y="526" type="curve" smooth="yes"/>
      <point x="24" y="463"/>
      <point x="52" y="409"/>
    </contour>
  </outline>
</glyph>
